{
.appVersion = "1271";
DisplayStrings = (
"/A-cy  /Be-cy  /Ve-cy  /Ge-cy  /De-cy  /De-cy.002  /Ie-cy  /Io-cy  /Zhe-cy  /Ze-cy  /Ii-cy  /Iishort-cy  /Ka-cy  /El-cy  /El-cy.001  /Em-cy  /En-cy  /O-cy  \012/Pe-cy  /Er-cy  /Es-cy  /Te-cy  /U-cy  /Ef-cy  /Ha-cy  /Che-cy  /Tse-cy  /Sha-cy  /Shcha-cy  /Softsign-cy  /Hardsign-cy  /Yeru-cy  /Ereversed-cy  /Iu-cy  /Ia-cy \012/a-cy  /be-cy   /ve-cy  /ge-cy  /de-cy  /de-cy.001  /ie-cy  /io-cy  /zhe-cy  /ze-cy  /ii-cy  /iishort-cy  /ka-cy  /el-cy  /el-cy.001  /em-cy  /en-cy  /o-cy   \012/pe-cy  /er-cy  /es-cy  /te-cy  /u-cy  /ef-cy  /ha-cy  /che-cy  /tse-cy  /sha-cy  /shcha-cy  /softsign-cy  /hardsign-cy  /yeru-cy  /ereversed-cy  /iu-cy  /ia-cy",
"/A-cy  /Be-cy  /Ve-cy  /Ge-cy  /Ie-cy  /Iegrave-cy  /Zhe-cy  /Ze-cy  /Ii-cy  /Iishort-cy  /Iigrave-cy  /Ka-cy  /Em-cy  /En-cy  /O-cy  /Pe-cy  /Er-cy  \012/Es-cy  /Te-cy  /U-cy  /Ha-cy  /Che-cy  /Tse-cy  /Sha-cy  /Shcha-cy  /Softsign-cy  /Hardsign-cy  /Iu-cy  /Ia-cy  /De-cy.loclBGR  /El-cy.loclBGR  /Ef-cy.loclBGR \012/a-cy  /be-cy  /ve-cy.loclBGR  /ge-cy.loclBGR  /ie-cy  /iegrave-cy  /zhe-cy.loclBGR  /ze-cy.loclBGR  /ii-cy.loclBGR  /iishort-cy.loclBGR  /iigrave-cy.loclBGR  /ka-cy.loclBGR  /em-cy  /en-cy  /o-cy  /pe-cy.loclBGR  /er-cy \012/es-cy  /te-cy.loclBGR  /u-cy  /ha-cy  /che-cy  /tse-cy.loclBGR  /sha-cy.loclBGR  /shcha-cy.loclBGR  /softsign-cy.loclBGR  /hardsign-cy.loclBGR  /iu-cy.loclBGR  /ia-cy  /de-cy.loclBGR  /el-cy.loclBGR  ",

glyphs = (
{
color = 7;
glyphname = "Be-cy";
lastChange = "2020-01-06 08:26:53 +0000";
layers = (
{
hints = (
{
horizontal = 1;
origin = "{0, 13}";
target = "{1, 9}";
type = Stem;
},
{
horizontal = 1;
origin = "{1, 0}";
target = "{0, 8}";
type = Stem;
},
{
horizontal = 1;
origin = "{0, 9}";
target = "{0, 12}";
type = Stem;
},
{
origin = "{0, 13}";
target = "{1, 9}";
type = Stem;
},
{
origin = "{1, 5}";
target = "{0, 3}";
type = Stem;
}
);
layerId = "72B922C0-AA1F-4D08-9FB7-788394CCB5D9";
paths = (
{
closed = 1;
nodes = (
"337 0 LINE SMOOTH",
"435 0 OFFCURVE",
"484 41 OFFCURVE",
"484 124 CURVE SMOOTH",
"484 284 LINE SMOOTH",
"484 367 OFFCURVE",
"435 408 OFFCURVE",
"337 408 CURVE SMOOTH",
"215 408 LINE",
"215 517 LINE",
"459 517 LINE",
"459 642 LINE",
"40 642 LINE",
"40 0 LINE"
);
},
{
closed = 1;
nodes = (
"215 283 LINE",
"284 283 LINE SMOOTH",
"301 283 OFFCURVE",
"309 276 OFFCURVE",
"309 261 CURVE SMOOTH",
"309 147 LINE SMOOTH",
"309 132 OFFCURVE",
"301 125 OFFCURVE",
"284 125 CURVE SMOOTH",
"215 125 LINE"
);
}
);
width = 509;
}
);
unicode = 0411;
},
{
color = 7;
glyphname = "Ge-cy";
lastChange = "2020-01-06 08:26:53 +0000";
layers = (
{
layerId = "72B922C0-AA1F-4D08-9FB7-788394CCB5D9";
paths = (
{
closed = 1;
nodes = (
"215 0 LINE",
"215 517 LINE",
"404 517 LINE",
"404 642 LINE",
"40 642 LINE",
"40 0 LINE"
);
}
);
width = 409;
}
);
unicode = 0413;
},
{
color = 7;
glyphname = "Gheupturn-cy";
lastChange = "2020-01-06 08:26:53 +0000";
layers = (
{
components = (
{
name = "Ge-cy";
}
);
layerId = "72B922C0-AA1F-4D08-9FB7-788394CCB5D9";
paths = (
{
closed = 1;
nodes = (
"404 559 LINE",
"404 752 LINE",
"254 752 LINE",
"254 642 LINE",
"80 642 LINE",
"80 559 LINE"
);
}
);
width = 409;
}
);
unicode = 0490;
},
{
color = 7;
glyphname = "De-cy";
lastChange = "2020-01-06 08:26:53 +0000";
layers = (
{
associatedMasterId = "72B922C0-AA1F-4D08-9FB7-788394CCB5D9";
layerId = "5A597D80-D6D7-48F0-8819-FF141DCB822C";
name = "Dec 26 19, 16:05";
paths = (
{
closed = 1;
nodes = (
"588 -110 LINE",
"588 125 LINE",
"152 125 LINE",
"152 0 LINE",
"438 0 LINE",
"438 -110 LINE"
);
},
{
closed = 1;
nodes = (
"150 0 LINE",
"436 0 LINE",
"436 125 LINE",
"0 125 LINE",
"0 -110 LINE",
"150 -110 LINE"
);
},
{
closed = 1;
nodes = (
"528 50 LINE",
"528 642 LINE",
"171 642 LINE",
"171 517 LINE",
"353 517 LINE",
"353 50 LINE"
);
},
{
closed = 1;
nodes = (
"60 147 LINE",
"60 125 OFFCURVE",
"35 125 QCURVE SMOOTH",
"20 125 LINE",
"20 40 LINE",
"88 40 LINE SMOOTH",
"228 40 OFFCURVE",
"235 164 QCURVE SMOOTH",
"255 499 LINE",
"255 517 LINE",
"435 517 LINE",
"435 642 LINE",
"90 642 LINE"
);
}
);
width = 588;
},
{
layerId = "72B922C0-AA1F-4D08-9FB7-788394CCB5D9";
paths = (
{
closed = 1;
nodes = (
"160 -100 LINE",
"160 0 LINE",
"444 0 LINE",
"444 -100 LINE",
"594 -100 LINE",
"594 125 LINE",
"544 125 LINE",
"544 642 LINE",
"169 642 LINE",
"169 517 LINE",
"372 517 LINE",
"372 125 LINE",
"10 125 LINE",
"10 -100 LINE"
);
},
{
closed = 1;
nodes = (
"83 40 LINE SMOOTH",
"234 40 OFFCURVE",
"240 164 QCURVE SMOOTH",
"257 517 LINE",
"450 517 LINE",
"450 642 LINE",
"89 642 LINE",
"66 174 LINE SMOOTH",
"64 125 OFFCURVE",
"25 125 QCURVE SMOOTH",
"10 125 LINE",
"10 40 LINE"
);
}
);
width = 604;
},
{
associatedMasterId = "72B922C0-AA1F-4D08-9FB7-788394CCB5D9";
layerId = "D906C4A0-939A-406B-B147-85BE678FAB01";
name = "Dec 30 19, 19:20";
paths = (
{
closed = 1;
nodes = (
"578 -110 LINE",
"578 125 LINE",
"152 125 LINE",
"152 0 LINE",
"428 0 LINE",
"428 -110 LINE"
);
},
{
closed = 1;
nodes = (
"150 0 LINE",
"426 0 LINE",
"426 125 LINE",
"0 125 LINE",
"0 -110 LINE",
"150 -110 LINE"
);
},
{
closed = 1;
nodes = (
"518 50 LINE",
"518 642 LINE",
"151 642 LINE",
"151 517 LINE",
"343 517 LINE",
"343 50 LINE"
);
},
{
closed = 1;
nodes = (
"60 147 LINE",
"60 125 OFFCURVE",
"35 125 QCURVE SMOOTH",
"20 125 LINE",
"20 40 LINE",
"88 40 LINE SMOOTH",
"235 40 OFFCURVE",
"235 164 QCURVE SMOOTH",
"235 517 LINE",
"425 517 LINE",
"425 642 LINE",
"60 642 LINE"
);
}
);
width = 578;
}
);
unicode = 0414;
},
{
color = 7;
glyphname = "Io-cy";
lastChange = "2020-01-06 08:26:53 +0000";
layers = (
{
components = (
{
name = E;
}
);
layerId = "72B922C0-AA1F-4D08-9FB7-788394CCB5D9";
paths = (
{
closed = 1;
nodes = (
"428 675 LINE",
"428 805 LINE",
"276 805 LINE",
"276 675 LINE"
);
},
{
closed = 1;
nodes = (
"192 675 LINE",
"192 805 LINE",
"40 805 LINE",
"40 675 LINE"
);
}
);
width = 449;
}
);
unicode = 0401;
},
{
color = 7;
glyphname = "Zhe-cy";
lastChange = "2020-01-06 08:26:53 +0000";
layers = (
{
layerId = "72B922C0-AA1F-4D08-9FB7-788394CCB5D9";
paths = (
{
closed = 1;
nodes = (
"787 0 LINE",
"660 328 LINE",
"786 642 LINE",
"598 642 LINE",
"479 328 LINE",
"599 0 LINE"
);
},
{
closed = 1;
nodes = (
"183 0 LINE",
"303 328 LINE",
"184 642 LINE",
"-4 642 LINE",
"122 328 LINE",
"-5 0 LINE"
);
},
{
closed = 1;
nodes = (
"478 0 LINE",
"478 642 LINE",
"304 642 LINE",
"304 0 LINE"
);
}
);
width = 782;
},
{
associatedMasterId = "72B922C0-AA1F-4D08-9FB7-788394CCB5D9";
layerId = "78B41C1D-9982-4C9F-9942-A0D1268F59FE";
name = "Dec 21 19, 16:28";
paths = (
{
closed = 1;
nodes = (
"781 642 LINE",
"595 642 LINE",
"477 328 LINE",
"595 0 LINE",
"781 0 LINE",
"654 328 LINE"
);
},
{
closed = 1;
nodes = (
"478 0 LINE",
"478 642 LINE",
"310 642 LINE",
"310 0 LINE"
);
},
{
closed = 1;
nodes = (
"7 0 LINE",
"193 0 LINE",
"311 328 LINE",
"193 642 LINE",
"7 642 LINE",
"134 328 LINE"
);
}
);
width = 788;
}
);
unicode = 0416;
},
{
color = 7;
glyphname = "Iishort-cy";
lastChange = "2020-01-06 08:26:53 +0000";
layers = (
{
components = (
{
name = N;
transform = "{-1, 0, 0, 1, 533, 0}";
}
);
layerId = "72B922C0-AA1F-4D08-9FB7-788394CCB5D9";
paths = (
{
closed = 1;
nodes = (
"319 675 LINE SMOOTH",
"466 675 OFFCURVE",
"466 799 QCURVE",
"466 825 LINE",
"316 825 LINE",
"316 792 LINE",
"316 770 OFFCURVE",
"291 770 QCURVE",
"247 770 LINE",
"222 770 OFFCURVE",
"222 792 QCURVE",
"222 825 LINE",
"72 825 LINE",
"72 799 LINE",
"72 675 OFFCURVE",
"219 675 QCURVE"
);
}
);
width = 533;
}
);
unicode = 0419;
},
{
color = 7;
glyphname = "El-cy";
lastChange = "2020-01-06 08:26:53 +0000";
layers = (
{
associatedMasterId = "72B922C0-AA1F-4D08-9FB7-788394CCB5D9";
layerId = "62447844-BBC6-4093-8BF0-1F200D773C7C";
name = "Dec 26 19, 16:04";
paths = (
{
closed = 1;
nodes = (
"515 0 LINE",
"515 642 LINE",
"151 642 LINE",
"151 517 LINE",
"340 517 LINE",
"340 0 LINE"
);
},
{
closed = 1;
nodes = (
"60 147 LINE",
"60 125 OFFCURVE",
"35 125 QCURVE SMOOTH",
"0 125 LINE",
"0 0 LINE",
"81 0 LINE SMOOTH",
"222 0 OFFCURVE",
"228 124 QCURVE SMOOTH",
"245 499 LINE",
"245 517 LINE",
"434 517 LINE",
"434 642 LINE",
"80 642 LINE"
);
}
);
width = 555;
},
{
layerId = "72B922C0-AA1F-4D08-9FB7-788394CCB5D9";
paths = (
{
closed = 1;
nodes = (
"76 0 LINE SMOOTH",
"179 0 OFFCURVE",
"232 58 OFFCURVE",
"237 174 CURVE SMOOTH",
"250 517 LINE",
"355 517 LINE",
"355 0 LINE",
"530 0 LINE",
"530 642 LINE",
"84 642 LINE",
"61 174 LINE SMOOTH",
"60 141 OFFCURVE",
"47 125 OFFCURVE",
"22 125 CURVE SMOOTH",
"5 125 LINE",
"5 0 LINE"
);
}
);
width = 570;
},
{
associatedMasterId = "72B922C0-AA1F-4D08-9FB7-788394CCB5D9";
layerId = "6AAE1627-5A96-4F27-979E-F4A5207F3F24";
name = "Dec 30 19, 19:23";
paths = (
{
closed = 1;
nodes = (
"521 0 LINE",
"521 642 LINE",
"154 642 LINE",
"154 517 LINE",
"346 517 LINE",
"346 0 LINE"
);
},
{
closed = 1;
nodes = (
"65 147 LINE",
"65 125 OFFCURVE",
"40 125 QCURVE SMOOTH",
"5 125 LINE",
"5 0 LINE",
"93 0 LINE SMOOTH",
"240 0 OFFCURVE",
"240 124 QCURVE SMOOTH",
"240 517 LINE",
"432 517 LINE",
"432 642 LINE",
"65 642 LINE"
);
}
);
width = 561;
}
);
unicode = 041B;
},
{
color = 7;
glyphname = "Pe-cy";
lastChange = "2020-01-06 08:26:53 +0000";
layers = (
{
layerId = "72B922C0-AA1F-4D08-9FB7-788394CCB5D9";
paths = (
{
closed = 1;
nodes = (
"215 0 LINE",
"215 517 LINE",
"341 517 LINE",
"341 0 LINE",
"516 0 LINE",
"516 642 LINE",
"40 642 LINE",
"40 0 LINE"
);
}
);
width = 556;
},
{
associatedMasterId = "72B922C0-AA1F-4D08-9FB7-788394CCB5D9";
layerId = "AEBDDB26-A10D-4915-AC1F-A9A6DE12D938";
name = "Dec 30 19, 18:56";
paths = (
{
closed = 1;
nodes = (
"214 517 LINE",
"406 517 LINE",
"406 642 LINE",
"40 642 LINE",
"40 0 LINE",
"214 0 LINE"
);
},
{
closed = 1;
nodes = (
"500 0 LINE",
"500 642 LINE",
"134 642 LINE",
"134 517 LINE",
"326 517 LINE",
"326 0 LINE"
);
}
);
width = 540;
}
);
unicode = 041F;
},
{
color = 7;
glyphname = "U-cy";
lastChange = "2020-01-06 08:26:53 +0000";
layers = (
{
layerId = "72B922C0-AA1F-4D08-9FB7-788394CCB5D9";
paths = (
{
closed = 1;
nodes = (
"182 0 LINE SMOOTH",
"291 0 OFFCURVE",
"344 46 OFFCURVE",
"371 139 CURVE SMOOTH",
"517 642 LINE",
"339 642 LINE",
"267 340 LINE",
"184 642 LINE",
"5 642 LINE",
"159 172 LINE",
"224 172 LINE",
"211 132 OFFCURVE",
"194 123 OFFCURVE",
"162 123 CURVE SMOOTH",
"88 123 LINE",
"88 0 LINE"
);
}
);
width = 502;
},
{
associatedMasterId = "72B922C0-AA1F-4D08-9FB7-788394CCB5D9";
layerId = "7324D60E-FA3F-4AF6-9D78-3612A60BF5C1";
name = "Dec 30 19, 17:16";
paths = (
{
closed = 1;
nodes = (
"255 0 OFFCURVE",
"341 69 OFFCURVE",
"362 139 QCURVE SMOOTH",
"511 642 LINE",
"333 642 LINE",
"264 335 LINE",
"184 642 LINE",
"5 642 LINE",
"160 172 LINE",
"225 172 LINE",
"215 142 OFFCURVE",
"187 123 OFFCURVE",
"163 123 QCURVE SMOOTH",
"89 123 LINE",
"89 0 LINE",
"173 0 LINE SMOOTH"
);
}
);
width = 506;
}
);
unicode = 0423;
},
{
color = 7;
glyphname = "Ef-cy";
lastChange = "2020-01-06 08:26:53 +0000";
layers = (
{
layerId = "72B922C0-AA1F-4D08-9FB7-788394CCB5D9";
paths = (
{
closed = 1;
nodes = (
"474 -24 LINE",
"474 57 LINE",
"592 57 LINE SMOOTH",
"690 57 OFFCURVE",
"739 98 OFFCURVE",
"739 181 CURVE SMOOTH",
"739 461 LINE SMOOTH",
"741 544 OFFCURVE",
"692 585 OFFCURVE",
"592 585 CURVE SMOOTH",
"474 585 LINE",
"474 666 LINE",
"300 666 LINE",
"300 585 LINE",
"182 585 LINE SMOOTH",
"82 585 OFFCURVE",
"33 544 OFFCURVE",
"35 461 CURVE SMOOTH",
"35 181 LINE SMOOTH",
"35 98 OFFCURVE",
"84 57 OFFCURVE",
"182 57 CURVE SMOOTH",
"300 57 LINE",
"300 -24 LINE"
);
},
{
closed = 1;
nodes = (
"218 179 OFFCURVE",
"210 186 OFFCURVE",
"210 201 CURVE SMOOTH",
"210 441 LINE SMOOTH",
"210 456 OFFCURVE",
"218 463 OFFCURVE",
"235 463 CURVE SMOOTH",
"300 463 LINE",
"300 179 LINE",
"235 179 LINE SMOOTH"
);
},
{
closed = 1;
nodes = (
"474 463 LINE",
"539 463 LINE SMOOTH",
"556 463 OFFCURVE",
"564 456 OFFCURVE",
"564 441 CURVE SMOOTH",
"564 201 LINE SMOOTH",
"564 186 OFFCURVE",
"556 179 OFFCURVE",
"539 179 CURVE SMOOTH",
"474 179 LINE"
);
}
);
width = 774;
}
);
unicode = 0424;
},
{
color = 7;
glyphname = "Che-cy";
lastChange = "2020-01-06 08:26:53 +0000";
layers = (
{
layerId = "72B922C0-AA1F-4D08-9FB7-788394CCB5D9";
paths = (
{
closed = 1;
nodes = (
"480 0 LINE",
"480 642 LINE",
"305 642 LINE",
"305 345 LINE",
"228 345 LINE SMOOTH",
"211 345 OFFCURVE",
"203 352 OFFCURVE",
"203 367 CURVE SMOOTH",
"203 642 LINE",
"28 642 LINE",
"28 344 LINE SMOOTH",
"28 261 OFFCURVE",
"77 220 OFFCURVE",
"175 220 CURVE SMOOTH",
"305 220 LINE",
"305 0 LINE"
);
}
);
width = 520;
}
);
unicode = 0427;
},
{
color = 7;
glyphname = "Tse-cy";
lastChange = "2020-01-06 08:26:53 +0000";
layers = (
{
layerId = "72B922C0-AA1F-4D08-9FB7-788394CCB5D9";
paths = (
{
closed = 1;
nodes = (
"566 -100 LINE",
"566 125 LINE",
"516 125 LINE",
"516 642 LINE",
"341 642 LINE",
"341 125 LINE",
"215 125 LINE",
"215 642 LINE",
"40 642 LINE",
"40 0 LINE",
"416 0 LINE",
"416 -100 LINE"
);
}
);
width = 576;
}
);
unicode = 0426;
},
{
color = 7;
glyphname = "Sha-cy";
lastChange = "2020-01-06 08:26:53 +0000";
layers = (
{
layerId = "72B922C0-AA1F-4D08-9FB7-788394CCB5D9";
paths = (
{
closed = 1;
nodes = (
"782 0 LINE",
"782 642 LINE",
"607 642 LINE",
"607 125 LINE",
"497 125 LINE",
"497 642 LINE",
"325 642 LINE",
"325 125 LINE",
"215 125 LINE",
"215 642 LINE",
"40 642 LINE",
"40 0 LINE"
);
}
);
width = 822;
}
);
unicode = 0428;
},
{
color = 7;
glyphname = "Shcha-cy";
lastChange = "2020-01-06 08:26:53 +0000";
layers = (
{
layerId = "72B922C0-AA1F-4D08-9FB7-788394CCB5D9";
paths = (
{
closed = 1;
nodes = (
"832 -100 LINE",
"832 125 LINE",
"782 125 LINE",
"782 642 LINE",
"607 642 LINE",
"607 125 LINE",
"497 125 LINE",
"497 642 LINE",
"325 642 LINE",
"325 125 LINE",
"215 125 LINE",
"215 642 LINE",
"40 642 LINE",
"40 0 LINE",
"682 0 LINE",
"682 -100 LINE"
);
}
);
width = 842;
}
);
unicode = 0429;
},
{
color = 7;
glyphname = "Dzhe-cy";
lastChange = "2020-01-06 08:26:53 +0000";
layers = (
{
layerId = "72B922C0-AA1F-4D08-9FB7-788394CCB5D9";
paths = (
{
closed = 1;
nodes = (
"353 -100 LINE",
"353 0 LINE",
"516 0 LINE",
"516 642 LINE",
"341 642 LINE",
"341 125 LINE",
"215 125 LINE",
"215 642 LINE",
"40 642 LINE",
"40 0 LINE",
"203 0 LINE",
"203 -100 LINE"
);
}
);
width = 556;
}
);
unicode = 040F;
},
{
color = 7;
glyphname = "Softsign-cy";
lastChange = "2020-01-06 08:26:53 +0000";
layers = (
{
layerId = "72B922C0-AA1F-4D08-9FB7-788394CCB5D9";
paths = (
{
closed = 1;
nodes = (
"337 0 LINE SMOOTH",
"484 0 OFFCURVE",
"484 124 QCURVE SMOOTH",
"484 289 LINE",
"484 413 OFFCURVE",
"337 413 QCURVE",
"215 413 LINE",
"215 642 LINE",
"40 642 LINE",
"40 0 LINE"
);
},
{
closed = 1;
nodes = (
"215 288 LINE",
"284 288 LINE",
"309 288 OFFCURVE",
"309 266 QCURVE",
"309 147 LINE SMOOTH",
"309 125 OFFCURVE",
"284 125 QCURVE SMOOTH",
"215 125 LINE"
);
}
);
width = 509;
}
);
unicode = 042C;
},
{
color = 7;
glyphname = "Hardsign-cy";
lastChange = "2020-01-06 08:26:53 +0000";
layers = (
{
layerId = "72B922C0-AA1F-4D08-9FB7-788394CCB5D9";
paths = (
{
closed = 1;
nodes = (
"392 0 LINE SMOOTH",
"490 0 OFFCURVE",
"539 41 OFFCURVE",
"539 124 CURVE SMOOTH",
"539 289 LINE SMOOTH",
"539 372 OFFCURVE",
"490 413 OFFCURVE",
"392 413 CURVE SMOOTH",
"270 413 LINE",
"270 642 LINE",
"0 642 LINE",
"0 519 LINE",
"95 519 LINE",
"95 0 LINE"
);
},
{
closed = 1;
nodes = (
"270 288 LINE",
"339 288 LINE SMOOTH",
"356 288 OFFCURVE",
"364 281 OFFCURVE",
"364 266 CURVE SMOOTH",
"364 147 LINE SMOOTH",
"364 132 OFFCURVE",
"356 125 OFFCURVE",
"339 125 CURVE SMOOTH",
"270 125 LINE"
);
}
);
width = 564;
}
);
unicode = 042A;
},
{
color = 7;
glyphname = "Yeru-cy";
lastChange = "2020-01-06 08:26:53 +0000";
layers = (
{
components = (
{
name = "Softsign-cy";
}
);
layerId = "72B922C0-AA1F-4D08-9FB7-788394CCB5D9";
paths = (
{
closed = 1;
nodes = (
"724 0 LINE",
"724 642 LINE",
"549 642 LINE",
"549 0 LINE"
);
}
);
width = 764;
}
);
unicode = 042B;
},
{
color = 7;
glyphname = "Lje-cy";
lastChange = "2020-01-06 08:26:53 +0000";
layers = (
{
layerId = "72B922C0-AA1F-4D08-9FB7-788394CCB5D9";
paths = (
{
closed = 1;
nodes = (
"71 0 LINE SMOOTH",
"174 0 OFFCURVE",
"227 55 OFFCURVE",
"232 164 CURVE SMOOTH",
"247 517 LINE",
"343 517 LINE",
"343 0 LINE",
"640 0 LINE SMOOTH",
"738 0 OFFCURVE",
"787 41 OFFCURVE",
"787 124 CURVE SMOOTH",
"787 289 LINE SMOOTH",
"787 372 OFFCURVE",
"738 413 OFFCURVE",
"640 413 CURVE SMOOTH",
"518 413 LINE",
"518 642 LINE",
"81 642 LINE",
"56 174 LINE SMOOTH",
"54 141 OFFCURVE",
"41 125 OFFCURVE",
"17 125 CURVE SMOOTH",
"0 125 LINE",
"0 0 LINE"
);
},
{
closed = 1;
nodes = (
"518 288 LINE",
"587 288 LINE SMOOTH",
"604 288 OFFCURVE",
"612 281 OFFCURVE",
"612 266 CURVE SMOOTH",
"612 147 LINE SMOOTH",
"612 132 OFFCURVE",
"604 125 OFFCURVE",
"587 125 CURVE SMOOTH",
"518 125 LINE"
);
}
);
width = 812;
},
{
associatedMasterId = "72B922C0-AA1F-4D08-9FB7-788394CCB5D9";
components = (
{
name = "Softsign-cy";
transform = "{1, 0, 0, 1, 303, 0}";
}
);
layerId = "98EC4C8A-8888-4430-A3BB-511C9A141396";
name = "Dec 30 19, 19:35";
paths = (
{
closed = 1;
nodes = (
"65 147 LINE",
"65 125 OFFCURVE",
"40 125 QCURVE SMOOTH",
"5 125 LINE",
"5 0 LINE",
"93 0 LINE SMOOTH",
"240 0 OFFCURVE",
"240 124 QCURVE SMOOTH",
"240 517 LINE",
"440 517 LINE",
"440 642 LINE",
"65 642 LINE"
);
}
);
width = 808;
}
);
unicode = 0409;
},
{
color = 7;
glyphname = "Nje-cy";
lastChange = "2020-01-06 08:26:53 +0000";
layers = (
{
layerId = "72B922C0-AA1F-4D08-9FB7-788394CCB5D9";
paths = (
{
closed = 1;
nodes = (
"212 0 LINE",
"212 268 LINE",
"338 268 LINE",
"338 0 LINE",
"634 0 LINE SMOOTH",
"732 0 OFFCURVE",
"781 41 OFFCURVE",
"781 124 CURVE SMOOTH",
"781 269 LINE SMOOTH",
"781 352 OFFCURVE",
"732 393 OFFCURVE",
"634 393 CURVE SMOOTH",
"510 393 LINE",
"510 642 LINE",
"338 642 LINE",
"338 393 LINE",
"212 393 LINE",
"212 642 LINE",
"40 642 LINE",
"40 0 LINE"
);
},
{
closed = 1;
nodes = (
"510 268 LINE",
"581 268 LINE SMOOTH",
"598 268 OFFCURVE",
"606 261 OFFCURVE",
"606 246 CURVE SMOOTH",
"606 147 LINE SMOOTH",
"606 132 OFFCURVE",
"598 125 OFFCURVE",
"581 125 CURVE SMOOTH",
"510 125 LINE"
);
}
);
width = 806;
}
);
unicode = 040A;
},
{
color = 7;
glyphname = "Ereversed-cy";
lastChange = "2020-01-06 08:26:53 +0000";
layers = (
{
layerId = "72B922C0-AA1F-4D08-9FB7-788394CCB5D9";
paths = (
{
closed = 1;
nodes = (
"309 0 LINE SMOOTH",
"407 0 OFFCURVE",
"456 41 OFFCURVE",
"456 124 CURVE SMOOTH",
"456 518 LINE SMOOTH",
"456 601 OFFCURVE",
"407 642 OFFCURVE",
"309 642 CURVE SMOOTH",
"172 642 LINE SMOOTH",
"74 642 OFFCURVE",
"25 601 OFFCURVE",
"25 518 CURVE SMOOTH",
"25 432 LINE",
"200 432 LINE",
"200 505 LINE SMOOTH",
"200 520 OFFCURVE",
"208 527 OFFCURVE",
"225 527 CURVE SMOOTH",
"258 527 LINE SMOOTH",
"275 527 OFFCURVE",
"283 520 OFFCURVE",
"283 505 CURVE SMOOTH",
"283 384 LINE",
"143 384 LINE",
"143 259 LINE",
"283 259 LINE",
"283 137 LINE SMOOTH",
"283 122 OFFCURVE",
"275 115 OFFCURVE",
"258 115 CURVE SMOOTH",
"225 115 LINE SMOOTH",
"208 115 OFFCURVE",
"200 122 OFFCURVE",
"200 137 CURVE SMOOTH",
"200 210 LINE",
"25 210 LINE",
"25 124 LINE SMOOTH",
"25 41 OFFCURVE",
"74 0 OFFCURVE",
"172 0 CURVE SMOOTH"
);
}
);
width = 493;
}
);
unicode = 042D;
},
{
color = 7;
glyphname = "Tshe-cy";
lastChange = "2020-01-06 08:26:53 +0000";
layers = (
{
layerId = "72B922C0-AA1F-4D08-9FB7-788394CCB5D9";
paths = (
{
closed = 1;
nodes = (
"270 0 LINE",
"270 283 LINE",
"347 283 LINE SMOOTH",
"364 283 OFFCURVE",
"372 276 OFFCURVE",
"372 261 CURVE SMOOTH",
"372 0 LINE",
"547 0 LINE",
"547 284 LINE SMOOTH",
"547 367 OFFCURVE",
"498 408 OFFCURVE",
"400 408 CURVE SMOOTH",
"270 408 LINE",
"270 517 LINE",
"445 517 LINE",
"445 642 LINE",
"0 642 LINE",
"0 517 LINE",
"95 517 LINE",
"95 0 LINE"
);
}
);
width = 577;
},
{
associatedMasterId = "72B922C0-AA1F-4D08-9FB7-788394CCB5D9";
layerId = "4DEB442E-59BD-4A77-B3D8-4A1F246A297A";
name = "Dec 24 19, 23:16";
paths = (
{
closed = 1;
nodes = (
"269 419 OFFCURVE",
"250 365 QCURVE",
"250 589 LINE",
"80 589 LINE",
"80 0 LINE",
"250 0 LINE",
"250 264 LINE SMOOTH",
"250 294 OFFCURVE",
"277 294 QCURVE SMOOTH",
"294 294 LINE SMOOTH",
"319 294 OFFCURVE",
"319 272 QCURVE SMOOTH",
"319 0 LINE",
"489 0 LINE",
"489 295 LINE SMOOTH",
"489 419 OFFCURVE",
"356 419 QCURVE SMOOTH",
"338 419 LINE"
);
},
{
closed = 1;
nodes = (
"0 642 LINE",
"0 517 LINE",
"80 517 LINE",
"80 0 LINE",
"250 0 LINE",
"250 517 LINE",
"330 517 LINE",
"330 642 LINE"
);
}
);
width = 524;
}
);
unicode = 040B;
},
{
color = 7;
glyphname = "Iu-cy";
lastChange = "2020-01-06 08:26:53 +0000";
layers = (
{
layerId = "72B922C0-AA1F-4D08-9FB7-788394CCB5D9";
paths = (
{
closed = 1;
nodes = (
"215 0 LINE",
"215 254 LINE",
"307 254 LINE",
"307 124 LINE SMOOTH",
"307 41 OFFCURVE",
"356 0 OFFCURVE",
"454 0 CURVE SMOOTH",
"602 0 LINE SMOOTH",
"700 0 OFFCURVE",
"749 41 OFFCURVE",
"749 124 CURVE SMOOTH",
"749 518 LINE SMOOTH",
"749 601 OFFCURVE",
"700 642 OFFCURVE",
"602 642 CURVE SMOOTH",
"454 642 LINE SMOOTH",
"356 642 OFFCURVE",
"307 601 OFFCURVE",
"307 518 CURVE SMOOTH",
"307 379 LINE",
"215 379 LINE",
"215 642 LINE",
"40 642 LINE",
"40 0 LINE"
);
},
{
closed = 1;
nodes = (
"490 125 OFFCURVE",
"482 132 OFFCURVE",
"482 147 CURVE SMOOTH",
"482 495 LINE SMOOTH",
"482 510 OFFCURVE",
"490 517 OFFCURVE",
"507 517 CURVE SMOOTH",
"549 517 LINE SMOOTH",
"566 517 OFFCURVE",
"574 510 OFFCURVE",
"574 495 CURVE SMOOTH",
"574 147 LINE SMOOTH",
"574 132 OFFCURVE",
"566 125 OFFCURVE",
"549 125 CURVE SMOOTH",
"507 125 LINE SMOOTH"
);
}
);
width = 786;
}
);
unicode = 042E;
},
{
color = 7;
glyphname = "Dje-cy";
lastChange = "2020-01-06 08:26:53 +0000";
layers = (
{
layerId = "72B922C0-AA1F-4D08-9FB7-788394CCB5D9";
paths = (
{
closed = 1;
nodes = (
"270 0 LINE",
"270 283 LINE",
"352 283 LINE SMOOTH",
"369 283 OFFCURVE",
"377 276 OFFCURVE",
"377 261 CURVE SMOOTH",
"377 147 LINE SMOOTH",
"377 132 OFFCURVE",
"369 125 OFFCURVE",
"352 125 CURVE SMOOTH",
"323 125 LINE",
"323 0 LINE",
"405 0 LINE SMOOTH",
"503 0 OFFCURVE",
"552 41 OFFCURVE",
"552 124 CURVE SMOOTH",
"552 284 LINE SMOOTH",
"552 367 OFFCURVE",
"503 408 OFFCURVE",
"405 408 CURVE SMOOTH",
"270 408 LINE",
"270 517 LINE",
"455 517 LINE",
"455 642 LINE",
"0 642 LINE",
"0 517 LINE",
"95 517 LINE",
"95 0 LINE"
);
}
);
width = 577;
}
);
unicode = 0402;
},
{
color = 7;
glyphname = "Yat-cy";
lastChange = "2020-01-06 08:26:53 +0000";
layers = (
{
layerId = "72B922C0-AA1F-4D08-9FB7-788394CCB5D9";
paths = (
{
closed = 1;
nodes = (
"391 0 LINE SMOOTH",
"489 0 OFFCURVE",
"538 41 OFFCURVE",
"538 124 CURVE SMOOTH",
"538 284 LINE SMOOTH",
"538 367 OFFCURVE",
"489 408 OFFCURVE",
"391 408 CURVE SMOOTH",
"269 408 LINE",
"269 467 LINE",
"444 467 LINE",
"444 582 LINE",
"269 582 LINE",
"269 669 LINE",
"95 669 LINE",
"95 582 LINE",
"0 582 LINE",
"0 467 LINE",
"95 467 LINE",
"95 0 LINE"
);
},
{
closed = 1;
nodes = (
"269 283 LINE",
"338 283 LINE SMOOTH",
"355 283 OFFCURVE",
"363 276 OFFCURVE",
"363 261 CURVE SMOOTH",
"363 147 LINE SMOOTH",
"363 132 OFFCURVE",
"355 125 OFFCURVE",
"338 125 CURVE SMOOTH",
"269 125 LINE"
);
}
);
width = 563;
}
);
unicode = 0462;
},
{
color = 7;
glyphname = "Yusbig-cy";
lastChange = "2020-01-06 08:26:53 +0000";
layers = (
{
layerId = "72B922C0-AA1F-4D08-9FB7-788394CCB5D9";
paths = (
{
closed = 1;
nodes = (
"418 0 LINE",
"418 304 LINE",
"444 299 LINE",
"651 535 LINE",
"651 652 LINE",
"41 652 LINE",
"41 535 LINE",
"248 299 LINE",
"275 304 LINE",
"275 0 LINE"
);
},
{
closed = 1;
nodes = (
"170 0 LINE",
"227 244 LINE SMOOTH",
"232 266 OFFCURVE",
"255 266 QCURVE SMOOTH",
"362 266 LINE",
"362 391 LINE",
"217 391 LINE SMOOTH",
"103 391 OFFCURVE",
"70 267 QCURVE SMOOTH",
"0 0 LINE"
);
},
{
closed = 1;
nodes = (
"690 0 LINE",
"620 267 LINE SMOOTH",
"587 391 OFFCURVE",
"473 391 QCURVE SMOOTH",
"328 391 LINE",
"328 266 LINE",
"435 266 LINE SMOOTH",
"458 266 OFFCURVE",
"463 244 QCURVE SMOOTH",
"520 0 LINE"
);
},
{
closed = 1;
nodes = (
"218 535 LINE",
"474 535 LINE",
"346 391 LINE"
);
}
);
width = 690;
}
);
unicode = 046A;
},
{
color = 7;
glyphname = "Fita-cy";
lastChange = "2020-01-06 08:26:53 +0000";
layers = (
{
components = (
{
name = "Obarred-cy";
}
);
layerId = "72B922C0-AA1F-4D08-9FB7-788394CCB5D9";
width = 520;
},
{
associatedMasterId = "72B922C0-AA1F-4D08-9FB7-788394CCB5D9";
layerId = "C3E6BF03-F310-45FD-BB67-D95A13746978";
name = "Dec 31 19, 12:15";
paths = (
{
closed = 1;
nodes = (
"110 282 LINE",
"162 262 LINE SMOOTH",
"250 228 OFFCURVE",
"264 289 OFFCURVE",
"357 264 CURVE SMOOTH",
"432 244 LINE",
"432 360 LINE",
"357 380 LINE SMOOTH",
"264 405 OFFCURVE",
"250 344 OFFCURVE",
"162 378 CURVE SMOOTH",
"110 398 LINE"
);
},
{
closed = 1;
nodes = (
"37 642 OFFCURVE",
"37 518 QCURVE SMOOTH",
"37 124 LINE SMOOTH",
"36 0 OFFCURVE",
"184 0 QCURVE SMOOTH",
"336 0 LINE SMOOTH",
"483 0 OFFCURVE",
"483 124 QCURVE SMOOTH",
"483 518 LINE SMOOTH",
"484 642 OFFCURVE",
"336 642 QCURVE SMOOTH",
"184 642 LINE"
);
},
{
closed = 1;
nodes = (
"311 115 OFFCURVE",
"286 115 QCURVE SMOOTH",
"234 115 LINE SMOOTH",
"209 115 OFFCURVE",
"209 137 QCURVE SMOOTH",
"209 505 LINE SMOOTH",
"209 527 OFFCURVE",
"234 527 QCURVE SMOOTH",
"286 527 LINE SMOOTH",
"311 527 OFFCURVE",
"311 505 QCURVE SMOOTH",
"311 137 LINE"
);
}
);
width = 520;
}
);
unicode = 0472;
},
{
color = 7;
glyphname = "Ghestroke-cy";
lastChange = "2020-01-06 08:26:53 +0000";
layers = (
{
layerId = "72B922C0-AA1F-4D08-9FB7-788394CCB5D9";
paths = (
{
closed = 1;
nodes = (
"270 0 LINE",
"270 287 LINE",
"450 287 LINE",
"450 412 LINE",
"270 412 LINE",
"270 517 LINE",
"465 517 LINE",
"465 642 LINE",
"95 642 LINE",
"95 412 LINE",
"0 412 LINE",
"0 287 LINE",
"95 287 LINE",
"95 0 LINE"
);
}
);
width = 480;
}
);
unicode = 0492;
},
{
color = 7;
glyphname = "Ghemiddlehook-cy";
lastChange = "2020-01-06 08:26:53 +0000";
layers = (
{
layerId = "72B922C0-AA1F-4D08-9FB7-788394CCB5D9";
paths = (
{
closed = 1;
nodes = (
"215 0 LINE",
"215 283 LINE",
"297 283 LINE SMOOTH",
"314 283 OFFCURVE",
"322 276 OFFCURVE",
"322 261 CURVE SMOOTH",
"322 147 LINE SMOOTH",
"322 132 OFFCURVE",
"314 125 OFFCURVE",
"297 125 CURVE SMOOTH",
"268 125 LINE",
"268 0 LINE",
"350 0 LINE SMOOTH",
"448 0 OFFCURVE",
"497 41 OFFCURVE",
"497 124 CURVE SMOOTH",
"497 284 LINE SMOOTH",
"497 367 OFFCURVE",
"448 408 OFFCURVE",
"350 408 CURVE SMOOTH",
"215 408 LINE",
"215 517 LINE",
"465 517 LINE",
"465 642 LINE",
"40 642 LINE",
"40 0 LINE"
);
}
);
width = 522;
}
);
unicode = 0494;
},
{
color = 7;
glyphname = "Zhedescender-cy";
lastChange = "2020-01-06 08:26:53 +0000";
layers = (
{
layerId = "72B922C0-AA1F-4D08-9FB7-788394CCB5D9";
paths = (
{
closed = 1;
nodes = (
"789 -100 LINE",
"789 125 LINE",
"739 125 LINE",
"660 328 LINE",
"786 642 LINE",
"598 642 LINE",
"479 328 LINE",
"599 0 LINE",
"639 0 LINE",
"639 -100 LINE"
);
},
{
closed = 1;
nodes = (
"183 0 LINE",
"303 328 LINE",
"184 642 LINE",
"-4 642 LINE",
"122 328 LINE",
"-5 0 LINE"
);
},
{
closed = 1;
nodes = (
"478 0 LINE",
"478 642 LINE",
"304 642 LINE",
"304 0 LINE"
);
}
);
width = 799;
}
);
unicode = 0496;
},
{
color = 7;
glyphname = "Zedescender-cy";
lastChange = "2020-01-06 08:26:53 +0000";
layers = (
{
layerId = "72B922C0-AA1F-4D08-9FB7-788394CCB5D9";
paths = (
{
closed = 1;
nodes = (
"314 -100 LINE",
"314 1 LINE",
"399 6 OFFCURVE",
"442 47 OFFCURVE",
"442 124 CURVE SMOOTH",
"442 224 LINE SMOOTH",
"442 280 OFFCURVE",
"431 311 OFFCURVE",
"394 327 CURVE",
"426 344 OFFCURVE",
"442 382 OFFCURVE",
"442 440 CURVE SMOOTH",
"442 518 LINE SMOOTH",
"442 601 OFFCURVE",
"393 642 OFFCURVE",
"295 642 CURVE SMOOTH",
"172 642 LINE SMOOTH",
"74 642 OFFCURVE",
"25 601 OFFCURVE",
"25 518 CURVE SMOOTH",
"25 432 LINE",
"200 432 LINE",
"200 505 LINE SMOOTH",
"200 520 OFFCURVE",
"208 527 OFFCURVE",
"225 527 CURVE SMOOTH",
"245 527 LINE SMOOTH",
"262 527 OFFCURVE",
"270 520 OFFCURVE",
"270 505 CURVE SMOOTH",
"270 405 LINE SMOOTH",
"270 390 OFFCURVE",
"262 383 OFFCURVE",
"245 383 CURVE SMOOTH",
"154 383 LINE",
"154 258 LINE",
"245 258 LINE SMOOTH",
"262 258 OFFCURVE",
"270 251 OFFCURVE",
"270 236 CURVE SMOOTH",
"270 137 LINE SMOOTH",
"270 122 OFFCURVE",
"262 115 OFFCURVE",
"245 115 CURVE SMOOTH",
"225 115 LINE SMOOTH",
"208 115 OFFCURVE",
"200 122 OFFCURVE",
"200 137 CURVE SMOOTH",
"200 210 LINE",
"25 210 LINE",
"25 124 LINE SMOOTH",
"25 44 OFFCURVE",
"71 2 OFFCURVE",
"164 0 CURVE",
"164 -100 LINE"
);
}
);
width = 477;
}
);
unicode = 0498;
},
{
color = 7;
glyphname = "Kadescender-cy";
lastChange = "2020-01-06 08:26:53 +0000";
layers = (
{
layerId = "72B922C0-AA1F-4D08-9FB7-788394CCB5D9";
paths = (
{
closed = 1;
nodes = (
"526 -100 LINE",
"526 125 LINE",
"476 125 LINE",
"398 328 LINE",
"523 642 LINE",
"335 642 LINE",
"216 328 LINE",
"336 0 LINE",
"376 0 LINE",
"376 -100 LINE"
);
},
{
closed = 1;
nodes = (
"215 0 LINE",
"215 642 LINE",
"40 642 LINE",
"40 0 LINE"
);
}
);
width = 536;
}
);
unicode = 049A;
},
{
color = 7;
glyphname = "Kaverticalstroke-cy";
lastChange = "2020-01-06 08:26:53 +0000";
layers = (
{
layerId = "72B922C0-AA1F-4D08-9FB7-788394CCB5D9";
paths = (
{
closed = 1;
nodes = (
"214 0 LINE",
"214 272 LINE",
"251 272 LINE",
"251 137 LINE",
"351 137 LINE",
"351 272 LINE",
"366 272 LINE",
"464 0 LINE",
"652 0 LINE",
"526 328 LINE",
"651 642 LINE",
"463 642 LINE",
"367 384 LINE",
"351 384 LINE",
"351 519 LINE",
"251 519 LINE",
"251 384 LINE",
"214 384 LINE",
"214 642 LINE",
"40 642 LINE",
"40 0 LINE"
);
}
);
width = 652;
}
);
unicode = 049C;
},
{
color = 7;
glyphname = "Kastroke-cy";
lastChange = "2020-01-06 08:26:53 +0000";
layers = (
{
layerId = "72B922C0-AA1F-4D08-9FB7-788394CCB5D9";
paths = (
{
closed = 1;
nodes = (
"245 0 LINE",
"245 532 LINE",
"315 532 LINE",
"315 607 LINE",
"245 607 LINE",
"245 652 LINE",
"70 652 LINE",
"70 608 LINE",
"0 608 LINE",
"0 533 LINE",
"70 533 LINE",
"70 0 LINE"
);
},
{
closed = 1;
nodes = (
"562 0 LINE",
"428 328 LINE",
"561 642 LINE",
"373 642 LINE",
"246 328 LINE",
"374 0 LINE"
);
}
);
width = 562;
}
);
unicode = 049E;
},
{
color = 7;
glyphname = "Kabashkir-cy";
lastChange = "2020-01-06 08:26:53 +0000";
layers = (
{
layerId = "72B922C0-AA1F-4D08-9FB7-788394CCB5D9";
paths = (
{
closed = 1;
nodes = (
"579 0 LINE",
"453 328 LINE",
"578 642 LINE",
"390 642 LINE",
"271 328 LINE",
"391 0 LINE"
);
},
{
closed = 1;
nodes = (
"270 0 LINE",
"270 642 LINE",
"0 642 LINE",
"0 517 LINE",
"95 517 LINE",
"95 0 LINE"
);
}
);
width = 579;
}
);
unicode = 04A0;
},
{
color = 7;
glyphname = "Endescender-cy";
lastChange = "2020-01-06 08:26:53 +0000";
layers = (
{
hints = (
{
horizontal = 1;
origin = "{0, 11}";
target = "{0, 6}";
type = Stem;
},
{
origin = "{0, 9}";
target = "{0, 10}";
type = Stem;
},
{
origin = "{0, 13}";
target = "{0, 2}";
type = Stem;
}
);
layerId = "72B922C0-AA1F-4D08-9FB7-788394CCB5D9";
paths = (
{
closed = 1;
nodes = (
"560 -100 LINE",
"560 125 LINE",
"510 125 LINE",
"510 642 LINE",
"338 642 LINE",
"338 379 LINE",
"212 379 LINE",
"212 642 LINE",
"40 642 LINE",
"40 0 LINE",
"212 0 LINE",
"212 254 LINE",
"338 254 LINE",
"338 0 LINE",
"410 0 LINE",
"410 -100 LINE"
);
}
);
width = 570;
}
);
unicode = 04A2;
},
{
color = 7;
glyphname = "Enghe-cy";
lastChange = "2020-01-06 08:26:53 +0000";
layers = (
{
hints = (
{
horizontal = 1;
origin = "{0, 1}";
target = "{0, 10}";
type = Stem;
},
{
origin = "{0, 13}";
target = "{0, 0}";
type = Stem;
},
{
origin = "{0, 3}";
target = "{0, 4}";
type = Stem;
}
);
layerId = "72B922C0-AA1F-4D08-9FB7-788394CCB5D9";
paths = (
{
closed = 1;
nodes = (
"212 0 LINE",
"212 254 LINE",
"338 254 LINE",
"338 0 LINE",
"510 0 LINE",
"510 517 LINE",
"605 517 LINE",
"605 642 LINE",
"338 642 LINE",
"338 379 LINE",
"212 379 LINE",
"212 642 LINE",
"40 642 LINE",
"40 0 LINE"
);
}
);
width = 605;
}
);
unicode = 04A4;
},
{
color = 7;
glyphname = "Pemiddlehook-cy";
lastChange = "2020-01-06 08:26:53 +0000";
layers = (
{
layerId = "72B922C0-AA1F-4D08-9FB7-788394CCB5D9";
paths = (
{
closed = 1;
nodes = (
"215 0 LINE",
"215 517 LINE",
"341 517 LINE",
"341 0 LINE",
"516 0 LINE",
"516 283 LINE",
"598 283 LINE SMOOTH",
"615 283 OFFCURVE",
"623 276 OFFCURVE",
"623 261 CURVE SMOOTH",
"623 147 LINE SMOOTH",
"623 132 OFFCURVE",
"615 125 OFFCURVE",
"598 125 CURVE SMOOTH",
"569 125 LINE",
"569 0 LINE",
"651 0 LINE SMOOTH",
"749 0 OFFCURVE",
"798 41 OFFCURVE",
"798 124 CURVE SMOOTH",
"798 284 LINE SMOOTH",
"798 367 OFFCURVE",
"749 408 OFFCURVE",
"651 408 CURVE SMOOTH",
"516 408 LINE",
"516 642 LINE",
"40 642 LINE",
"40 0 LINE"
);
}
);
width = 823;
}
);
unicode = 04A6;
},
{
color = 7;
glyphname = "Pedescender-cy";
lastChange = "2020-01-06 08:26:53 +0000";
layers = (
{
layerId = "72B922C0-AA1F-4D08-9FB7-788394CCB5D9";
paths = (
{
closed = 1;
nodes = (
"566 -100 LINE",
"566 125 LINE",
"516 125 LINE",
"516 642 LINE",
"40 642 LINE",
"40 0 LINE",
"215 0 LINE",
"215 517 LINE",
"341 517 LINE",
"341 0 LINE",
"416 0 LINE",
"416 -100 LINE"
);
}
);
width = 576;
}
);
unicode = 0524;
},
{
color = 7;
glyphname = "Haabkhasian-cy";
lastChange = "2020-01-06 08:26:53 +0000";
layers = (
{
layerId = "72B922C0-AA1F-4D08-9FB7-788394CCB5D9";
paths = (
{
closed = 1;
nodes = (
"828 0 LINE",
"828 125 LINE",
"752 125 LINE",
"752 518 LINE SMOOTH",
"752 601 OFFCURVE",
"703 642 OFFCURVE",
"605 642 CURVE SMOOTH",
"457 642 LINE SMOOTH",
"359 642 OFFCURVE",
"310 601 OFFCURVE",
"310 518 CURVE SMOOTH",
"310 125 LINE",
"237 125 LINE SMOOTH",
"220 125 OFFCURVE",
"212 132 OFFCURVE",
"212 147 CURVE SMOOTH",
"212 495 LINE SMOOTH",
"212 510 OFFCURVE",
"220 517 OFFCURVE",
"237 517 CURVE SMOOTH",
"252 517 LINE",
"252 642 LINE",
"184 642 LINE SMOOTH",
"86 642 OFFCURVE",
"37 601 OFFCURVE",
"37 518 CURVE SMOOTH",
"37 124 LINE SMOOTH",
"37 41 OFFCURVE",
"86 0 OFFCURVE",
"184 0 CURVE SMOOTH"
);
},
{
closed = 1;
nodes = (
"493 125 OFFCURVE",
"485 132 OFFCURVE",
"485 147 CURVE SMOOTH",
"485 495 LINE SMOOTH",
"485 510 OFFCURVE",
"493 517 OFFCURVE",
"510 517 CURVE SMOOTH",
"552 517 LINE SMOOTH",
"569 517 OFFCURVE",
"577 510 OFFCURVE",
"577 495 CURVE SMOOTH",
"577 147 LINE SMOOTH",
"577 132 OFFCURVE",
"569 125 OFFCURVE",
"552 125 CURVE SMOOTH",
"510 125 LINE SMOOTH"
);
}
);
width = 828;
}
);
unicode = 04A8;
},
{
color = 7;
glyphname = "Esdescender-cy";
lastChange = "2020-01-06 08:26:53 +0000";
layers = (
{
layerId = "72B922C0-AA1F-4D08-9FB7-788394CCB5D9";
paths = (
{
closed = 1;
nodes = (
"330 -100 LINE",
"330 0 LINE",
"425 1 OFFCURVE",
"472 42 OFFCURVE",
"472 124 CURVE SMOOTH",
"472 236 LINE",
"297 236 LINE",
"297 137 LINE SMOOTH",
"297 122 OFFCURVE",
"289 115 OFFCURVE",
"272 115 CURVE SMOOTH",
"237 115 LINE SMOOTH",
"220 115 OFFCURVE",
"212 122 OFFCURVE",
"212 137 CURVE SMOOTH",
"212 505 LINE SMOOTH",
"212 520 OFFCURVE",
"220 527 OFFCURVE",
"237 527 CURVE SMOOTH",
"272 527 LINE SMOOTH",
"289 527 OFFCURVE",
"297 520 OFFCURVE",
"297 505 CURVE SMOOTH",
"297 402 LINE",
"472 402 LINE",
"472 518 LINE SMOOTH",
"472 601 OFFCURVE",
"423 642 OFFCURVE",
"325 642 CURVE SMOOTH",
"184 642 LINE SMOOTH",
"86 642 OFFCURVE",
"37 601 OFFCURVE",
"37 518 CURVE SMOOTH",
"37 124 LINE SMOOTH",
"37 42 OFFCURVE",
"85 1 OFFCURVE",
"180 0 CURVE",
"180 -100 LINE"
);
}
);
width = 497;
}
);
unicode = 04AA;
},
{
color = 7;
glyphname = "Tedescender-cy";
lastChange = "2020-01-06 08:26:53 +0000";
layers = (
{
layerId = "72B922C0-AA1F-4D08-9FB7-788394CCB5D9";
paths = (
{
closed = 1;
nodes = (
"353 -100 LINE",
"353 125 LINE",
"303 125 LINE",
"303 517 LINE",
"427 517 LINE",
"427 642 LINE",
"5 642 LINE",
"5 517 LINE",
"128 517 LINE",
"128 0 LINE",
"203 0 LINE",
"203 -100 LINE"
);
}
);
width = 432;
}
);
unicode = 04AC;
},
{
color = 7;
glyphname = "Ustraightstroke-cy";
lastChange = "2020-01-06 08:26:53 +0000";
layers = (
{
layerId = "72B922C0-AA1F-4D08-9FB7-788394CCB5D9";
paths = (
{
closed = 1;
nodes = (
"352 0 LINE",
"352 205 LINE",
"490 205 LINE",
"490 325 LINE",
"396 325 LINE",
"519 642 LINE",
"341 642 LINE",
"263 371 LINE",
"179 642 LINE",
"0 642 LINE",
"129 325 LINE",
"34 325 LINE",
"34 205 LINE",
"177 205 LINE",
"177 0 LINE"
);
}
);
width = 519;
},
{
associatedMasterId = "72B922C0-AA1F-4D08-9FB7-788394CCB5D9";
layerId = "AF977D42-6EF8-40F6-AE1F-21E54635F2BB";
name = "Jan 1 20, 17:56";
paths = (
{
closed = 1;
nodes = (
"31 205 LINE",
"487 205 LINE",
"487 328 LINE",
"31 328 LINE"
);
},
{
closed = 1;
nodes = (
"172 211 LINE",
"172 0 LINE",
"346 0 LINE",
"346 211 LINE"
);
},
{
closed = 1;
nodes = (
"351 231 LINE",
"518 642 LINE",
"340 642 LINE",
"259 371 LINE",
"178 642 LINE",
"0 642 LINE",
"167 231 LINE"
);
}
);
width = 518;
}
);
unicode = 04B0;
},
{
color = 7;
glyphname = "Hadescender-cy";
lastChange = "2020-01-06 08:26:53 +0000";
layers = (
{
layerId = "72B922C0-AA1F-4D08-9FB7-788394CCB5D9";
paths = (
{
closed = 1;
nodes = (
"521 -100 LINE",
"521 125 LINE",
"457 125 LINE",
"354 326 LINE",
"497 642 LINE",
"309 642 LINE",
"255 478 LINE",
"202 642 LINE",
"4 642 LINE",
"157 326 LINE",
"0 0 LINE",
"186 0 LINE",
"255 180 LINE",
"324 0 LINE",
"371 0 LINE",
"371 -100 LINE"
);
}
);
width = 531;
}
);
unicode = 04B2;
},
{
color = 7;
glyphname = "Tetse-cy";
lastChange = "2020-01-06 08:26:53 +0000";
layers = (
{
layerId = "72B922C0-AA1F-4D08-9FB7-788394CCB5D9";
paths = (
{
closed = 1;
nodes = (
"636 -100 LINE",
"636 125 LINE",
"586 125 LINE",
"586 642 LINE",
"413 642 LINE",
"413 125 LINE",
"268 125 LINE",
"268 517 LINE",
"360 517 LINE",
"360 642 LINE",
"0 642 LINE",
"0 517 LINE",
"95 517 LINE",
"95 0 LINE",
"486 0 LINE",
"486 -100 LINE"
);
}
);
width = 646;
}
);
unicode = 04B4;
},
{
color = 7;
glyphname = "Chedescender-cy";
lastChange = "2020-01-06 08:26:53 +0000";
layers = (
{
layerId = "72B922C0-AA1F-4D08-9FB7-788394CCB5D9";
paths = (
{
closed = 1;
nodes = (
"530 -100 LINE",
"530 125 LINE",
"480 125 LINE",
"480 642 LINE",
"305 642 LINE",
"305 345 LINE",
"228 345 LINE SMOOTH",
"211 345 OFFCURVE",
"203 352 OFFCURVE",
"203 367 CURVE SMOOTH",
"203 642 LINE",
"28 642 LINE",
"28 344 LINE SMOOTH",
"28 261 OFFCURVE",
"77 220 OFFCURVE",
"175 220 CURVE SMOOTH",
"305 220 LINE",
"305 0 LINE",
"380 0 LINE",
"380 -100 LINE"
);
}
);
width = 540;
}
);
unicode = 04B6;
},
{
color = 7;
glyphname = "Cheverticalstroke-cy";
lastChange = "2020-01-06 08:26:53 +0000";
layers = (
{
layerId = "72B922C0-AA1F-4D08-9FB7-788394CCB5D9";
paths = (
{
closed = 1;
nodes = (
"551 0 LINE",
"551 642 LINE",
"377 642 LINE",
"377 342 LINE",
"340 342 LINE",
"340 480 LINE",
"240 480 LINE",
"240 342 LINE",
"228 342 LINE SMOOTH",
"211 342 OFFCURVE",
"203 349 OFFCURVE",
"203 364 CURVE SMOOTH",
"203 642 LINE",
"28 642 LINE",
"28 354 LINE SMOOTH",
"28 269 OFFCURVE",
"77 226 OFFCURVE",
"175 225 CURVE SMOOTH",
"240 225 LINE",
"240 83 LINE",
"340 83 LINE",
"340 225 LINE",
"377 225 LINE",
"377 0 LINE"
);
}
);
width = 591;
}
);
unicode = 04B8;
},
{
color = 7;
glyphname = "Shha-cy";
lastChange = "2020-01-06 08:26:53 +0000";
layers = (
{
layerId = "72B922C0-AA1F-4D08-9FB7-788394CCB5D9";
paths = (
{
closed = 1;
nodes = (
"215 0 LINE",
"215 297 LINE",
"292 297 LINE SMOOTH",
"309 297 OFFCURVE",
"317 290 OFFCURVE",
"317 275 CURVE SMOOTH",
"317 0 LINE",
"492 0 LINE",
"492 298 LINE SMOOTH",
"492 381 OFFCURVE",
"443 422 OFFCURVE",
"345 422 CURVE SMOOTH",
"215 422 LINE",
"215 642 LINE",
"40 642 LINE",
"40 0 LINE"
);
}
);
width = 520;
}
);
unicode = 04BA;
},
{
color = 7;
glyphname = "Shhadescender-cy";
lastChange = "2020-01-06 08:26:53 +0000";
layers = (
{
layerId = "72B922C0-AA1F-4D08-9FB7-788394CCB5D9";
paths = (
{
closed = 1;
nodes = (
"542 -100 LINE",
"542 125 LINE",
"492 125 LINE",
"492 298 LINE SMOOTH",
"492 381 OFFCURVE",
"443 422 OFFCURVE",
"345 422 CURVE SMOOTH",
"215 422 LINE",
"215 642 LINE",
"40 642 LINE",
"40 0 LINE",
"215 0 LINE",
"215 297 LINE",
"292 297 LINE SMOOTH",
"309 297 OFFCURVE",
"317 290 OFFCURVE",
"317 275 CURVE SMOOTH",
"317 0 LINE",
"392 0 LINE",
"392 -100 LINE"
);
}
);
width = 552;
},
{
associatedMasterId = "72B922C0-AA1F-4D08-9FB7-788394CCB5D9";
components = (
{
name = h;
}
);
layerId = "7F0E921D-9663-4E33-8ED2-CDC14E826668";
name = "Dec 24 19, 22:33";
paths = (
{
closed = 1;
nodes = (
"499 -100 LINE",
"499 125 LINE",
"349 125 LINE",
"349 -100 LINE"
);
}
);
width = 489;
}
);
unicode = 0526;
},
{
color = 7;
glyphname = "Cheabkhasian-cy";
lastChange = "2020-01-06 08:26:53 +0000";
layers = (
{
layerId = "72B922C0-AA1F-4D08-9FB7-788394CCB5D9";
paths = (
{
closed = 1;
nodes = (
"503 0 LINE SMOOTH",
"601 0 OFFCURVE",
"650 41 OFFCURVE",
"650 124 CURVE SMOOTH",
"650 210 LINE",
"475 210 LINE",
"475 137 LINE SMOOTH",
"475 122 OFFCURVE",
"467 115 OFFCURVE",
"450 115 CURVE SMOOTH",
"415 115 LINE SMOOTH",
"398 115 OFFCURVE",
"390 122 OFFCURVE",
"390 137 CURVE SMOOTH",
"390 261 LINE",
"650 261 LINE",
"650 518 LINE SMOOTH",
"650 601 OFFCURVE",
"601 642 OFFCURVE",
"503 642 CURVE SMOOTH",
"362 642 LINE SMOOTH",
"264 642 OFFCURVE",
"215 601 OFFCURVE",
"215 518 CURVE SMOOTH",
"215 386 LINE",
"175 386 LINE SMOOTH",
"158 386 OFFCURVE",
"150 393 OFFCURVE",
"150 408 CURVE SMOOTH",
"150 509 LINE",
"10 509 LINE",
"10 385 LINE SMOOTH",
"10 302 OFFCURVE",
"59 261 OFFCURVE",
"157 261 CURVE SMOOTH",
"215 261 LINE",
"215 124 LINE SMOOTH",
"216 41 OFFCURVE",
"265 0 OFFCURVE",
"362 0 CURVE SMOOTH"
);
},
{
closed = 1;
nodes = (
"390 505 LINE SMOOTH",
"390 520 OFFCURVE",
"398 527 OFFCURVE",
"415 527 CURVE SMOOTH",
"450 527 LINE SMOOTH",
"467 527 OFFCURVE",
"475 520 OFFCURVE",
"475 505 CURVE SMOOTH",
"475 386 LINE",
"390 386 LINE"
);
}
);
width = 687;
}
);
unicode = 04BC;
},
{
color = 7;
glyphname = "Chedescenderabkhasian-cy";
lastChange = "2020-01-06 08:26:53 +0000";
layers = (
{
layerId = "72B922C0-AA1F-4D08-9FB7-788394CCB5D9";
paths = (
{
closed = 1;
nodes = (
"509 -100 LINE",
"509 0 LINE",
"603 2 OFFCURVE",
"650 43 OFFCURVE",
"650 124 CURVE SMOOTH",
"650 210 LINE",
"475 210 LINE",
"475 137 LINE SMOOTH",
"475 122 OFFCURVE",
"467 115 OFFCURVE",
"450 115 CURVE SMOOTH",
"415 115 LINE SMOOTH",
"398 115 OFFCURVE",
"390 122 OFFCURVE",
"390 137 CURVE SMOOTH",
"390 261 LINE",
"650 261 LINE",
"650 518 LINE SMOOTH",
"650 601 OFFCURVE",
"601 642 OFFCURVE",
"503 642 CURVE SMOOTH",
"362 642 LINE SMOOTH",
"264 642 OFFCURVE",
"215 601 OFFCURVE",
"215 518 CURVE SMOOTH",
"215 386 LINE",
"175 386 LINE SMOOTH",
"158 386 OFFCURVE",
"150 393 OFFCURVE",
"150 408 CURVE SMOOTH",
"150 509 LINE",
"10 509 LINE",
"10 385 LINE SMOOTH",
"10 302 OFFCURVE",
"59 261 OFFCURVE",
"157 261 CURVE SMOOTH",
"215 261 LINE",
"215 124 LINE SMOOTH",
"216 42 OFFCURVE",
"264 1 OFFCURVE",
"359 0 CURVE",
"359 -100 LINE"
);
},
{
closed = 1;
nodes = (
"390 505 LINE SMOOTH",
"390 520 OFFCURVE",
"398 527 OFFCURVE",
"415 527 CURVE SMOOTH",
"450 527 LINE SMOOTH",
"467 527 OFFCURVE",
"475 520 OFFCURVE",
"475 505 CURVE SMOOTH",
"475 386 LINE",
"390 386 LINE"
);
}
);
width = 687;
}
);
unicode = 04BE;
},
{
color = 7;
glyphname = "Kahook-cy";
lastChange = "2020-01-06 08:26:53 +0000";
layers = (
{
layerId = "72B922C0-AA1F-4D08-9FB7-788394CCB5D9";
paths = (
{
closed = 1;
nodes = (
"361 -160 LINE SMOOTH",
"459 -160 OFFCURVE",
"508 -119 OFFCURVE",
"508 -36 CURVE SMOOTH",
"508 255 LINE SMOOTH",
"508 327 OFFCURVE",
"471 368 OFFCURVE",
"396 377 CURVE",
"523 642 LINE",
"335 642 LINE",
"218 379 LINE",
"215 379 LINE",
"215 642 LINE",
"40 642 LINE",
"40 0 LINE",
"215 0 LINE",
"215 254 LINE",
"308 254 LINE SMOOTH",
"325 254 OFFCURVE",
"333 247 OFFCURVE",
"333 232 CURVE SMOOTH",
"333 -13 LINE SMOOTH",
"333 -28 OFFCURVE",
"325 -35 OFFCURVE",
"308 -35 CURVE SMOOTH",
"265 -35 LINE",
"265 -160 LINE"
);
}
);
width = 538;
}
);
unicode = 04C3;
},
{
color = 7;
glyphname = "Eltail-cy";
lastChange = "2020-01-06 08:26:53 +0000";
layers = (
{
layerId = "72B922C0-AA1F-4D08-9FB7-788394CCB5D9";
paths = (
{
closed = 1;
nodes = (
"487 -100 LINE",
"580 28 LINE",
"580 125 LINE",
"530 125 LINE",
"530 642 LINE",
"84 642 LINE",
"61 174 LINE SMOOTH",
"60 141 OFFCURVE",
"47 125 OFFCURVE",
"22 125 CURVE SMOOTH",
"5 125 LINE",
"5 0 LINE",
"76 0 LINE SMOOTH",
"179 0 OFFCURVE",
"232 58 OFFCURVE",
"237 174 CURVE SMOOTH",
"250 517 LINE",
"355 517 LINE",
"355 0 LINE",
"423 0 LINE",
"423 -100 LINE"
);
}
);
width = 590;
}
);
unicode = 04C5;
},
{
color = 7;
glyphname = "Enhook-cy";
lastChange = "2020-01-06 08:26:53 +0000";
layers = (
{
hints = (
{
horizontal = 1;
origin = "{0, 12}";
target = "{0, 7}";
type = Stem;
},
{
origin = "{0, 10}";
target = "{0, 11}";
type = Stem;
},
{
origin = "{0, 14}";
target = "{0, 3}";
type = Stem;
}
);
layerId = "72B922C0-AA1F-4D08-9FB7-788394CCB5D9";
paths = (
{
closed = 1;
nodes = (
"363 -160 LINE SMOOTH",
"461 -160 OFFCURVE",
"510 -119 OFFCURVE",
"510 -36 CURVE SMOOTH",
"510 642 LINE",
"338 642 LINE",
"338 379 LINE",
"212 379 LINE",
"212 642 LINE",
"40 642 LINE",
"40 0 LINE",
"212 0 LINE",
"212 254 LINE",
"338 254 LINE",
"338 -13 LINE SMOOTH",
"338 -28 OFFCURVE",
"330 -35 OFFCURVE",
"313 -35 CURVE SMOOTH",
"270 -35 LINE",
"270 -160 LINE"
);
}
);
width = 550;
}
);
unicode = 04C7;
},
{
color = 7;
glyphname = "Entail-cy";
lastChange = "2020-01-06 08:26:53 +0000";
layers = (
{
hints = (
{
horizontal = 1;
origin = "{0, 12}";
target = "{0, 7}";
type = Stem;
},
{
origin = "{0, 10}";
target = "{0, 11}";
type = Stem;
},
{
origin = "{0, 14}";
target = "{0, 3}";
type = Stem;
}
);
layerId = "72B922C0-AA1F-4D08-9FB7-788394CCB5D9";
paths = (
{
closed = 1;
nodes = (
"467 -100 LINE",
"560 28 LINE",
"560 125 LINE",
"510 125 LINE",
"510 642 LINE",
"338 642 LINE",
"338 379 LINE",
"212 379 LINE",
"212 642 LINE",
"40 642 LINE",
"40 0 LINE",
"212 0 LINE",
"212 254 LINE",
"338 254 LINE",
"338 0 LINE",
"403 0 LINE",
"403 -100 LINE"
);
}
);
width = 570;
}
);
unicode = 04C9;
},
{
color = 7;
glyphname = "Chekhakassian-cy";
lastChange = "2020-01-06 08:26:53 +0000";
layers = (
{
guideLines = (
{
position = "{518, -72}";
}
);
layerId = "72B922C0-AA1F-4D08-9FB7-788394CCB5D9";
paths = (
{
closed = 1;
nodes = (
"405 -100 LINE",
"405 0 LINE",
"480 0 LINE",
"480 642 LINE",
"305 642 LINE",
"305 345 LINE",
"228 345 LINE SMOOTH",
"211 345 OFFCURVE",
"203 352 OFFCURVE",
"203 367 CURVE SMOOTH",
"203 642 LINE",
"28 642 LINE",
"28 344 LINE SMOOTH",
"28 261 OFFCURVE",
"77 220 OFFCURVE",
"175 220 CURVE SMOOTH",
"305 220 LINE",
"305 125 LINE",
"255 125 LINE",
"255 -100 LINE"
);
}
);
width = 520;
}
);
unicode = 04CB;
},
{
color = 7;
glyphname = "Emtail-cy";
lastChange = "2020-01-06 08:26:53 +0000";
layers = (
{
layerId = "72B922C0-AA1F-4D08-9FB7-788394CCB5D9";
paths = (
{
closed = 1;
nodes = (
"587 -100 LINE",
"680 28 LINE",
"680 125 LINE",
"630 125 LINE",
"630 642 LINE",
"439 642 LINE",
"335 299 LINE",
"231 642 LINE",
"40 642 LINE",
"40 0 LINE",
"196 0 LINE",
"196 406 LINE",
"275 139 LINE",
"395 139 LINE",
"475 408 LINE",
"475 0 LINE",
"523 0 LINE",
"523 -100 LINE"
);
}
);
width = 690;
}
);
unicode = 04CD;
},
{
color = 7;
glyphname = "Schwa-cy";
lastChange = "2020-01-06 08:26:53 +0000";
layers = (
{
layerId = "72B922C0-AA1F-4D08-9FB7-788394CCB5D9";
paths = (
{
closed = 1;
nodes = (
"325 2 LINE SMOOTH",
"423 2 OFFCURVE",
"472 43 OFFCURVE",
"472 126 CURVE SMOOTH",
"472 520 LINE SMOOTH",
"471 603 OFFCURVE",
"422 644 OFFCURVE",
"325 644 CURVE SMOOTH",
"184 644 LINE SMOOTH",
"86 644 OFFCURVE",
"37 603 OFFCURVE",
"37 520 CURVE SMOOTH",
"37 427 LINE",
"212 427 LINE",
"212 507 LINE SMOOTH",
"212 522 OFFCURVE",
"220 529 OFFCURVE",
"237 529 CURVE SMOOTH",
"272 529 LINE SMOOTH",
"289 529 OFFCURVE",
"297 522 OFFCURVE",
"297 507 CURVE SMOOTH",
"297 376 LINE",
"37 376 LINE",
"37 126 LINE SMOOTH",
"37 43 OFFCURVE",
"86 2 OFFCURVE",
"184 2 CURVE SMOOTH"
);
},
{
closed = 1;
nodes = (
"220 117 OFFCURVE",
"212 124 OFFCURVE",
"212 139 CURVE SMOOTH",
"212 251 LINE",
"297 251 LINE",
"297 139 LINE SMOOTH",
"297 124 OFFCURVE",
"289 117 OFFCURVE",
"272 117 CURVE SMOOTH",
"237 117 LINE SMOOTH"
);
}
);
width = 509;
}
);
unicode = 04D8;
},
{
color = 7;
glyphname = "Dzeabkhasian-cy";
lastChange = "2020-01-06 08:26:53 +0000";
layers = (
{
layerId = "72B922C0-AA1F-4D08-9FB7-788394CCB5D9";
paths = (
{
closed = 1;
nodes = (
"295 0 LINE SMOOTH",
"393 0 OFFCURVE",
"442 41 OFFCURVE",
"442 124 CURVE SMOOTH",
"442 269 LINE SMOOTH",
"442 351 OFFCURVE",
"395 393 OFFCURVE",
"302 395 CURVE",
"435 519 LINE",
"435 642 LINE",
"32 642 LINE",
"32 517 LINE",
"239 517 LINE",
"103 388 LINE",
"103 277 LINE",
"245 277 LINE SMOOTH",
"262 277 OFFCURVE",
"270 270 OFFCURVE",
"270 255 CURVE SMOOTH",
"270 138 LINE SMOOTH",
"270 123 OFFCURVE",
"262 116 OFFCURVE",
"245 116 CURVE SMOOTH",
"225 116 LINE SMOOTH",
"208 116 OFFCURVE",
"200 123 OFFCURVE",
"200 138 CURVE SMOOTH",
"200 212 LINE",
"25 212 LINE",
"25 124 LINE SMOOTH",
"25 41 OFFCURVE",
"74 0 OFFCURVE",
"172 0 CURVE SMOOTH"
);
}
);
width = 467;
}
);
unicode = 04E0;
},
{
color = 7;
glyphname = "Obarred-cy";
lastChange = "2020-01-06 08:26:53 +0000";
layers = (
{
layerId = "72B922C0-AA1F-4D08-9FB7-788394CCB5D9";
paths = (
{
closed = 1;
nodes = (
"336 0 LINE SMOOTH",
"434 0 OFFCURVE",
"483 41 OFFCURVE",
"483 124 CURVE SMOOTH",
"483 518 LINE SMOOTH",
"484 601 OFFCURVE",
"435 642 OFFCURVE",
"336 642 CURVE SMOOTH",
"184 642 LINE SMOOTH",
"86 642 OFFCURVE",
"37 601 OFFCURVE",
"37 518 CURVE SMOOTH",
"37 124 LINE SMOOTH",
"36 41 OFFCURVE",
"85 0 OFFCURVE",
"184 0 CURVE SMOOTH"
);
},
{
closed = 1;
nodes = (
"217 115 OFFCURVE",
"209 122 OFFCURVE",
"209 137 CURVE SMOOTH",
"209 263 LINE",
"311 263 LINE",
"311 137 LINE SMOOTH",
"311 122 OFFCURVE",
"303 115 OFFCURVE",
"286 115 CURVE SMOOTH",
"234 115 LINE SMOOTH"
);
},
{
closed = 1;
nodes = (
"209 505 LINE SMOOTH",
"209 520 OFFCURVE",
"217 527 OFFCURVE",
"234 527 CURVE SMOOTH",
"286 527 LINE SMOOTH",
"303 527 OFFCURVE",
"311 520 OFFCURVE",
"311 505 CURVE SMOOTH",
"311 379 LINE",
"209 379 LINE"
);
}
);
width = 520;
}
);
unicode = 04E8;
},
{
color = 7;
glyphname = "Uhungarumlaut-cy";
lastChange = "2020-01-06 08:26:53 +0000";
layers = (
{
components = (
{
name = "U-cy";
}
);
guideLines = (
{
angle = 90;
position = "{519, 642}";
}
);
layerId = "72B922C0-AA1F-4D08-9FB7-788394CCB5D9";
paths = (
{
closed = 1;
nodes = (
"386 675 LINE",
"519 824 LINE",
"372 824 LINE",
"275 675 LINE"
);
},
{
closed = 1;
nodes = (
"196 675 LINE",
"329 824 LINE",
"182 824 LINE",
"85 675 LINE"
);
}
);
width = 504;
}
);
unicode = 04F2;
},
{
color = 7;
glyphname = "Gedescender-cy";
lastChange = "2020-01-06 08:26:53 +0000";
layers = (
{
layerId = "72B922C0-AA1F-4D08-9FB7-788394CCB5D9";
paths = (
{
closed = 1;
nodes = (
"265 -100 LINE",
"265 125 LINE",
"215 125 LINE",
"215 517 LINE",
"404 517 LINE",
"404 642 LINE",
"40 642 LINE",
"40 0 LINE",
"115 0 LINE",
"115 -100 LINE"
);
}
);
width = 409;
}
);
unicode = 04F6;
},
{
color = 7;
glyphname = "Hahook-cy";
lastChange = "2020-01-06 08:26:53 +0000";
layers = (
{
layerId = "72B922C0-AA1F-4D08-9FB7-788394CCB5D9";
paths = (
{
closed = 1;
nodes = (
"361 -160 LINE SMOOTH",
"459 -160 OFFCURVE",
"508 -119 OFFCURVE",
"508 -36 CURVE SMOOTH",
"508 -5 OFFCURVE",
"500 22 OFFCURVE",
"484 56 CURVE SMOOTH",
"354 326 LINE",
"497 642 LINE",
"309 642 LINE",
"255 478 LINE",
"202 642 LINE",
"4 642 LINE",
"157 326 LINE",
"0 0 LINE",
"186 0 LINE",
"255 180 LINE",
"328 25 LINE SMOOTH",
"337 5 OFFCURVE",
"341 -4 OFFCURVE",
"341 -13 CURVE SMOOTH",
"341 -27 OFFCURVE",
"332 -35 OFFCURVE",
"316 -35 CURVE SMOOTH",
"261 -35 LINE",
"261 -160 LINE"
);
}
);
width = 503;
}
);
unicode = 04FC;
},
{
color = 7;
glyphname = "Elhook-cy";
lastChange = "2020-01-06 08:26:53 +0000";
layers = (
{
layerId = "72B922C0-AA1F-4D08-9FB7-788394CCB5D9";
paths = (
{
closed = 1;
nodes = (
"383 -160 LINE SMOOTH",
"481 -160 OFFCURVE",
"530 -119 OFFCURVE",
"530 -36 CURVE SMOOTH",
"530 642 LINE",
"84 642 LINE",
"61 174 LINE SMOOTH",
"60 141 OFFCURVE",
"47 125 OFFCURVE",
"22 125 CURVE SMOOTH",
"5 125 LINE",
"5 0 LINE",
"76 0 LINE SMOOTH",
"179 0 OFFCURVE",
"232 58 OFFCURVE",
"237 174 CURVE SMOOTH",
"250 517 LINE",
"355 517 LINE",
"355 -13 LINE SMOOTH",
"355 -28 OFFCURVE",
"347 -35 OFFCURVE",
"330 -35 CURVE SMOOTH",
"287 -35 LINE",
"287 -160 LINE"
);
}
);
width = 570;
}
);
unicode = 0512;
},
{
color = 7;
glyphname = "De-cy.loclBGR";
lastChange = "2020-01-06 08:26:53 +0000";
layers = (
{
layerId = "72B922C0-AA1F-4D08-9FB7-788394CCB5D9";
paths = (
{
closed = 1;
nodes = (
"160 -100 LINE",
"160 0 LINE",
"416 0 LINE",
"416 -100 LINE",
"566 -100 LINE",
"566 125 LINE",
"520 125 LINE",
"393 642 LINE",
"183 642 LINE",
"56 125 LINE",
"10 125 LINE",
"10 -100 LINE"
);
},
{
closed = 1;
nodes = (
"288 447 LINE",
"349 125 LINE",
"227 125 LINE"
);
}
);
width = 576;
}
);
},
{
color = 7;
glyphname = "Ef-cy.loclBGR";
lastChange = "2020-01-06 08:26:53 +0000";
layers = (
{
layerId = "72B922C0-AA1F-4D08-9FB7-788394CCB5D9";
paths = (
{
closed = 1;
nodes = (
"481 -90 LINE",
"481 0 LINE",
"603 0 LINE SMOOTH",
"701 0 OFFCURVE",
"750 41 OFFCURVE",
"750 124 CURVE SMOOTH",
"750 518 LINE SMOOTH",
"750 601 OFFCURVE",
"701 642 OFFCURVE",
"603 642 CURVE SMOOTH",
"481 642 LINE",
"481 732 LINE",
"306 732 LINE",
"306 642 LINE",
"184 642 LINE SMOOTH",
"86 642 OFFCURVE",
"37 601 OFFCURVE",
"37 518 CURVE SMOOTH",
"37 124 LINE SMOOTH",
"37 41 OFFCURVE",
"86 0 OFFCURVE",
"184 0 CURVE SMOOTH",
"306 0 LINE",
"306 -90 LINE"
);
},
{
closed = 1;
nodes = (
"220 125 OFFCURVE",
"212 132 OFFCURVE",
"212 147 CURVE SMOOTH",
"212 495 LINE SMOOTH",
"212 510 OFFCURVE",
"220 517 OFFCURVE",
"237 517 CURVE SMOOTH",
"306 517 LINE",
"306 125 LINE",
"237 125 LINE SMOOTH"
);
},
{
closed = 1;
nodes = (
"481 517 LINE",
"550 517 LINE SMOOTH",
"567 517 OFFCURVE",
"575 510 OFFCURVE",
"575 495 CURVE SMOOTH",
"575 147 LINE SMOOTH",
"575 132 OFFCURVE",
"567 125 OFFCURVE",
"550 125 CURVE SMOOTH",
"481 125 LINE"
);
}
);
width = 787;
}
);
},
{
color = 7;
glyphname = "be-cy";
lastChange = "2020-01-06 08:35:57 +0000";
layers = (
{
associatedMasterId = "72B922C0-AA1F-4D08-9FB7-788394CCB5D9";
layerId = "57203904-C847-4CAF-8616-00B2B563F111";
name = "Dec 25 19, 12:49";
paths = (
{
closed = 1;
nodes = (
"202 354 LINE SMOOTH",
"202 384 OFFCURVE",
"229 384 QCURVE SMOOTH",
"254 384 LINE SMOOTH",
"279 384 OFFCURVE",
"279 362 QCURVE SMOOTH",
"279 140 LINE",
"279 118 OFFCURVE",
"254 118 QCURVE SMOOTH",
"227 118 LINE SMOOTH",
"202 118 OFFCURVE",
"202 140 QCURVE SMOOTH"
);
},
{
closed = 1;
nodes = (
"290 553 LINE SMOOTH",
"437 553 OFFCURVE",
"437 677 QCURVE SMOOTH",
"437 707 LINE",
"302 707 LINE",
"302 690 LINE SMOOTH",
"302 668 OFFCURVE",
"277 668 QCURVE SMOOTH",
"182 668 LINE SMOOTH",
"35 668 OFFCURVE",
"35 544 QCURVE SMOOTH",
"35 124 LINE SMOOTH",
"34 0 OFFCURVE",
"182 0 QCURVE SMOOTH",
"299 0 LINE SMOOTH",
"446 0 OFFCURVE",
"446 124 QCURVE SMOOTH",
"446 375 LINE SMOOTH",
"447 499 OFFCURVE",
"313 499 QCURVE SMOOTH",
"290 499 LINE SMOOTH",
"221 499 OFFCURVE",
"202 445 QCURVE",
"202 531 LINE SMOOTH",
"202 553 OFFCURVE",
"227 553 QCURVE SMOOTH"
);
}
);
width = 481;
},
{
associatedMasterId = "72B922C0-AA1F-4D08-9FB7-788394CCB5D9";
layerId = "535A4D13-6E3A-4C54-8D3B-83C9D980A98D";
name = "Dec 25 19, 12:54";
paths = (
{
closed = 1;
nodes = (
"202 354 LINE SMOOTH",
"202 384 OFFCURVE",
"229 384 QCURVE SMOOTH",
"252 384 LINE SMOOTH",
"277 384 OFFCURVE",
"277 362 QCURVE SMOOTH",
"277 140 LINE",
"277 118 OFFCURVE",
"252 118 QCURVE SMOOTH",
"227 118 LINE SMOOTH",
"202 118 OFFCURVE",
"202 140 QCURVE SMOOTH"
);
},
{
closed = 1;
nodes = (
"421 677 LINE",
"182 667 LINE SMOOTH",
"35 661 OFFCURVE",
"35 543 QCURVE SMOOTH",
"35 124 LINE SMOOTH",
"35 0 OFFCURVE",
"182 0 QCURVE SMOOTH",
"297 0 LINE SMOOTH",
"444 0 OFFCURVE",
"444 124 QCURVE SMOOTH",
"444 375 LINE SMOOTH",
"444 499 OFFCURVE",
"311 499 QCURVE SMOOTH",
"290 499 LINE SMOOTH",
"221 499 OFFCURVE",
"202 445 QCURVE",
"202 523 LINE SMOOTH",
"202 544 OFFCURVE",
"227 545 QCURVE SMOOTH",
"421 553 LINE"
);
}
);
width = 479;
},
{
layerId = "72B922C0-AA1F-4D08-9FB7-788394CCB5D9";
paths = (
{
closed = 1;
nodes = (
"297 0 LINE SMOOTH",
"395 0 OFFCURVE",
"444 41 OFFCURVE",
"444 124 CURVE SMOOTH",
"444 375 LINE SMOOTH",
"444 458 OFFCURVE",
"400 499 OFFCURVE",
"311 499 CURVE SMOOTH",
"290 499 LINE SMOOTH",
"244 499 OFFCURVE",
"215 481 OFFCURVE",
"202 445 CURVE",
"202 526 LINE SMOOTH",
"202 539 OFFCURVE",
"210 547 OFFCURVE",
"227 548 CURVE SMOOTH",
"418 567 LINE",
"418 684 LINE",
"182 663 LINE SMOOTH",
"84 654 OFFCURVE",
"35 613 OFFCURVE",
"35 539 CURVE SMOOTH",
"35 124 LINE SMOOTH",
"35 41 OFFCURVE",
"84 0 OFFCURVE",
"182 0 CURVE SMOOTH"
);
},
{
closed = 1;
nodes = (
"208 118 OFFCURVE",
"200 125 OFFCURVE",
"200 140 CURVE SMOOTH",
"200 354 LINE SMOOTH",
"200 374 OFFCURVE",
"209 384 OFFCURVE",
"227 384 CURVE SMOOTH",
"252 384 LINE SMOOTH",
"269 384 OFFCURVE",
"277 377 OFFCURVE",
"277 362 CURVE SMOOTH",
"277 140 LINE SMOOTH",
"277 125 OFFCURVE",
"269 118 OFFCURVE",
"252 118 CURVE SMOOTH",
"225 118 LINE SMOOTH"
);
}
);
width = 479;
},
{
associatedMasterId = "72B922C0-AA1F-4D08-9FB7-788394CCB5D9";
layerId = "F4585467-84DE-427C-B777-1401D1CA9BA6";
name = "Jan 6 20, 14:05";
paths = (
{
closed = 1;
nodes = (
"297 0 LINE SMOOTH",
"395 0 OFFCURVE",
"444 41 OFFCURVE",
"444 124 CURVE SMOOTH",
"444 375 LINE SMOOTH",
"445 458 OFFCURVE",
"400 499 OFFCURVE",
"311 499 CURVE SMOOTH",
"295 499 LINE SMOOTH",
"249 499 OFFCURVE",
"220 481 OFFCURVE",
"207 445 CURVE",
"207 525 LINE SMOOTH",
"207 540 OFFCURVE",
"215 547 OFFCURVE",
"232 547 CURVE SMOOTH",
"425 547 LINE",
"425 669 LINE",
"182 669 LINE SMOOTH",
"84 669 OFFCURVE",
"35 628 OFFCURVE",
"35 545 CURVE SMOOTH",
"35 124 LINE SMOOTH",
"35 41 OFFCURVE",
"84 0 OFFCURVE",
"182 0 CURVE SMOOTH"
);
},
{
closed = 1;
nodes = (
"213 125 OFFCURVE",
"205 132 OFFCURVE",
"205 147 CURVE SMOOTH",
"205 344 LINE SMOOTH",
"205 364 OFFCURVE",
"214 374 OFFCURVE",
"232 374 CURVE SMOOTH",
"249 374 LINE SMOOTH",
"266 374 OFFCURVE",
"274 367 OFFCURVE",
"274 352 CURVE SMOOTH",
"274 147 LINE SMOOTH",
"274 132 OFFCURVE",
"266 125 OFFCURVE",
"249 125 CURVE SMOOTH",
"230 125 LINE SMOOTH"
);
}
);
width = 474;
}
);
unicode = 0431;
},
{
color = 7;
glyphname = "ve-cy";
lastChange = "2020-01-06 08:26:53 +0000";
layers = (
{
layerId = "72B922C0-AA1F-4D08-9FB7-788394CCB5D9";
paths = (
{
closed = 1;
nodes = (
"310 0 LINE SMOOTH",
"408 0 OFFCURVE",
"457 41 OFFCURVE",
"457 123 CURVE SMOOTH",
"457 156 LINE SMOOTH",
"457 203 OFFCURVE",
"441 234 OFFCURVE",
"408 249 CURVE",
"441 264 OFFCURVE",
"457 295 OFFCURVE",
"457 342 CURVE SMOOTH",
"457 375 LINE SMOOTH",
"457 458 OFFCURVE",
"408 499 OFFCURVE",
"310 499 CURVE SMOOTH",
"40 499 LINE",
"40 0 LINE"
);
},
{
closed = 1;
nodes = (
"201 204 LINE",
"270 204 LINE SMOOTH",
"287 204 OFFCURVE",
"295 197 OFFCURVE",
"295 182 CURVE SMOOTH",
"295 136 LINE SMOOTH",
"295 121 OFFCURVE",
"287 114 OFFCURVE",
"270 114 CURVE SMOOTH",
"201 114 LINE"
);
},
{
closed = 1;
nodes = (
"201 385 LINE",
"270 385 LINE SMOOTH",
"287 385 OFFCURVE",
"295 378 OFFCURVE",
"295 363 CURVE SMOOTH",
"295 317 LINE SMOOTH",
"295 302 OFFCURVE",
"287 295 OFFCURVE",
"270 295 CURVE SMOOTH",
"201 295 LINE"
);
}
);
width = 482;
}
);
unicode = 0432;
},
{
color = 7;
glyphname = "ge-cy";
lastChange = "2020-01-06 08:26:53 +0000";
layers = (
{
layerId = "72B922C0-AA1F-4D08-9FB7-788394CCB5D9";
paths = (
{
closed = 1;
nodes = (
"210 0 LINE",
"210 377 LINE",
"364 377 LINE",
"364 499 LINE",
"40 499 LINE",
"40 0 LINE"
);
}
);
width = 369;
}
);
unicode = 0433;
},
{
color = 7;
glyphname = "gheupturn-cy";
lastChange = "2020-01-06 08:26:53 +0000";
layers = (
{
layerId = "72B922C0-AA1F-4D08-9FB7-788394CCB5D9";
paths = (
{
closed = 1;
nodes = (
"210 0 LINE",
"210 377 LINE",
"364 377 LINE",
"364 599 LINE",
"224 599 LINE",
"224 499 LINE",
"40 499 LINE",
"40 0 LINE"
);
}
);
width = 369;
}
);
unicode = 0491;
},
{
color = 7;
glyphname = "de-cy";
lastChange = "2020-01-06 08:26:53 +0000";
layers = (
{
layerId = "72B922C0-AA1F-4D08-9FB7-788394CCB5D9";
paths = (
{
closed = 1;
nodes = (
"150 -90 LINE",
"150 0 LINE",
"379 0 LINE",
"379 -90 LINE",
"519 -90 LINE",
"519 118 LINE",
"479 118 LINE",
"479 499 LINE",
"73 499 LINE",
"54 160 LINE SMOOTH",
"53 132 OFFCURVE",
"41 118 OFFCURVE",
"20 118 CURVE SMOOTH",
"10 118 LINE",
"10 -90 LINE"
);
},
{
closed = 1;
nodes = (
"216 128 OFFCURVE",
"218 138 OFFCURVE",
"219 150 CURVE SMOOTH",
"232 383 LINE",
"313 383 LINE",
"313 118 LINE",
"213 118 LINE"
);
}
);
width = 529;
},
{
associatedMasterId = "72B922C0-AA1F-4D08-9FB7-788394CCB5D9";
layerId = "CC8E8B08-BB10-4547-A185-2331F84E8240";
name = "Dec 24 19, 12:48";
paths = (
{
closed = 1;
nodes = (
"464 0 LINE",
"464 499 LINE",
"158 499 LINE",
"158 385 LINE",
"300 385 LINE",
"300 0 LINE"
);
},
{
closed = 1;
nodes = (
"49 138 LINE SMOOTH",
"47 114 OFFCURVE",
"16 114 QCURVE SMOOTH",
"2 114 LINE",
"2 42 LINE",
"56 42 LINE SMOOTH",
"200 44 OFFCURVE",
"209 160 QCURVE SMOOTH",
"226 385 LINE",
"381 385 LINE",
"381 499 LINE",
"79 499 LINE"
);
},
{
closed = 1;
nodes = (
"514 -96 LINE",
"514 114 LINE",
"165 114 LINE",
"165 0 LINE",
"362 0 LINE",
"362 -96 LINE"
);
},
{
closed = 1;
nodes = (
"160 0 LINE",
"357 0 LINE",
"357 114 LINE",
"0 114 LINE",
"0 -96 LINE",
"160 -96 LINE"
);
}
);
width = 514;
},
{
associatedMasterId = "72B922C0-AA1F-4D08-9FB7-788394CCB5D9";
layerId = "30370062-864E-4874-96EE-D46E715B8C82";
name = "Dec 31 19, 17:21";
paths = (
{
closed = 1;
nodes = (
"510 -100 LINE",
"510 118 LINE",
"157 118 LINE",
"157 0 LINE",
"370 0 LINE",
"370 -100 LINE"
);
},
{
closed = 1;
nodes = (
"140 0 LINE",
"353 0 LINE",
"353 118 LINE",
"0 118 LINE",
"0 -100 LINE",
"140 -100 LINE"
);
},
{
closed = 1;
nodes = (
"465 0 LINE",
"465 499 LINE",
"137 499 LINE",
"137 381 LINE",
"298 381 LINE",
"298 0 LINE"
);
},
{
closed = 1;
nodes = (
"45 140 LINE SMOOTH",
"45 118 OFFCURVE",
"20 118 QCURVE SMOOTH",
"14 118 LINE",
"15 43 LINE",
"66 43 LINE SMOOTH",
"213 43 OFFCURVE",
"213 166 QCURVE SMOOTH",
"213 381 LINE",
"377 381 LINE",
"377 499 LINE",
"45 499 LINE"
);
}
);
width = 510;
}
);
unicode = 0434;
},
{
color = 7;
glyphname = "io-cy";
lastChange = "2020-01-06 08:26:53 +0000";
layers = (
{
components = (
{
name = "ie-cy";
}
);
layerId = "72B922C0-AA1F-4D08-9FB7-788394CCB5D9";
paths = (
{
closed = 1;
nodes = (
"434 542 LINE",
"434 672 LINE",
"282 672 LINE",
"282 542 LINE"
);
},
{
closed = 1;
nodes = (
"194 542 LINE",
"194 672 LINE",
"42 672 LINE",
"42 542 LINE"
);
}
);
width = 474;
}
);
unicode = 0451;
},
{
color = 7;
glyphname = "zhe-cy";
lastChange = "2020-01-06 08:26:53 +0000";
layers = (
{
layerId = "72B922C0-AA1F-4D08-9FB7-788394CCB5D9";
paths = (
{
closed = 1;
nodes = (
"172 0 LINE",
"265 233 LINE",
"265 0 LINE",
"432 0 LINE",
"432 233 LINE",
"525 0 LINE",
"702 0 LINE",
"595 253 LINE",
"702 499 LINE",
"526 499 LINE",
"432 272 LINE",
"432 499 LINE",
"265 499 LINE",
"265 272 LINE",
"171 499 LINE",
"-5 499 LINE",
"102 253 LINE",
"-5 0 LINE"
);
}
);
width = 697;
}
);
unicode = 0436;
},
{
color = 7;
glyphname = "ze-cy";
lastChange = "2020-01-06 08:26:53 +0000";
layers = (
{
layerId = "72B922C0-AA1F-4D08-9FB7-788394CCB5D9";
paths = (
{
closed = 1;
nodes = (
"280 0 LINE SMOOTH",
"379 0 OFFCURVE",
"428 41 OFFCURVE",
"428 123 CURVE SMOOTH",
"428 156 LINE SMOOTH",
"428 203 OFFCURVE",
"411 234 OFFCURVE",
"378 249 CURVE",
"411 264 OFFCURVE",
"428 295 OFFCURVE",
"428 342 CURVE SMOOTH",
"428 375 LINE SMOOTH",
"429 458 OFFCURVE",
"379 499 OFFCURVE",
"280 499 CURVE SMOOTH",
"167 499 LINE SMOOTH",
"69 499 OFFCURVE",
"20 458 OFFCURVE",
"20 375 CURVE SMOOTH",
"20 323 LINE",
"190 323 LINE",
"190 360 LINE SMOOTH",
"190 375 OFFCURVE",
"198 382 OFFCURVE",
"215 382 CURVE SMOOTH",
"233 382 LINE SMOOTH",
"250 382 OFFCURVE",
"258 375 OFFCURVE",
"258 360 CURVE SMOOTH",
"258 317 LINE SMOOTH",
"258 302 OFFCURVE",
"250 295 OFFCURVE",
"233 295 CURVE SMOOTH",
"148 295 LINE",
"148 204 LINE",
"233 204 LINE SMOOTH",
"250 204 OFFCURVE",
"258 197 OFFCURVE",
"258 182 CURVE SMOOTH",
"258 139 LINE SMOOTH",
"258 124 OFFCURVE",
"250 117 OFFCURVE",
"233 117 CURVE SMOOTH",
"215 117 LINE SMOOTH",
"198 117 OFFCURVE",
"190 124 OFFCURVE",
"190 139 CURVE SMOOTH",
"190 176 LINE",
"20 176 LINE",
"20 124 LINE SMOOTH",
"20 41 OFFCURVE",
"69 0 OFFCURVE",
"167 0 CURVE SMOOTH"
);
}
);
width = 453;
}
);
unicode = 0437;
},
{
color = 7;
glyphname = "ii-cy";
lastChange = "2020-01-06 08:26:53 +0000";
layers = (
{
layerId = "72B922C0-AA1F-4D08-9FB7-788394CCB5D9";
paths = (
{
closed = 1;
nodes = (
"182 0 LINE",
"295 275 LINE",
"295 0 LINE",
"450 0 LINE",
"450 499 LINE",
"308 499 LINE",
"195 231 LINE",
"195 499 LINE",
"40 499 LINE",
"40 0 LINE"
);
}
);
width = 490;
}
);
unicode = 0438;
},
{
color = 7;
glyphname = "ka-cy";
lastChange = "2020-01-06 08:26:53 +0000";
layers = (
{
layerId = "72B922C0-AA1F-4D08-9FB7-788394CCB5D9";
paths = (
{
closed = 1;
nodes = (
"210 0 LINE",
"210 233 LINE",
"303 0 LINE",
"479 0 LINE",
"370 253 LINE",
"479 499 LINE",
"304 499 LINE",
"210 272 LINE",
"210 499 LINE",
"40 499 LINE",
"40 0 LINE"
);
}
);
width = 474;
}
);
unicode = 043A;
},
{
color = 7;
glyphname = "el-cy";
lastChange = "2020-01-06 08:26:53 +0000";
layers = (
{
guideLines = (
{
angle = 87.5953;
position = "{50, 118}";
}
);
layerId = "72B922C0-AA1F-4D08-9FB7-788394CCB5D9";
paths = (
{
closed = 1;
nodes = (
"73 0 LINE SMOOTH",
"165 0 OFFCURVE",
"213 50 OFFCURVE",
"218 150 CURVE SMOOTH",
"229 381 LINE",
"312 381 LINE",
"312 0 LINE",
"478 0 LINE",
"478 499 LINE",
"68 499 LINE",
"53 160 LINE SMOOTH",
"52 132 OFFCURVE",
"40 118 OFFCURVE",
"17 118 CURVE SMOOTH",
"10 118 LINE",
"10 0 LINE"
);
}
);
width = 518;
}
);
unicode = 043B;
},
{
color = 7;
glyphname = "em-cy";
lastChange = "2020-01-06 08:26:53 +0000";
layers = (
{
layerId = "72B922C0-AA1F-4D08-9FB7-788394CCB5D9";
paths = (
{
closed = 1;
nodes = (
"189 0 LINE",
"189 298 LINE",
"241 151 LINE",
"337 151 LINE",
"389 298 LINE",
"389 0 LINE",
"538 0 LINE",
"538 499 LINE",
"375 499 LINE",
"289 250 LINE",
"203 499 LINE",
"40 499 LINE",
"40 0 LINE"
);
}
);
width = 578;
}
);
unicode = 043C;
},
{
color = 7;
glyphname = "en-cy";
lastChange = "2020-01-06 08:26:53 +0000";
layers = (
{
layerId = "72B922C0-AA1F-4D08-9FB7-788394CCB5D9";
paths = (
{
closed = 1;
nodes = (
"207 0 LINE",
"207 190 LINE",
"310 190 LINE",
"310 0 LINE",
"477 0 LINE",
"477 499 LINE",
"310 499 LINE",
"310 308 LINE",
"207 308 LINE",
"207 499 LINE",
"40 499 LINE",
"40 0 LINE"
);
}
);
width = 517;
}
);
unicode = 043D;
},
{
color = 7;
glyphname = "pe-cy";
lastChange = "2020-01-06 08:26:53 +0000";
layers = (
{
layerId = "72B922C0-AA1F-4D08-9FB7-788394CCB5D9";
paths = (
{
closed = 1;
nodes = (
"206 0 LINE",
"206 381 LINE",
"308 381 LINE",
"308 0 LINE",
"474 0 LINE",
"474 499 LINE",
"40 499 LINE",
"40 0 LINE"
);
}
);
width = 514;
}
);
unicode = 043F;
},
{
color = 7;
glyphname = "te-cy";
lastChange = "2020-01-06 08:26:53 +0000";
layers = (
{
layerId = "72B922C0-AA1F-4D08-9FB7-788394CCB5D9";
paths = (
{
closed = 1;
nodes = (
"280 0 LINE",
"280 377 LINE",
"385 377 LINE",
"385 499 LINE",
"5 499 LINE",
"5 377 LINE",
"110 377 LINE",
"110 0 LINE"
);
}
);
width = 390;
}
);
unicode = 0442;
},
{
color = 7;
glyphname = "ef-cy";
lastChange = "2020-01-06 08:26:53 +0000";
layers = (
{
associatedMasterId = "72B922C0-AA1F-4D08-9FB7-788394CCB5D9";
layerId = "1917C16D-1A45-4791-84D1-5325B1311709";
name = "Dec 25 19, 14:41";
paths = (
{
closed = 1;
nodes = (
"453 499 OFFCURVE",
"439 435 QCURVE",
"439 609 LINE",
"292 609 LINE",
"292 -129 LINE",
"439 -129 LINE",
"439 54 LINE",
"453 0 OFFCURVE",
"530 0 QCURVE SMOOTH",
"548 0 LINE SMOOTH",
"681 0 OFFCURVE",
"681 124 QCURVE SMOOTH",
"681 375 LINE SMOOTH",
"681 499 OFFCURVE",
"548 499 QCURVE SMOOTH",
"530 499 LINE"
);
},
{
closed = 1;
nodes = (
"511 125 OFFCURVE",
"486 125 QCURVE SMOOTH",
"469 125 LINE SMOOTH",
"442 125 OFFCURVE",
"442 155 QCURVE SMOOTH",
"442 344 LINE SMOOTH",
"442 374 OFFCURVE",
"469 374 QCURVE SMOOTH",
"486 374 LINE SMOOTH",
"511 374 OFFCURVE",
"511 352 QCURVE SMOOTH",
"511 147 LINE"
);
},
{
closed = 1;
nodes = (
"163 499 LINE SMOOTH",
"30 499 OFFCURVE",
"30 375 QCURVE SMOOTH",
"30 124 LINE SMOOTH",
"30 0 OFFCURVE",
"163 0 QCURVE SMOOTH",
"181 0 LINE SMOOTH",
"258 0 OFFCURVE",
"272 54 QCURVE",
"272 -129 LINE",
"419 -129 LINE",
"419 609 LINE",
"272 609 LINE",
"272 435 LINE",
"258 499 OFFCURVE",
"181 499 QCURVE"
);
},
{
closed = 1;
nodes = (
"200 352 LINE SMOOTH",
"200 374 OFFCURVE",
"225 374 QCURVE SMOOTH",
"242 374 LINE SMOOTH",
"269 374 OFFCURVE",
"269 344 QCURVE SMOOTH",
"269 155 LINE SMOOTH",
"269 125 OFFCURVE",
"242 125 QCURVE SMOOTH",
"225 125 LINE SMOOTH",
"200 125 OFFCURVE",
"200 147 QCURVE"
);
}
);
width = 711;
},
{
layerId = "72B922C0-AA1F-4D08-9FB7-788394CCB5D9";
paths = (
{
closed = 1;
nodes = (
"442 -129 LINE",
"442 54 LINE",
"457 18 OFFCURVE",
"487 0 OFFCURVE",
"533 0 CURVE SMOOTH",
"551 0 LINE SMOOTH",
"640 0 OFFCURVE",
"684 41 OFFCURVE",
"684 124 CURVE SMOOTH",
"684 375 LINE SMOOTH",
"684 458 OFFCURVE",
"640 499 OFFCURVE",
"551 499 CURVE SMOOTH",
"533 499 LINE SMOOTH",
"482 499 OFFCURVE",
"451 478 OFFCURVE",
"442 435 CURVE",
"442 669 LINE",
"272 669 LINE",
"272 435 LINE",
"263 478 OFFCURVE",
"232 499 OFFCURVE",
"181 499 CURVE SMOOTH",
"163 499 LINE SMOOTH",
"74 499 OFFCURVE",
"30 458 OFFCURVE",
"30 375 CURVE SMOOTH",
"30 124 LINE SMOOTH",
"30 41 OFFCURVE",
"74 0 OFFCURVE",
"163 0 CURVE SMOOTH",
"181 0 LINE SMOOTH",
"227 0 OFFCURVE",
"257 18 OFFCURVE",
"272 54 CURVE",
"272 -129 LINE"
);
},
{
closed = 1;
nodes = (
"208 125 OFFCURVE",
"200 132 OFFCURVE",
"200 147 CURVE SMOOTH",
"200 352 LINE SMOOTH",
"200 367 OFFCURVE",
"208 374 OFFCURVE",
"225 374 CURVE SMOOTH",
"242 374 LINE SMOOTH",
"260 374 OFFCURVE",
"269 364 OFFCURVE",
"269 344 CURVE SMOOTH",
"269 155 LINE SMOOTH",
"269 135 OFFCURVE",
"260 125 OFFCURVE",
"242 125 CURVE SMOOTH",
"225 125 LINE SMOOTH"
);
},
{
closed = 1;
nodes = (
"454 125 OFFCURVE",
"445 135 OFFCURVE",
"445 155 CURVE SMOOTH",
"445 344 LINE SMOOTH",
"445 364 OFFCURVE",
"454 374 OFFCURVE",
"472 374 CURVE SMOOTH",
"489 374 LINE SMOOTH",
"506 374 OFFCURVE",
"514 367 OFFCURVE",
"514 352 CURVE SMOOTH",
"514 147 LINE SMOOTH",
"514 132 OFFCURVE",
"506 125 OFFCURVE",
"489 125 CURVE SMOOTH",
"472 125 LINE SMOOTH"
);
}
);
width = 714;
},
{
associatedMasterId = "72B922C0-AA1F-4D08-9FB7-788394CCB5D9";
layerId = "AC9F5D3C-128C-470F-99F6-4D8646B8A187";
name = "Dec 31 19, 19:16";
paths = (
{
closed = 1;
nodes = (
"35 499 OFFCURVE",
"35 375 QCURVE SMOOTH",
"35 124 LINE SMOOTH",
"35 0 OFFCURVE",
"182 0 QCURVE SMOOTH",
"538 0 LINE SMOOTH",
"685 0 OFFCURVE",
"685 124 QCURVE SMOOTH",
"685 375 LINE SMOOTH",
"685 499 OFFCURVE",
"538 499 QCURVE SMOOTH",
"182 499 LINE SMOOTH"
);
},
{
closed = 1;
nodes = (
"518 118 OFFCURVE",
"493 118 QCURVE SMOOTH",
"227 118 LINE SMOOTH",
"202 118 OFFCURVE",
"202 140 QCURVE SMOOTH",
"202 359 LINE SMOOTH",
"202 381 OFFCURVE",
"227 381 QCURVE SMOOTH",
"493 381 LINE SMOOTH",
"518 381 OFFCURVE",
"518 359 QCURVE SMOOTH",
"518 140 LINE SMOOTH"
);
},
{
closed = 1;
nodes = (
"277 -129 LINE",
"443 -129 LINE",
"443 669 LINE",
"277 669 LINE"
);
}
);
width = 720;
}
);
unicode = 0444;
},
{
color = 7;
glyphname = "che-cy";
lastChange = "2020-01-06 08:26:53 +0000";
layers = (
{
associatedMasterId = "72B922C0-AA1F-4D08-9FB7-788394CCB5D9";
layerId = "1A7682C3-097D-4E7F-8C63-F6987161E615";
name = "Dec 25 19, 14:27";
paths = (
{
closed = 1;
nodes = (
"279 0 LINE",
"447 0 LINE",
"447 499 LINE",
"279 499 LINE"
);
},
{
closed = 1;
nodes = (
"309 247 LINE",
"226 247 LINE SMOOTH",
"201 247 OFFCURVE",
"201 269 QCURVE SMOOTH",
"201 499 LINE",
"33 499 LINE",
"33 249 LINE SMOOTH",
"34 125 OFFCURVE",
"180 125 QCURVE SMOOTH",
"309 125 LINE"
);
}
);
width = 487;
},
{
associatedMasterId = "72B922C0-AA1F-4D08-9FB7-788394CCB5D9";
layerId = "BDC5F9AD-82C3-4CBB-AB71-E9B15E5165D9";
name = "Dec 25 19, 14:39";
paths = (
{
closed = 1;
nodes = (
"289 277 LINE SMOOTH",
"289 247 OFFCURVE",
"262 247 QCURVE SMOOTH",
"229 247 LINE SMOOTH",
"204 247 OFFCURVE",
"204 269 QCURVE",
"204 499 LINE",
"35 499 LINE",
"35 246 LINE SMOOTH",
"36 122 OFFCURVE",
"168 122 QCURVE SMOOTH",
"201 122 LINE SMOOTH",
"278 122 OFFCURVE",
"289 176 QCURVE",
"289 0 LINE",
"459 0 LINE",
"459 499 LINE",
"289 499 LINE"
);
}
);
width = 499;
},
{
layerId = "72B922C0-AA1F-4D08-9FB7-788394CCB5D9";
paths = (
{
closed = 1;
nodes = (
"443 0 LINE",
"443 499 LINE",
"273 499 LINE",
"273 265 LINE",
"220 265 LINE SMOOTH",
"203 265 OFFCURVE",
"195 272 OFFCURVE",
"195 287 CURVE SMOOTH",
"195 499 LINE",
"25 499 LINE",
"25 268 LINE SMOOTH",
"25 185 OFFCURVE",
"74 144 OFFCURVE",
"172 144 CURVE SMOOTH",
"273 144 LINE",
"273 0 LINE"
);
}
);
width = 483;
}
);
unicode = 0447;
},
{
color = 7;
glyphname = "tse-cy";
lastChange = "2020-01-06 08:26:53 +0000";
layers = (
{
layerId = "72B922C0-AA1F-4D08-9FB7-788394CCB5D9";
paths = (
{
closed = 1;
nodes = (
"514 -90 LINE",
"514 118 LINE",
"474 118 LINE",
"474 499 LINE",
"308 499 LINE",
"308 118 LINE",
"206 118 LINE",
"206 499 LINE",
"40 499 LINE",
"40 0 LINE",
"374 0 LINE",
"374 -90 LINE"
);
}
);
width = 524;
}
);
unicode = 0446;
},
{
color = 7;
glyphname = "sha-cy";
lastChange = "2020-01-06 08:26:53 +0000";
layers = (
{
layerId = "72B922C0-AA1F-4D08-9FB7-788394CCB5D9";
paths = (
{
closed = 1;
nodes = (
"709 0 LINE",
"709 499 LINE",
"540 499 LINE",
"540 118 LINE",
"455 118 LINE",
"455 499 LINE",
"294 499 LINE",
"294 118 LINE",
"209 118 LINE",
"209 499 LINE",
"40 499 LINE",
"40 0 LINE"
);
}
);
width = 749;
}
);
unicode = 0448;
},
{
color = 7;
glyphname = "shcha-cy";
lastChange = "2020-01-06 08:26:53 +0000";
layers = (
{
layerId = "72B922C0-AA1F-4D08-9FB7-788394CCB5D9";
paths = (
{
closed = 1;
nodes = (
"750 -90 LINE",
"750 118 LINE",
"710 118 LINE",
"710 499 LINE",
"541 499 LINE",
"541 118 LINE",
"456 118 LINE",
"456 499 LINE",
"294 499 LINE",
"294 118 LINE",
"209 118 LINE",
"209 499 LINE",
"40 499 LINE",
"40 0 LINE",
"610 0 LINE",
"610 -90 LINE"
);
}
);
width = 760;
}
);
unicode = 0449;
},
{
color = 7;
glyphname = "dzhe-cy";
lastChange = "2020-01-06 08:26:53 +0000";
layers = (
{
layerId = "72B922C0-AA1F-4D08-9FB7-788394CCB5D9";
paths = (
{
closed = 1;
nodes = (
"327 -90 LINE",
"327 0 LINE",
"474 0 LINE",
"474 499 LINE",
"308 499 LINE",
"308 118 LINE",
"206 118 LINE",
"206 499 LINE",
"40 499 LINE",
"40 0 LINE",
"187 0 LINE",
"187 -90 LINE"
);
}
);
width = 514;
}
);
unicode = 045F;
},
{
color = 7;
glyphname = "softsign-cy";
lastChange = "2020-01-06 08:26:53 +0000";
layers = (
{
layerId = "72B922C0-AA1F-4D08-9FB7-788394CCB5D9";
paths = (
{
closed = 1;
nodes = (
"308 0 LINE SMOOTH",
"406 0 OFFCURVE",
"455 41 OFFCURVE",
"455 124 CURVE SMOOTH",
"455 214 LINE SMOOTH",
"455 297 OFFCURVE",
"406 338 OFFCURVE",
"308 338 CURVE SMOOTH",
"208 338 LINE",
"208 499 LINE",
"40 499 LINE",
"40 0 LINE"
);
},
{
closed = 1;
nodes = (
"203 225 LINE",
"269 225 LINE SMOOTH",
"286 225 OFFCURVE",
"294 218 OFFCURVE",
"294 203 CURVE SMOOTH",
"294 135 LINE SMOOTH",
"294 120 OFFCURVE",
"286 113 OFFCURVE",
"269 113 CURVE SMOOTH",
"203 113 LINE"
);
}
);
width = 470;
},
{
associatedMasterId = "72B922C0-AA1F-4D08-9FB7-788394CCB5D9";
layerId = "6B3520C8-CCC0-4A0C-A99B-B7F2EE415508";
name = "Dec 27 19, 14:16";
paths = (
{
closed = 1;
nodes = (
"292 118 OFFCURVE",
"267 118 QCURVE SMOOTH",
"208 118 LINE",
"208 245 LINE",
"267 245 LINE SMOOTH",
"292 245 OFFCURVE",
"292 223 QCURVE SMOOTH",
"292 140 LINE SMOOTH"
);
},
{
closed = 1;
nodes = (
"208 0 LINE",
"208 499 LINE",
"40 499 LINE",
"40 0 LINE"
);
},
{
closed = 1;
nodes = (
"40 0 LINE",
"313 0 LINE SMOOTH",
"460 0 OFFCURVE",
"460 124 QCURVE SMOOTH",
"460 239 LINE SMOOTH",
"460 363 OFFCURVE",
"313 363 QCURVE SMOOTH",
"40 363 LINE"
);
}
);
width = 485;
}
);
unicode = 044C;
},
{
color = 7;
glyphname = "hardsign-cy";
lastChange = "2020-01-06 08:26:53 +0000";
layers = (
{
layerId = "72B922C0-AA1F-4D08-9FB7-788394CCB5D9";
paths = (
{
closed = 1;
nodes = (
"343 0 LINE SMOOTH",
"441 0 OFFCURVE",
"490 41 OFFCURVE",
"490 124 CURVE SMOOTH",
"490 214 LINE SMOOTH",
"490 297 OFFCURVE",
"441 338 OFFCURVE",
"343 338 CURVE SMOOTH",
"243 338 LINE",
"243 499 LINE",
"5 499 LINE",
"5 377 LINE",
"75 377 LINE",
"75 0 LINE"
);
},
{
closed = 1;
nodes = (
"238 225 LINE",
"304 225 LINE SMOOTH",
"321 225 OFFCURVE",
"329 218 OFFCURVE",
"329 203 CURVE SMOOTH",
"329 135 LINE SMOOTH",
"329 120 OFFCURVE",
"321 113 OFFCURVE",
"304 113 CURVE SMOOTH",
"238 113 LINE"
);
}
);
width = 505;
}
);
unicode = 044A;
},
{
color = 7;
glyphname = "yeru-cy";
lastChange = "2020-01-06 08:26:53 +0000";
layers = (
{
components = (
{
name = "softsign-cy";
}
);
layerId = "72B922C0-AA1F-4D08-9FB7-788394CCB5D9";
paths = (
{
closed = 1;
nodes = (
"680 0 LINE",
"680 499 LINE",
"510 499 LINE",
"510 0 LINE"
);
}
);
width = 720;
}
);
unicode = 044B;
},
{
color = 7;
glyphname = "lje-cy";
lastChange = "2020-01-06 08:26:53 +0000";
layers = (
{
layerId = "72B922C0-AA1F-4D08-9FB7-788394CCB5D9";
paths = (
{
closed = 1;
nodes = (
"73 0 LINE SMOOTH",
"165 0 OFFCURVE",
"213 50 OFFCURVE",
"218 150 CURVE SMOOTH",
"229 381 LINE",
"305 381 LINE",
"305 0 LINE",
"573 0 LINE SMOOTH",
"671 0 OFFCURVE",
"720 41 OFFCURVE",
"720 124 CURVE SMOOTH",
"720 214 LINE SMOOTH",
"720 297 OFFCURVE",
"671 338 OFFCURVE",
"573 338 CURVE SMOOTH",
"473 338 LINE",
"473 499 LINE",
"68 499 LINE",
"53 160 LINE SMOOTH",
"52 132 OFFCURVE",
"40 118 OFFCURVE",
"17 118 CURVE SMOOTH",
"10 118 LINE",
"10 0 LINE"
);
},
{
closed = 1;
nodes = (
"468 225 LINE",
"534 225 LINE SMOOTH",
"551 225 OFFCURVE",
"559 218 OFFCURVE",
"559 203 CURVE SMOOTH",
"559 135 LINE SMOOTH",
"559 120 OFFCURVE",
"551 113 OFFCURVE",
"534 113 CURVE SMOOTH",
"468 113 LINE"
);
}
);
width = 735;
},
{
associatedMasterId = "72B922C0-AA1F-4D08-9FB7-788394CCB5D9";
layerId = "C20E0A6F-81A5-4BDE-8B97-34E09173698E";
name = "Dec 25 19, 14:56";
paths = (
{
closed = 1;
nodes = (
"75 155 LINE SMOOTH",
"75 117 OFFCURVE",
"38 117 QCURVE SMOOTH",
"24 117 LINE",
"24 0 LINE",
"82 0 LINE SMOOTH",
"229 0 OFFCURVE",
"229 124 QCURVE SMOOTH",
"229 383 LINE",
"387 383 LINE",
"387 499 LINE",
"75 499 LINE"
);
},
{
closed = 1;
nodes = (
"714 330 OFFCURVE",
"567 330 QCURVE SMOOTH",
"472 330 LINE",
"472 499 LINE",
"304 499 LINE",
"304 0 LINE",
"567 0 LINE SMOOTH",
"714 0 OFFCURVE",
"714 124 QCURVE SMOOTH",
"714 206 LINE SMOOTH"
);
},
{
closed = 1;
nodes = (
"546 115 OFFCURVE",
"521 115 QCURVE SMOOTH",
"472 115 LINE",
"472 208 LINE",
"521 208 LINE SMOOTH",
"546 208 OFFCURVE",
"546 186 QCURVE",
"546 137 LINE SMOOTH"
);
}
);
width = 734;
},
{
associatedMasterId = "72B922C0-AA1F-4D08-9FB7-788394CCB5D9";
layerId = "6A3AF20F-2FA7-4046-B8C9-1DB6271CCF1E";
name = "Dec 27 19, 14:17";
paths = (
{
closed = 1;
nodes = (
"42 140 LINE SMOOTH",
"42 118 OFFCURVE",
"17 118 QCURVE SMOOTH",
"5 118 LINE",
"5 0 LINE",
"63 0 LINE SMOOTH",
"210 0 OFFCURVE",
"210 124 QCURVE SMOOTH",
"210 381 LINE",
"369 381 LINE",
"369 499 LINE",
"42 499 LINE"
);
},
{
closed = 1;
nodes = (
"545 118 OFFCURVE",
"520 118 QCURVE SMOOTH",
"458 118 LINE",
"458 260 LINE",
"520 260 LINE SMOOTH",
"545 260 OFFCURVE",
"545 238 QCURVE SMOOTH",
"545 140 LINE SMOOTH"
);
},
{
closed = 1;
nodes = (
"458 0 LINE",
"458 499 LINE",
"291 499 LINE",
"291 0 LINE"
);
},
{
closed = 1;
nodes = (
"291 0 LINE",
"565 0 LINE SMOOTH",
"712 0 OFFCURVE",
"712 124 QCURVE SMOOTH",
"712 254 LINE SMOOTH",
"712 378 OFFCURVE",
"565 378 QCURVE SMOOTH",
"291 378 LINE"
);
}
);
width = 737;
},
{
associatedMasterId = "72B922C0-AA1F-4D08-9FB7-788394CCB5D9";
components = (
{
name = "softsign-cy";
transform = "{1, 0, 0, 1, 258, 0}";
}
);
layerId = "D1851B26-EFC4-4874-A5A4-C5A21B140754";
name = "Jan 1 20, 18:18";
paths = (
{
closed = 1;
nodes = (
"45 140 LINE SMOOTH",
"45 118 OFFCURVE",
"20 118 QCURVE SMOOTH",
"0 118 LINE",
"0 0 LINE",
"66 0 LINE SMOOTH",
"213 0 OFFCURVE",
"213 124 QCURVE SMOOTH",
"213 381 LINE",
"377 381 LINE",
"377 499 LINE",
"45 499 LINE"
);
}
);
width = 730;
}
);
unicode = 0459;
},
{
color = 7;
glyphname = "nje-cy";
lastChange = "2020-01-06 08:26:53 +0000";
layers = (
{
layerId = "72B922C0-AA1F-4D08-9FB7-788394CCB5D9";
paths = (
{
closed = 1;
nodes = (
"205 0 LINE",
"205 216 LINE",
"309 216 LINE",
"309 0 LINE",
"577 0 LINE SMOOTH",
"675 0 OFFCURVE",
"724 41 OFFCURVE",
"724 124 CURVE SMOOTH",
"724 205 LINE SMOOTH",
"724 288 OFFCURVE",
"675 329 OFFCURVE",
"577 329 CURVE SMOOTH",
"477 329 LINE",
"477 499 LINE",
"309 499 LINE",
"309 329 LINE",
"205 329 LINE",
"205 499 LINE",
"40 499 LINE",
"40 0 LINE"
);
},
{
closed = 1;
nodes = (
"470 216 LINE",
"540 216 LINE SMOOTH",
"557 216 OFFCURVE",
"565 209 OFFCURVE",
"565 194 CURVE SMOOTH",
"565 135 LINE SMOOTH",
"565 120 OFFCURVE",
"557 113 OFFCURVE",
"540 113 CURVE SMOOTH",
"470 113 LINE"
);
}
);
width = 739;
}
);
unicode = 045A;
},
{
color = 7;
glyphname = "ereversed-cy";
lastChange = "2020-01-06 08:26:53 +0000";
layers = (
{
layerId = "72B922C0-AA1F-4D08-9FB7-788394CCB5D9";
paths = (
{
closed = 1;
nodes = (
"278 0 LINE SMOOTH",
"376 0 OFFCURVE",
"425 41 OFFCURVE",
"425 124 CURVE SMOOTH",
"425 375 LINE SMOOTH",
"425 458 OFFCURVE",
"376 499 OFFCURVE",
"278 499 CURVE SMOOTH",
"167 499 LINE SMOOTH",
"69 499 OFFCURVE",
"20 458 OFFCURVE",
"20 375 CURVE SMOOTH",
"20 326 LINE",
"187 326 LINE",
"187 360 LINE SMOOTH",
"187 375 OFFCURVE",
"195 382 OFFCURVE",
"212 382 CURVE SMOOTH",
"230 382 LINE SMOOTH",
"247 382 OFFCURVE",
"255 375 OFFCURVE",
"255 360 CURVE SMOOTH",
"255 295 LINE",
"146 295 LINE",
"146 204 LINE",
"255 204 LINE",
"255 139 LINE SMOOTH",
"255 124 OFFCURVE",
"247 117 OFFCURVE",
"230 117 CURVE SMOOTH",
"212 117 LINE SMOOTH",
"195 117 OFFCURVE",
"187 124 OFFCURVE",
"187 139 CURVE SMOOTH",
"187 173 LINE",
"20 173 LINE",
"20 124 LINE SMOOTH",
"20 41 OFFCURVE",
"69 0 OFFCURVE",
"167 0 CURVE SMOOTH"
);
}
);
width = 455;
}
);
unicode = 044D;
},
{
color = 7;
glyphname = "yi-cy";
lastChange = "2020-01-06 08:26:53 +0000";
layers = (
{
layerId = "72B922C0-AA1F-4D08-9FB7-788394CCB5D9";
paths = (
{
closed = 1;
nodes = (
"210 0 LINE",
"210 499 LINE",
"40 499 LINE",
"40 0 LINE"
);
},
{
closed = 1;
nodes = (
"81 542 LINE",
"81 672 LINE",
"-71 672 LINE",
"-71 542 LINE"
);
},
{
closed = 1;
nodes = (
"321 542 LINE",
"321 672 LINE",
"169 672 LINE",
"169 542 LINE"
);
}
);
width = 250;
}
);
unicode = 0457;
},
{
color = 7;
glyphname = "tshe-cy";
lastChange = "2020-01-06 08:26:53 +0000";
layers = (
{
layerId = "72B922C0-AA1F-4D08-9FB7-788394CCB5D9";
paths = (
{
closed = 1;
nodes = (
"210 0 LINE",
"210 344 LINE SMOOTH",
"210 374 OFFCURVE",
"237 374 QCURVE SMOOTH",
"254 374 LINE SMOOTH",
"279 374 OFFCURVE",
"279 352 QCURVE SMOOTH",
"279 0 LINE",
"449 0 LINE",
"449 375 LINE SMOOTH",
"449 499 OFFCURVE",
"316 499 QCURVE SMOOTH",
"298 499 LINE SMOOTH",
"229 499 OFFCURVE",
"210 445 QCURVE",
"210 669 LINE",
"40 669 LINE",
"40 0 LINE"
);
},
{
closed = 1;
nodes = (
"355 552 LINE",
"355 617 LINE",
"-20 617 LINE",
"-20 552 LINE"
);
}
);
width = 484;
}
);
unicode = 045B;
},
{
color = 7;
glyphname = "iu-cy";
lastChange = "2020-01-06 08:26:53 +0000";
layers = (
{
layerId = "72B922C0-AA1F-4D08-9FB7-788394CCB5D9";
paths = (
{
closed = 1;
nodes = (
"209 0 LINE",
"209 190 LINE",
"276 190 LINE",
"276 124 LINE SMOOTH",
"276 44 OFFCURVE",
"317 0 OFFCURVE",
"418 0 CURVE SMOOTH",
"545 0 LINE SMOOTH",
"646 0 OFFCURVE",
"687 44 OFFCURVE",
"687 124 CURVE SMOOTH",
"687 375 LINE SMOOTH",
"687 455 OFFCURVE",
"646 499 OFFCURVE",
"545 499 CURVE SMOOTH",
"418 499 LINE SMOOTH",
"317 499 OFFCURVE",
"276 455 OFFCURVE",
"276 375 CURVE SMOOTH",
"276 308 LINE",
"209 308 LINE",
"209 499 LINE",
"40 499 LINE",
"40 0 LINE"
);
},
{
closed = 1;
nodes = (
"451 118 OFFCURVE",
"443 125 OFFCURVE",
"443 140 CURVE SMOOTH",
"443 359 LINE SMOOTH",
"443 374 OFFCURVE",
"451 381 OFFCURVE",
"468 381 CURVE SMOOTH",
"495 381 LINE SMOOTH",
"512 381 OFFCURVE",
"520 374 OFFCURVE",
"520 359 CURVE SMOOTH",
"520 140 LINE SMOOTH",
"520 125 OFFCURVE",
"512 118 OFFCURVE",
"495 118 CURVE SMOOTH",
"468 118 LINE SMOOTH"
);
}
);
width = 722;
}
);
unicode = 044E;
},
{
color = 7;
glyphname = "ia-cy";
lastChange = "2020-01-06 08:26:53 +0000";
layers = (
{
layerId = "72B922C0-AA1F-4D08-9FB7-788394CCB5D9";
paths = (
{
closed = 1;
nodes = (
"181 0 LINE",
"255 164 LINE",
"273 164 LINE",
"273 0 LINE",
"440 0 LINE",
"440 500 LINE",
"160 500 LINE SMOOTH",
"62 500 OFFCURVE",
"13 459 OFFCURVE",
"13 376 CURVE SMOOTH",
"13 288 LINE SMOOTH",
"13 225 OFFCURVE",
"42 186 OFFCURVE",
"99 171 CURVE",
"7 0 LINE"
);
},
{
closed = 1;
nodes = (
"189 273 OFFCURVE",
"181 280 OFFCURVE",
"181 295 CURVE SMOOTH",
"181 363 LINE SMOOTH",
"181 378 OFFCURVE",
"189 385 OFFCURVE",
"206 385 CURVE SMOOTH",
"273 385 LINE",
"273 273 LINE",
"206 273 LINE SMOOTH"
);
}
);
width = 480;
}
);
unicode = 044F;
},
{
color = 7;
glyphname = "dje-cy";
lastChange = "2020-01-06 08:26:53 +0000";
layers = (
{
layerId = "72B922C0-AA1F-4D08-9FB7-788394CCB5D9";
paths = (
{
closed = 1;
nodes = (
"318 -129 LINE SMOOTH",
"416 -129 OFFCURVE",
"465 -88 OFFCURVE",
"465 -5 CURVE SMOOTH",
"465 375 LINE SMOOTH",
"465 458 OFFCURVE",
"421 499 OFFCURVE",
"332 499 CURVE SMOOTH",
"298 499 LINE SMOOTH",
"252 499 OFFCURVE",
"223 481 OFFCURVE",
"210 445 CURVE",
"210 552 LINE",
"345 552 LINE",
"345 617 LINE",
"210 617 LINE",
"210 669 LINE",
"40 669 LINE",
"40 617 LINE",
"-20 617 LINE",
"-20 552 LINE",
"40 552 LINE",
"40 0 LINE",
"210 0 LINE",
"210 344 LINE SMOOTH",
"210 364 OFFCURVE",
"219 374 OFFCURVE",
"237 374 CURVE SMOOTH",
"270 374 LINE SMOOTH",
"287 374 OFFCURVE",
"295 367 OFFCURVE",
"295 352 CURVE SMOOTH",
"295 11 LINE SMOOTH",
"295 -4 OFFCURVE",
"287 -11 OFFCURVE",
"270 -11 CURVE SMOOTH",
"240 -11 LINE",
"240 -129 LINE"
);
}
);
width = 500;
},
{
associatedMasterId = "72B922C0-AA1F-4D08-9FB7-788394CCB5D9";
layerId = "A27EE06B-B0D8-4F5C-9FFA-7C93CEAE4F20";
name = "Dec 25 19, 15:19";
paths = (
{
closed = 1;
nodes = (
"226 669 LINE",
"58 669 LINE",
"58 0 LINE",
"226 0 LINE"
);
},
{
closed = 1;
nodes = (
"195 374 LINE",
"278 374 LINE SMOOTH",
"303 374 OFFCURVE",
"303 352 QCURVE SMOOTH",
"303 0 LINE",
"473 0 LINE",
"473 375 LINE SMOOTH",
"473 499 OFFCURVE",
"326 499 QCURVE SMOOTH",
"195 499 LINE"
);
},
{
closed = 1;
nodes = (
"0 549 LINE",
"352 549 LINE",
"352 626 LINE",
"0 626 LINE"
);
},
{
closed = 1;
nodes = (
"326 -129 LINE SMOOTH",
"473 -129 OFFCURVE",
"473 -5 QCURVE SMOOTH",
"473 370 LINE",
"303 370 LINE",
"303 18 LINE SMOOTH",
"303 -4 OFFCURVE",
"278 -4 QCURVE SMOOTH",
"255 -4 LINE",
"255 -129 LINE"
);
}
);
width = 508;
}
);
unicode = 0452;
},
{
color = 7;
glyphname = "yat-cy";
lastChange = "2020-01-06 08:26:53 +0000";
layers = (
{
layerId = "72B922C0-AA1F-4D08-9FB7-788394CCB5D9";
paths = (
{
closed = 1;
nodes = (
"343 0 LINE SMOOTH",
"441 0 OFFCURVE",
"490 41 OFFCURVE",
"490 124 CURVE SMOOTH",
"490 212 LINE SMOOTH",
"490 295 OFFCURVE",
"441 336 OFFCURVE",
"343 336 CURVE SMOOTH",
"243 336 LINE",
"243 386 LINE",
"388 386 LINE",
"388 499 LINE",
"243 499 LINE",
"243 669 LINE",
"75 669 LINE",
"75 499 LINE",
"5 499 LINE",
"5 386 LINE",
"75 386 LINE",
"75 0 LINE"
);
},
{
closed = 1;
nodes = (
"238 223 LINE",
"304 223 LINE SMOOTH",
"321 223 OFFCURVE",
"329 216 OFFCURVE",
"329 201 CURVE SMOOTH",
"329 135 LINE SMOOTH",
"329 120 OFFCURVE",
"321 113 OFFCURVE",
"304 113 CURVE SMOOTH",
"238 113 LINE"
);
}
);
width = 505;
}
);
unicode = 0463;
},
{
color = 7;
glyphname = "yusbig-cy";
lastChange = "2020-01-06 08:26:53 +0000";
layers = (
{
layerId = "72B922C0-AA1F-4D08-9FB7-788394CCB5D9";
paths = (
{
closed = 1;
nodes = (
"381 0 LINE",
"381 239 LINE",
"402 231 LINE",
"559 414 LINE",
"559 522 LINE",
"59 522 LINE",
"59 414 LINE",
"216 231 LINE",
"239 239 LINE",
"239 0 LINE"
);
},
{
closed = 1;
nodes = (
"143 0 LINE",
"203 182 LINE SMOOTH",
"209 200 OFFCURVE",
"224 200 QCURVE SMOOTH",
"304 200 LINE",
"304 302 LINE",
"183 302 LINE SMOOTH",
"101 302 OFFCURVE",
"69 207 QCURVE SMOOTH",
"0 0 LINE"
);
},
{
closed = 1;
nodes = (
"620 0 LINE",
"551 207 LINE SMOOTH",
"520 302 OFFCURVE",
"437 302 QCURVE SMOOTH",
"316 302 LINE",
"316 200 LINE",
"395 200 LINE SMOOTH",
"410 200 OFFCURVE",
"416 182 QCURVE SMOOTH",
"476 0 LINE"
);
},
{
closed = 1;
nodes = (
"210 414 LINE",
"408 414 LINE",
"312 302 LINE",
"306 302 LINE"
);
}
);
width = 620;
}
);
unicode = 046B;
},
{
color = 7;
glyphname = "fita-cy";
lastChange = "2020-01-06 08:26:53 +0000";
layers = (
{
layerId = "72B922C0-AA1F-4D08-9FB7-788394CCB5D9";
paths = (
{
closed = 1;
nodes = (
"303 0 LINE SMOOTH",
"404 0 OFFCURVE",
"445 44 OFFCURVE",
"445 124 CURVE SMOOTH",
"445 375 LINE SMOOTH",
"445 455 OFFCURVE",
"404 499 OFFCURVE",
"303 499 CURVE SMOOTH",
"177 499 LINE SMOOTH",
"76 499 OFFCURVE",
"35 455 OFFCURVE",
"35 375 CURVE SMOOTH",
"35 124 LINE SMOOTH",
"35 44 OFFCURVE",
"76 0 OFFCURVE",
"177 0 CURVE SMOOTH"
);
},
{
closed = 1;
nodes = (
"201 113 OFFCURVE",
"193 120 OFFCURVE",
"193 135 CURVE SMOOTH",
"193 204 LINE",
"287 204 LINE",
"287 135 LINE SMOOTH",
"287 120 OFFCURVE",
"279 113 OFFCURVE",
"262 113 CURVE SMOOTH",
"218 113 LINE SMOOTH"
);
},
{
closed = 1;
nodes = (
"193 364 LINE SMOOTH",
"193 379 OFFCURVE",
"201 386 OFFCURVE",
"218 386 CURVE SMOOTH",
"262 386 LINE SMOOTH",
"279 386 OFFCURVE",
"287 379 OFFCURVE",
"287 364 CURVE SMOOTH",
"287 295 LINE",
"193 295 LINE"
);
}
);
width = 480;
}
);
unicode = 0473;
},
{
color = 7;
glyphname = "izhitsa-cy";
lastChange = "2020-01-06 08:26:53 +0000";
layers = (
{
components = (
{
name = v;
}
);
layerId = "72B922C0-AA1F-4D08-9FB7-788394CCB5D9";
width = 459;
},
{
associatedMasterId = "72B922C0-AA1F-4D08-9FB7-788394CCB5D9";
components = (
{
name = v;
}
);
layerId = "3037C19C-50A1-4D92-86BE-CA848927E0EC";
name = "Dec 27 19, 15:01";
width = 459;
},
{
associatedMasterId = "72B922C0-AA1F-4D08-9FB7-788394CCB5D9";
layerId = "B50B3406-3A90-426C-94BB-F88DF33540FD";
name = "Jan 2 20, 12:59";
paths = (
{
closed = 1;
nodes = (
"322 499 OFFCURVE",
"288 464 OFFCURVE",
"274 394 CURVE SMOOTH",
"231 173 LINE",
"169 499 LINE",
"-2 499 LINE",
"128 0 LINE",
"332 0 LINE",
"416 362 LINE SMOOTH",
"420 379 OFFCURVE",
"430 386 OFFCURVE",
"444 386 CURVE SMOOTH",
"473 386 LINE",
"473 499 LINE",
"389 499 LINE SMOOTH"
);
}
);
width = 473;
}
);
unicode = 0475;
},
{
color = 7;
glyphname = "ghestroke-cy";
lastChange = "2020-01-06 08:26:53 +0000";
layers = (
{
layerId = "72B922C0-AA1F-4D08-9FB7-788394CCB5D9";
paths = (
{
closed = 1;
nodes = (
"236 0 LINE",
"236 206 LINE",
"381 206 LINE",
"381 320 LINE",
"236 320 LINE",
"236 382 LINE",
"393 382 LINE",
"393 499 LINE",
"70 499 LINE",
"70 320 LINE",
"0 320 LINE",
"0 206 LINE",
"70 206 LINE",
"70 0 LINE"
);
}
);
width = 403;
}
);
unicode = 0493;
},
{
color = 7;
glyphname = "ghemiddlehook-cy";
lastChange = "2020-01-06 08:26:53 +0000";
layers = (
{
layerId = "72B922C0-AA1F-4D08-9FB7-788394CCB5D9";
paths = (
{
closed = 1;
nodes = (
"315 -129 LINE SMOOTH",
"413 -129 OFFCURVE",
"462 -88 OFFCURVE",
"462 -5 CURVE SMOOTH",
"462 159 LINE SMOOTH",
"462 242 OFFCURVE",
"412 283 OFFCURVE",
"312 283 CURVE SMOOTH",
"209 283 LINE",
"209 381 LINE",
"421 381 LINE",
"421 499 LINE",
"40 499 LINE",
"40 0 LINE",
"209 0 LINE",
"209 163 LINE",
"268 163 LINE SMOOTH",
"285 163 OFFCURVE",
"293 156 OFFCURVE",
"293 141 CURVE SMOOTH",
"293 11 LINE SMOOTH",
"293 -4 OFFCURVE",
"285 -11 OFFCURVE",
"268 -11 CURVE SMOOTH",
"238 -11 LINE",
"238 -129 LINE"
);
}
);
width = 482;
}
);
unicode = 0495;
},
{
color = 7;
glyphname = "zhedescender-cy";
lastChange = "2020-01-06 08:26:53 +0000";
layers = (
{
guideLines = (
{
position = "{1077, -100}";
}
);
layerId = "72B922C0-AA1F-4D08-9FB7-788394CCB5D9";
paths = (
{
closed = 1;
nodes = (
"703 -90 LINE",
"703 118 LINE",
"652 118 LINE",
"595 253 LINE",
"702 499 LINE",
"526 499 LINE",
"432 272 LINE",
"432 499 LINE",
"265 499 LINE",
"265 272 LINE",
"171 499 LINE",
"-5 499 LINE",
"102 253 LINE",
"-5 0 LINE",
"172 0 LINE",
"265 233 LINE",
"265 0 LINE",
"432 0 LINE",
"432 233 LINE",
"525 0 LINE",
"563 0 LINE",
"563 -90 LINE"
);
}
);
width = 713;
}
);
unicode = 0497;
},
{
color = 7;
glyphname = "zedescender-cy";
lastChange = "2020-01-06 08:26:53 +0000";
layers = (
{
layerId = "72B922C0-AA1F-4D08-9FB7-788394CCB5D9";
paths = (
{
closed = 1;
nodes = (
"296 -90 LINE",
"296 0 LINE",
"384 5 OFFCURVE",
"428 46 OFFCURVE",
"428 123 CURVE SMOOTH",
"428 156 LINE SMOOTH",
"428 203 OFFCURVE",
"411 234 OFFCURVE",
"378 249 CURVE",
"411 264 OFFCURVE",
"428 295 OFFCURVE",
"428 342 CURVE SMOOTH",
"428 375 LINE SMOOTH",
"429 458 OFFCURVE",
"379 499 OFFCURVE",
"280 499 CURVE SMOOTH",
"167 499 LINE SMOOTH",
"69 499 OFFCURVE",
"20 458 OFFCURVE",
"20 375 CURVE SMOOTH",
"20 323 LINE",
"190 323 LINE",
"190 360 LINE SMOOTH",
"190 375 OFFCURVE",
"198 382 OFFCURVE",
"215 382 CURVE SMOOTH",
"233 382 LINE SMOOTH",
"250 382 OFFCURVE",
"258 375 OFFCURVE",
"258 360 CURVE SMOOTH",
"258 317 LINE SMOOTH",
"258 302 OFFCURVE",
"250 295 OFFCURVE",
"233 295 CURVE SMOOTH",
"148 295 LINE",
"148 204 LINE",
"233 204 LINE SMOOTH",
"250 204 OFFCURVE",
"258 197 OFFCURVE",
"258 182 CURVE SMOOTH",
"258 139 LINE SMOOTH",
"258 124 OFFCURVE",
"250 117 OFFCURVE",
"233 117 CURVE SMOOTH",
"215 117 LINE SMOOTH",
"198 117 OFFCURVE",
"190 124 OFFCURVE",
"190 139 CURVE SMOOTH",
"190 176 LINE",
"20 176 LINE",
"20 124 LINE SMOOTH",
"20 44 OFFCURVE",
"65 3 OFFCURVE",
"156 0 CURVE",
"156 -90 LINE"
);
}
);
width = 458;
}
);
unicode = 0499;
},
{
color = 7;
glyphname = "kadescender-cy";
lastChange = "2020-01-06 08:26:53 +0000";
layers = (
{
layerId = "72B922C0-AA1F-4D08-9FB7-788394CCB5D9";
paths = (
{
closed = 1;
nodes = (
"482 -90 LINE",
"482 118 LINE",
"428 118 LINE",
"370 253 LINE",
"479 499 LINE",
"304 499 LINE",
"210 272 LINE",
"210 499 LINE",
"40 499 LINE",
"40 0 LINE",
"210 0 LINE",
"210 233 LINE",
"303 0 LINE",
"342 0 LINE",
"342 -90 LINE"
);
}
);
width = 492;
}
);
unicode = 049B;
},
{
color = 7;
glyphname = "kaverticalstroke-cy";
lastChange = "2020-01-06 08:26:53 +0000";
layers = (
{
layerId = "72B922C0-AA1F-4D08-9FB7-788394CCB5D9";
paths = (
{
closed = 1;
nodes = (
"207 0 LINE",
"207 207 LINE",
"234 207 LINE",
"234 107 LINE",
"311 107 LINE",
"311 207 LINE",
"322 207 LINE",
"404 0 LINE",
"577 0 LINE",
"467 250 LINE",
"577 499 LINE",
"404 499 LINE",
"322 292 LINE",
"311 292 LINE",
"311 392 LINE",
"234 392 LINE",
"234 292 LINE",
"207 292 LINE",
"207 499 LINE",
"40 499 LINE",
"40 0 LINE"
);
}
);
width = 572;
}
);
unicode = 049D;
},
{
color = 7;
glyphname = "kastroke-cy";
lastChange = "2020-01-06 08:26:53 +0000";
layers = (
{
layerId = "72B922C0-AA1F-4D08-9FB7-788394CCB5D9";
paths = (
{
closed = 1;
nodes = (
"210 0 LINE",
"210 233 LINE",
"303 0 LINE",
"480 0 LINE",
"373 253 LINE",
"480 499 LINE",
"304 499 LINE",
"210 272 LINE",
"210 552 LINE",
"345 552 LINE",
"345 617 LINE",
"210 617 LINE",
"210 674 LINE",
"40 674 LINE",
"40 617 LINE",
"-20 617 LINE",
"-20 552 LINE",
"40 552 LINE",
"40 0 LINE"
);
}
);
width = 475;
}
);
unicode = 049F;
},
{
color = 7;
glyphname = "kabashkir-cy";
lastChange = "2020-01-06 08:26:53 +0000";
layers = (
{
layerId = "72B922C0-AA1F-4D08-9FB7-788394CCB5D9";
paths = (
{
closed = 1;
nodes = (
"243 0 LINE",
"243 234 LINE",
"336 0 LINE",
"512 0 LINE",
"401 253 LINE",
"512 499 LINE",
"337 499 LINE",
"243 271 LINE",
"243 499 LINE",
"5 499 LINE",
"5 377 LINE",
"75 377 LINE",
"75 0 LINE"
);
}
);
width = 507;
}
);
unicode = 04A1;
},
{
color = 7;
glyphname = "endescender-cy";
lastChange = "2020-01-06 08:26:53 +0000";
layers = (
{
layerId = "72B922C0-AA1F-4D08-9FB7-788394CCB5D9";
paths = (
{
closed = 1;
nodes = (
"517 -90 LINE",
"517 118 LINE",
"477 118 LINE",
"477 499 LINE",
"310 499 LINE",
"310 308 LINE",
"207 308 LINE",
"207 499 LINE",
"40 499 LINE",
"40 0 LINE",
"207 0 LINE",
"207 190 LINE",
"310 190 LINE",
"310 0 LINE",
"377 0 LINE",
"377 -90 LINE"
);
}
);
width = 527;
}
);
unicode = 04A3;
},
{
color = 7;
glyphname = "enghe-cy";
lastChange = "2020-01-06 08:26:53 +0000";
layers = (
{
layerId = "72B922C0-AA1F-4D08-9FB7-788394CCB5D9";
paths = (
{
closed = 1;
nodes = (
"207 0 LINE",
"207 190 LINE",
"310 190 LINE",
"310 0 LINE",
"477 0 LINE",
"477 377 LINE",
"547 377 LINE",
"547 499 LINE",
"310 499 LINE",
"310 308 LINE",
"207 308 LINE",
"207 499 LINE",
"40 499 LINE",
"40 0 LINE"
);
}
);
width = 552;
}
);
unicode = 04A5;
},
{
color = 7;
glyphname = "pedescender-cy";
lastChange = "2020-01-06 08:26:53 +0000";
layers = (
{
layerId = "72B922C0-AA1F-4D08-9FB7-788394CCB5D9";
paths = (
{
closed = 1;
nodes = (
"520 -100 LINE",
"520 118 LINE",
"474 118 LINE",
"474 499 LINE",
"40 499 LINE",
"40 0 LINE",
"206 0 LINE",
"206 381 LINE",
"308 381 LINE",
"308 0 LINE",
"380 0 LINE",
"380 -100 LINE"
);
}
);
width = 520;
}
);
unicode = 0525;
},
{
color = 7;
glyphname = "pemiddlehook-cy";
lastChange = "2020-01-06 08:26:53 +0000";
layers = (
{
layerId = "72B922C0-AA1F-4D08-9FB7-788394CCB5D9";
paths = (
{
closed = 1;
nodes = (
"580 -129 LINE SMOOTH",
"678 -129 OFFCURVE",
"727 -88 OFFCURVE",
"727 -5 CURVE SMOOTH",
"727 177 LINE SMOOTH",
"727 260 OFFCURVE",
"678 301 OFFCURVE",
"580 301 CURVE SMOOTH",
"474 301 LINE",
"474 499 LINE",
"40 499 LINE",
"40 0 LINE",
"206 0 LINE",
"206 381 LINE",
"308 381 LINE",
"308 0 LINE",
"474 0 LINE",
"474 183 LINE",
"533 183 LINE SMOOTH",
"550 183 OFFCURVE",
"558 176 OFFCURVE",
"558 161 CURVE SMOOTH",
"558 11 LINE SMOOTH",
"558 -4 OFFCURVE",
"550 -11 OFFCURVE",
"533 -11 CURVE SMOOTH",
"503 -11 LINE",
"503 -129 LINE"
);
}
);
width = 747;
}
);
unicode = 04A7;
},
{
color = 7;
glyphname = "haabkhasian-cy";
lastChange = "2020-01-06 08:26:53 +0000";
layers = (
{
layerId = "72B922C0-AA1F-4D08-9FB7-788394CCB5D9";
paths = (
{
closed = 1;
nodes = (
"759 0 LINE",
"759 118 LINE",
"691 118 LINE",
"691 375 LINE SMOOTH",
"691 458 OFFCURVE",
"642 499 OFFCURVE",
"544 499 CURVE SMOOTH",
"427 499 LINE SMOOTH",
"329 499 OFFCURVE",
"280 458 OFFCURVE",
"280 375 CURVE SMOOTH",
"280 118 LINE",
"223 118 LINE SMOOTH",
"206 118 OFFCURVE",
"198 125 OFFCURVE",
"198 140 CURVE SMOOTH",
"198 359 LINE SMOOTH",
"198 374 OFFCURVE",
"206 381 OFFCURVE",
"223 381 CURVE SMOOTH",
"240 381 LINE",
"240 499 LINE",
"182 499 LINE SMOOTH",
"84 499 OFFCURVE",
"35 458 OFFCURVE",
"35 375 CURVE SMOOTH",
"35 124 LINE SMOOTH",
"35 41 OFFCURVE",
"84 0 OFFCURVE",
"182 0 CURVE SMOOTH"
);
},
{
closed = 1;
nodes = (
"455 118 OFFCURVE",
"447 125 OFFCURVE",
"447 140 CURVE SMOOTH",
"447 359 LINE SMOOTH",
"447 374 OFFCURVE",
"455 381 OFFCURVE",
"472 381 CURVE SMOOTH",
"499 381 LINE SMOOTH",
"516 381 OFFCURVE",
"524 374 OFFCURVE",
"524 359 CURVE SMOOTH",
"524 140 LINE SMOOTH",
"524 125 OFFCURVE",
"516 118 OFFCURVE",
"499 118 CURVE SMOOTH",
"472 118 LINE SMOOTH"
);
}
);
width = 759;
}
);
unicode = 04A9;
},
{
color = 7;
glyphname = "esdescender-cy";
lastChange = "2020-01-06 08:26:53 +0000";
layers = (
{
layerId = "72B922C0-AA1F-4D08-9FB7-788394CCB5D9";
paths = (
{
closed = 1;
nodes = (
"305 -90 LINE",
"305 1 LINE",
"389 6 OFFCURVE",
"431 47 OFFCURVE",
"431 124 CURVE SMOOTH",
"431 193 LINE",
"267 193 LINE",
"267 147 LINE SMOOTH",
"267 132 OFFCURVE",
"259 125 OFFCURVE",
"242 125 CURVE SMOOTH",
"225 125 LINE SMOOTH",
"208 125 OFFCURVE",
"200 132 OFFCURVE",
"200 147 CURVE SMOOTH",
"200 352 LINE SMOOTH",
"200 367 OFFCURVE",
"208 374 OFFCURVE",
"225 374 CURVE SMOOTH",
"242 374 LINE SMOOTH",
"259 374 OFFCURVE",
"267 367 OFFCURVE",
"267 352 CURVE SMOOTH",
"267 306 LINE",
"431 306 LINE",
"431 375 LINE SMOOTH",
"431 458 OFFCURVE",
"382 499 OFFCURVE",
"284 499 CURVE SMOOTH",
"177 499 LINE SMOOTH",
"79 499 OFFCURVE",
"30 458 OFFCURVE",
"30 375 CURVE SMOOTH",
"30 124 LINE SMOOTH",
"30 45 OFFCURVE",
"75 4 OFFCURVE",
"165 0 CURVE",
"165 -90 LINE"
);
}
);
width = 451;
},
{
associatedMasterId = "72B922C0-AA1F-4D08-9FB7-788394CCB5D9";
components = (
{
name = c;
}
);
layerId = "87F2AAE0-5C90-47ED-A53E-DA83C5E9A27E";
name = "Dec 27 19, 16:27";
paths = (
{
closed = 1;
nodes = (
"156 -145 OFFCURVE",
"131 -145 QCURVE SMOOTH",
"78 -145 LINE",
"78 -260 LINE",
"169 -260 LINE SMOOTH",
"316 -260 OFFCURVE",
"316 -136 QCURVE SMOOTH",
"316 -46 LINE",
"156 -46 LINE",
"156 -123 LINE"
);
}
);
width = 451;
}
);
unicode = 04AB;
},
{
color = 7;
glyphname = "tedescender-cy";
lastChange = "2020-01-06 08:26:53 +0000";
layers = (
{
layerId = "72B922C0-AA1F-4D08-9FB7-788394CCB5D9";
paths = (
{
closed = 1;
nodes = (
"314 -90 LINE",
"314 118 LINE",
"274 118 LINE",
"274 377 LINE",
"374 377 LINE",
"374 499 LINE",
"5 499 LINE",
"5 377 LINE",
"105 377 LINE",
"105 0 LINE",
"174 0 LINE",
"174 -90 LINE"
);
}
);
width = 379;
}
);
unicode = 04AD;
},
{
color = 7;
glyphname = "ustraight-cy";
lastChange = "2020-01-06 08:26:53 +0000";
layers = (
{
layerId = "72B922C0-AA1F-4D08-9FB7-788394CCB5D9";
paths = (
{
closed = 1;
nodes = (
"322 -123 LINE",
"322 70 LINE",
"473 499 LINE",
"303 499 LINE",
"239 225 LINE",
"165 499 LINE",
"-5 499 LINE",
"156 70 LINE",
"156 -123 LINE"
);
}
);
width = 468;
}
);
unicode = 04AF;
},
{
color = 7;
glyphname = "ustraightstroke-cy";
lastChange = "2020-01-06 08:26:53 +0000";
layers = (
{
layerId = "72B922C0-AA1F-4D08-9FB7-788394CCB5D9";
paths = (
{
closed = 1;
nodes = (
"322 -123 LINE",
"322 7 LINE",
"433 7 LINE",
"433 125 LINE",
"341 125 LINE",
"473 499 LINE",
"303 499 LINE",
"239 225 LINE",
"165 499 LINE",
"-5 499 LINE",
"135 125 LINE",
"35 125 LINE",
"35 7 LINE",
"156 7 LINE",
"156 -123 LINE"
);
}
);
width = 468;
}
);
unicode = 04B1;
},
{
color = 7;
glyphname = "hadescender-cy";
lastChange = "2020-01-06 08:26:53 +0000";
layers = (
{
layerId = "72B922C0-AA1F-4D08-9FB7-788394CCB5D9";
paths = (
{
closed = 1;
nodes = (
"448 -90 LINE",
"448 118 LINE",
"390 118 LINE",
"323 258 LINE",
"433 499 LINE",
"264 499 LINE",
"221 360 LINE",
"178 499 LINE",
"0 499 LINE",
"120 255 LINE",
"6 0 LINE",
"172 0 LINE",
"221 148 LINE",
"275 0 LINE",
"308 0 LINE",
"308 -90 LINE"
);
}
);
width = 458;
}
);
unicode = 04B3;
},
{
color = 7;
glyphname = "tetse-cy";
lastChange = "2020-01-06 08:26:53 +0000";
layers = (
{
layerId = "72B922C0-AA1F-4D08-9FB7-788394CCB5D9";
paths = (
{
closed = 1;
nodes = (
"576 -90 LINE",
"576 118 LINE",
"536 118 LINE",
"536 499 LINE",
"369 499 LINE",
"369 118 LINE",
"242 118 LINE",
"242 381 LINE",
"312 381 LINE",
"312 499 LINE",
"5 499 LINE",
"5 381 LINE",
"75 381 LINE",
"75 0 LINE",
"436 0 LINE",
"436 -90 LINE"
);
}
);
width = 586;
}
);
unicode = 04B5;
},
{
color = 7;
glyphname = "chedescender-cy";
lastChange = "2020-01-06 08:26:53 +0000";
layers = (
{
layerId = "72B922C0-AA1F-4D08-9FB7-788394CCB5D9";
paths = (
{
closed = 1;
nodes = (
"483 -90 LINE",
"483 118 LINE",
"443 118 LINE",
"443 499 LINE",
"273 499 LINE",
"273 265 LINE",
"220 265 LINE SMOOTH",
"203 265 OFFCURVE",
"195 272 OFFCURVE",
"195 287 CURVE SMOOTH",
"195 499 LINE",
"25 499 LINE",
"25 268 LINE SMOOTH",
"25 185 OFFCURVE",
"74 144 OFFCURVE",
"172 144 CURVE SMOOTH",
"273 144 LINE",
"273 0 LINE",
"343 0 LINE",
"343 -90 LINE"
);
}
);
width = 493;
}
);
unicode = 04B7;
},
{
color = 7;
glyphname = "cheverticalstroke-cy";
lastChange = "2020-01-06 08:26:53 +0000";
layers = (
{
layerId = "72B922C0-AA1F-4D08-9FB7-788394CCB5D9";
paths = (
{
closed = 1;
nodes = (
"495 0 LINE",
"495 499 LINE",
"326 499 LINE",
"326 267 LINE",
"295 267 LINE",
"295 361 LINE",
"226 361 LINE",
"226 267 LINE",
"222 267 LINE SMOOTH",
"205 267 OFFCURVE",
"197 274 OFFCURVE",
"197 289 CURVE SMOOTH",
"197 499 LINE",
"28 499 LINE",
"28 271 LINE SMOOTH",
"28 188 OFFCURVE",
"77 147 OFFCURVE",
"175 147 CURVE SMOOTH",
"226 147 LINE",
"226 53 LINE",
"295 53 LINE",
"295 147 LINE",
"326 147 LINE",
"326 0 LINE"
);
}
);
width = 535;
}
);
unicode = 04B9;
},
{
color = 7;
glyphname = "shhadescender-cy";
lastChange = "2020-01-06 08:26:53 +0000";
layers = (
{
layerId = "72B922C0-AA1F-4D08-9FB7-788394CCB5D9";
paths = (
{
closed = 1;
nodes = (
"489 -90 LINE",
"489 118 LINE",
"449 118 LINE",
"449 375 LINE SMOOTH",
"449 458 OFFCURVE",
"405 499 OFFCURVE",
"316 499 CURVE SMOOTH",
"298 499 LINE SMOOTH",
"252 499 OFFCURVE",
"223 481 OFFCURVE",
"210 445 CURVE",
"210 669 LINE",
"40 669 LINE",
"40 0 LINE",
"210 0 LINE",
"210 344 LINE SMOOTH",
"210 364 OFFCURVE",
"219 374 OFFCURVE",
"237 374 CURVE SMOOTH",
"254 374 LINE SMOOTH",
"271 374 OFFCURVE",
"279 367 OFFCURVE",
"279 352 CURVE SMOOTH",
"279 0 LINE",
"349 0 LINE",
"349 -90 LINE"
);
}
);
width = 499;
}
);
unicode = 0527;
},
{
color = 7;
glyphname = "shha-cy";
lastChange = "2020-01-06 08:26:53 +0000";
layers = (
{
layerId = "72B922C0-AA1F-4D08-9FB7-788394CCB5D9";
paths = (
{
closed = 1;
nodes = (
"210 0 LINE",
"210 344 LINE SMOOTH",
"210 364 OFFCURVE",
"219 374 OFFCURVE",
"237 374 CURVE SMOOTH",
"254 374 LINE SMOOTH",
"271 374 OFFCURVE",
"279 367 OFFCURVE",
"279 352 CURVE SMOOTH",
"279 0 LINE",
"449 0 LINE",
"449 375 LINE SMOOTH",
"449 458 OFFCURVE",
"405 499 OFFCURVE",
"316 499 CURVE SMOOTH",
"298 499 LINE SMOOTH",
"252 499 OFFCURVE",
"223 481 OFFCURVE",
"210 445 CURVE",
"210 669 LINE",
"40 669 LINE",
"40 0 LINE"
);
}
);
width = 484;
}
);
unicode = 04BB;
},
{
color = 7;
glyphname = "cheabkhasian-cy";
lastChange = "2020-01-06 08:26:53 +0000";
layers = (
{
layerId = "72B922C0-AA1F-4D08-9FB7-788394CCB5D9";
paths = (
{
closed = 1;
nodes = (
"448 0 LINE SMOOTH",
"546 0 OFFCURVE",
"595 41 OFFCURVE",
"595 124 CURVE SMOOTH",
"595 169 LINE",
"434 169 LINE",
"434 141 LINE SMOOTH",
"434 125 OFFCURVE",
"426 117 OFFCURVE",
"409 117 CURVE SMOOTH",
"365 117 LINE SMOOTH",
"348 117 OFFCURVE",
"340 124 OFFCURVE",
"340 139 CURVE SMOOTH",
"340 205 LINE",
"595 205 LINE",
"595 375 LINE SMOOTH",
"595 458 OFFCURVE",
"546 499 OFFCURVE",
"448 499 CURVE SMOOTH",
"326 499 LINE SMOOTH",
"228 499 OFFCURVE",
"179 458 OFFCURVE",
"179 375 CURVE SMOOTH",
"179 301 LINE",
"151 301 LINE SMOOTH",
"134 301 OFFCURVE",
"126 308 OFFCURVE",
"126 323 CURVE SMOOTH",
"126 380 LINE",
"0 380 LINE",
"0 323 LINE SMOOTH",
"0 242 OFFCURVE",
"49 201 OFFCURVE",
"148 201 CURVE SMOOTH",
"179 201 LINE",
"179 124 LINE SMOOTH",
"179 41 OFFCURVE",
"228 0 OFFCURVE",
"326 0 CURVE SMOOTH"
);
},
{
closed = 1;
nodes = (
"340 360 LINE SMOOTH",
"340 375 OFFCURVE",
"348 382 OFFCURVE",
"365 382 CURVE SMOOTH",
"409 382 LINE SMOOTH",
"426 382 OFFCURVE",
"434 375 OFFCURVE",
"434 360 CURVE SMOOTH",
"434 297 LINE",
"340 297 LINE"
);
}
);
width = 630;
}
);
unicode = 04BD;
},
{
color = 7;
glyphname = "chedescenderabkhasian-cy";
lastChange = "2020-01-06 08:26:53 +0000";
layers = (
{
layerId = "72B922C0-AA1F-4D08-9FB7-788394CCB5D9";
paths = (
{
closed = 1;
nodes = (
"454 -91 LINE",
"454 0 LINE",
"548 2 OFFCURVE",
"595 43 OFFCURVE",
"595 124 CURVE SMOOTH",
"595 169 LINE",
"434 169 LINE",
"434 141 LINE SMOOTH",
"434 125 OFFCURVE",
"426 117 OFFCURVE",
"409 117 CURVE SMOOTH",
"365 117 LINE SMOOTH",
"348 117 OFFCURVE",
"340 124 OFFCURVE",
"340 139 CURVE SMOOTH",
"340 205 LINE",
"595 205 LINE",
"595 375 LINE SMOOTH",
"595 458 OFFCURVE",
"546 499 OFFCURVE",
"448 499 CURVE SMOOTH",
"326 499 LINE SMOOTH",
"228 499 OFFCURVE",
"179 458 OFFCURVE",
"179 375 CURVE SMOOTH",
"179 301 LINE",
"151 301 LINE SMOOTH",
"134 301 OFFCURVE",
"126 308 OFFCURVE",
"126 323 CURVE SMOOTH",
"126 380 LINE",
"0 380 LINE",
"0 323 LINE SMOOTH",
"0 242 OFFCURVE",
"49 201 OFFCURVE",
"148 201 CURVE SMOOTH",
"179 201 LINE",
"179 124 LINE SMOOTH",
"179 44 OFFCURVE",
"224 3 OFFCURVE",
"314 0 CURVE",
"314 -91 LINE"
);
},
{
closed = 1;
nodes = (
"340 360 LINE SMOOTH",
"340 375 OFFCURVE",
"348 382 OFFCURVE",
"365 382 CURVE SMOOTH",
"409 382 LINE SMOOTH",
"426 382 OFFCURVE",
"434 375 OFFCURVE",
"434 360 CURVE SMOOTH",
"434 297 LINE",
"340 297 LINE"
);
}
);
width = 630;
}
);
unicode = 04BF;
},
{
color = 7;
glyphname = "kahook-cy";
lastChange = "2020-01-06 08:26:53 +0000";
layers = (
{
layerId = "72B922C0-AA1F-4D08-9FB7-788394CCB5D9";
paths = (
{
closed = 1;
nodes = (
"315 -129 LINE SMOOTH",
"413 -129 OFFCURVE",
"462 -88 OFFCURVE",
"462 -5 CURVE SMOOTH",
"462 156 LINE SMOOTH",
"462 222 OFFCURVE",
"430 261 OFFCURVE",
"365 274 CURVE",
"469 499 LINE",
"297 499 LINE",
"212 278 LINE",
"209 278 LINE",
"209 499 LINE",
"40 499 LINE",
"40 0 LINE",
"209 0 LINE",
"209 160 LINE",
"268 160 LINE SMOOTH",
"285 160 OFFCURVE",
"293 153 OFFCURVE",
"293 138 CURVE SMOOTH",
"293 11 LINE SMOOTH",
"293 -4 OFFCURVE",
"285 -11 OFFCURVE",
"268 -11 CURVE SMOOTH",
"238 -11 LINE",
"238 -129 LINE"
);
}
);
width = 484;
}
);
unicode = 04C4;
},
{
color = 7;
glyphname = "eltail-cy";
lastChange = "2020-01-06 08:26:53 +0000";
layers = (
{
layerId = "72B922C0-AA1F-4D08-9FB7-788394CCB5D9";
paths = (
{
closed = 1;
nodes = (
"423 -90 LINE",
"518 36 LINE",
"518 118 LINE",
"478 118 LINE",
"478 499 LINE",
"68 499 LINE",
"53 160 LINE SMOOTH",
"52 132 OFFCURVE",
"40 118 OFFCURVE",
"17 118 CURVE SMOOTH",
"10 118 LINE",
"10 0 LINE",
"73 0 LINE SMOOTH",
"165 0 OFFCURVE",
"213 50 OFFCURVE",
"218 150 CURVE SMOOTH",
"229 381 LINE",
"312 381 LINE",
"312 0 LINE",
"363 0 LINE",
"363 -90 LINE"
);
}
);
width = 528;
}
);
unicode = 04C6;
},
{
color = 7;
glyphname = "enhook-cy";
lastChange = "2020-01-06 08:26:53 +0000";
layers = (
{
layerId = "72B922C0-AA1F-4D08-9FB7-788394CCB5D9";
paths = (
{
closed = 1;
nodes = (
"330 -129 LINE SMOOTH",
"428 -129 OFFCURVE",
"477 -88 OFFCURVE",
"477 -5 CURVE SMOOTH",
"477 499 LINE",
"310 499 LINE",
"310 308 LINE",
"207 308 LINE",
"207 499 LINE",
"40 499 LINE",
"40 0 LINE",
"207 0 LINE",
"207 190 LINE",
"310 190 LINE",
"310 11 LINE SMOOTH",
"310 -4 OFFCURVE",
"302 -11 OFFCURVE",
"285 -11 CURVE SMOOTH",
"253 -11 LINE",
"253 -129 LINE"
);
}
);
width = 517;
}
);
unicode = 04C8;
},
{
color = 7;
glyphname = "entail-cy";
lastChange = "2020-01-06 08:26:53 +0000";
layers = (
{
layerId = "72B922C0-AA1F-4D08-9FB7-788394CCB5D9";
paths = (
{
closed = 1;
nodes = (
"422 -90 LINE",
"517 36 LINE",
"517 118 LINE",
"477 118 LINE",
"477 499 LINE",
"310 499 LINE",
"310 308 LINE",
"207 308 LINE",
"207 499 LINE",
"40 499 LINE",
"40 0 LINE",
"207 0 LINE",
"207 190 LINE",
"310 190 LINE",
"310 0 LINE",
"362 0 LINE",
"362 -90 LINE"
);
}
);
width = 527;
}
);
unicode = 04CA;
},
{
color = 7;
glyphname = "chekhakassian-cy";
lastChange = "2020-01-06 08:26:53 +0000";
layers = (
{
layerId = "72B922C0-AA1F-4D08-9FB7-788394CCB5D9";
paths = (
{
closed = 1;
nodes = (
"373 -90 LINE",
"373 0 LINE",
"443 0 LINE",
"443 499 LINE",
"273 499 LINE",
"273 265 LINE",
"220 265 LINE SMOOTH",
"203 265 OFFCURVE",
"195 272 OFFCURVE",
"195 287 CURVE SMOOTH",
"195 499 LINE",
"25 499 LINE",
"25 268 LINE SMOOTH",
"25 185 OFFCURVE",
"74 144 OFFCURVE",
"172 144 CURVE SMOOTH",
"273 144 LINE",
"273 108 LINE",
"233 108 LINE",
"233 -90 LINE"
);
}
);
width = 488;
}
);
unicode = 04CC;
},
{
color = 7;
glyphname = "emtail-cy";
lastChange = "2020-01-06 08:26:53 +0000";
layers = (
{
layerId = "72B922C0-AA1F-4D08-9FB7-788394CCB5D9";
paths = (
{
closed = 1;
nodes = (
"493 -90 LINE",
"588 36 LINE",
"588 118 LINE",
"538 118 LINE",
"538 499 LINE",
"375 499 LINE",
"289 250 LINE",
"203 499 LINE",
"40 499 LINE",
"40 0 LINE",
"189 0 LINE",
"189 298 LINE",
"241 151 LINE",
"337 151 LINE",
"389 298 LINE",
"389 0 LINE",
"433 0 LINE",
"433 -90 LINE"
);
}
);
width = 598;
}
);
unicode = 04CE;
},
{
color = 7;
glyphname = "dzeabkhasian-cy";
lastChange = "2020-01-06 08:26:53 +0000";
layers = (
{
layerId = "72B922C0-AA1F-4D08-9FB7-788394CCB5D9";
paths = (
{
closed = 1;
nodes = (
"280 -119 LINE SMOOTH",
"378 -119 OFFCURVE",
"427 -78 OFFCURVE",
"427 5 CURVE SMOOTH",
"427 144 LINE SMOOTH",
"427 224 OFFCURVE",
"381 266 OFFCURVE",
"289 268 CURVE",
"411 389 LINE",
"411 500 LINE",
"22 500 LINE",
"22 378 LINE",
"223 378 LINE",
"107 257 LINE",
"107 160 LINE",
"234 160 LINE SMOOTH",
"251 160 OFFCURVE",
"259 153 OFFCURVE",
"259 138 CURVE SMOOTH",
"259 20 LINE SMOOTH",
"259 5 OFFCURVE",
"251 -2 OFFCURVE",
"234 -2 CURVE SMOOTH",
"209 -2 LINE SMOOTH",
"192 -2 OFFCURVE",
"184 5 OFFCURVE",
"184 20 CURVE SMOOTH",
"184 88 LINE",
"20 88 LINE",
"20 5 LINE SMOOTH",
"20 -78 OFFCURVE",
"69 -119 OFFCURVE",
"167 -119 CURVE SMOOTH"
);
}
);
width = 447;
}
);
unicode = 04E1;
},
{
color = 7;
glyphname = "obarred-cy";
lastChange = "2020-01-06 08:26:53 +0000";
layers = (
{
layerId = "72B922C0-AA1F-4D08-9FB7-788394CCB5D9";
paths = (
{
closed = 1;
nodes = (
"303 0 LINE SMOOTH",
"404 0 OFFCURVE",
"445 44 OFFCURVE",
"445 124 CURVE SMOOTH",
"445 375 LINE SMOOTH",
"445 455 OFFCURVE",
"404 499 OFFCURVE",
"303 499 CURVE SMOOTH",
"177 499 LINE SMOOTH",
"76 499 OFFCURVE",
"35 455 OFFCURVE",
"35 375 CURVE SMOOTH",
"35 124 LINE SMOOTH",
"35 44 OFFCURVE",
"76 0 OFFCURVE",
"177 0 CURVE SMOOTH"
);
},
{
closed = 1;
nodes = (
"201 113 OFFCURVE",
"193 120 OFFCURVE",
"193 135 CURVE SMOOTH",
"193 204 LINE",
"287 204 LINE",
"287 135 LINE SMOOTH",
"287 120 OFFCURVE",
"279 113 OFFCURVE",
"262 113 CURVE SMOOTH",
"218 113 LINE SMOOTH"
);
},
{
closed = 1;
nodes = (
"193 364 LINE SMOOTH",
"193 379 OFFCURVE",
"201 386 OFFCURVE",
"218 386 CURVE SMOOTH",
"262 386 LINE SMOOTH",
"279 386 OFFCURVE",
"287 379 OFFCURVE",
"287 364 CURVE SMOOTH",
"287 295 LINE",
"193 295 LINE"
);
}
);
width = 480;
}
);
unicode = 04E9;
},
{
color = 7;
glyphname = "obarreddieresis-cy";
lastChange = "2020-01-06 08:26:53 +0000";
layers = (
{
components = (
{
name = "obarred-cy";
}
);
layerId = "72B922C0-AA1F-4D08-9FB7-788394CCB5D9";
paths = (
{
closed = 1;
nodes = (
"435 542 LINE",
"435 672 LINE",
"283 672 LINE",
"283 542 LINE"
);
},
{
closed = 1;
nodes = (
"195 542 LINE",
"195 672 LINE",
"43 672 LINE",
"43 542 LINE"
);
}
);
width = 480;
}
);
unicode = 04EB;
},
{
color = 7;
glyphname = "uhungarumlaut-cy";
lastChange = "2020-01-06 08:26:53 +0000";
layers = (
{
components = (
{
name = "u-cy";
}
);
layerId = "72B922C0-AA1F-4D08-9FB7-788394CCB5D9";
paths = (
{
closed = 1;
nodes = (
"358 532 LINE",
"491 682 LINE",
"344 682 LINE",
"247 532 LINE"
);
},
{
closed = 1;
nodes = (
"168 532 LINE",
"301 682 LINE",
"154 682 LINE",
"57 532 LINE"
);
}
);
width = 464;
}
);
unicode = 04F3;
},
{
color = 7;
glyphname = "gedescender-cy";
lastChange = "2020-01-06 08:26:53 +0000";
layers = (
{
layerId = "72B922C0-AA1F-4D08-9FB7-788394CCB5D9";
paths = (
{
closed = 1;
nodes = (
"250 -90 LINE",
"250 118 LINE",
"210 118 LINE",
"210 377 LINE",
"364 377 LINE",
"364 499 LINE",
"40 499 LINE",
"40 0 LINE",
"110 0 LINE",
"110 -90 LINE"
);
}
);
width = 369;
}
);
unicode = 04F7;
},
{
color = 7;
glyphname = "hahook-cy";
lastChange = "2020-01-06 08:26:53 +0000";
layers = (
{
background = {
paths = (
{
closed = 1;
nodes = (
"433 499 LINE",
"264 499 LINE",
"221 360 LINE",
"178 499 LINE",
"0 499 LINE",
"120 255 LINE",
"6 0 LINE",
"172 0 LINE",
"221 148 LINE",
"275 0 LINE",
"447 0 LINE",
"323 258 LINE"
);
}
);
};
layerId = "72B922C0-AA1F-4D08-9FB7-788394CCB5D9";
paths = (
{
closed = 1;
nodes = (
"302 -129 LINE SMOOTH",
"395 -129 OFFCURVE",
"437 -93 OFFCURVE",
"437 -14 CURVE SMOOTH",
"437 11 OFFCURVE",
"429 40 OFFCURVE",
"410 77 CURVE SMOOTH",
"352 196 LINE",
"323 258 LINE",
"433 499 LINE",
"264 499 LINE",
"221 360 LINE",
"178 499 LINE",
"0 499 LINE",
"120 255 LINE",
"6 0 LINE",
"172 0 LINE",
"221 148 LINE",
"267 48 LINE SMOOTH",
"276 28 OFFCURVE",
"280 15 OFFCURVE",
"280 6 CURVE SMOOTH",
"280 -11 OFFCURVE",
"269 -16 OFFCURVE",
"255 -16 CURVE SMOOTH",
"224 -16 LINE",
"224 -129 LINE"
);
}
);
width = 437;
}
);
unicode = 04FD;
},
{
color = 7;
glyphname = "elhook-cy";
lastChange = "2020-01-06 08:26:53 +0000";
layers = (
{
layerId = "72B922C0-AA1F-4D08-9FB7-788394CCB5D9";
paths = (
{
closed = 1;
nodes = (
"331 -129 LINE SMOOTH",
"429 -129 OFFCURVE",
"478 -88 OFFCURVE",
"478 -5 CURVE SMOOTH",
"478 499 LINE",
"68 499 LINE",
"53 160 LINE SMOOTH",
"52 132 OFFCURVE",
"40 118 OFFCURVE",
"17 118 CURVE SMOOTH",
"10 118 LINE",
"10 0 LINE",
"73 0 LINE SMOOTH",
"165 0 OFFCURVE",
"213 50 OFFCURVE",
"218 150 CURVE SMOOTH",
"229 381 LINE",
"312 381 LINE",
"312 11 LINE SMOOTH",
"312 -4 OFFCURVE",
"304 -11 OFFCURVE",
"287 -11 CURVE SMOOTH",
"255 -11 LINE",
"255 -129 LINE"
);
}
);
width = 518;
}
);
unicode = 0513;
},
{
color = 7;
glyphname = "ve-cy.loclBGR";
lastChange = "2020-01-06 08:26:53 +0000";
layers = (
{
layerId = "72B922C0-AA1F-4D08-9FB7-788394CCB5D9";
paths = (
{
closed = 1;
nodes = (
"305 0 LINE SMOOTH",
"403 0 OFFCURVE",
"452 41 OFFCURVE",
"452 124 CURVE SMOOTH",
"452 252 LINE SMOOTH",
"452 311 OFFCURVE",
"435 343 OFFCURVE",
"397 355 CURVE",
"435 367 OFFCURVE",
"452 399 OFFCURVE",
"452 458 CURVE SMOOTH",
"452 545 LINE SMOOTH",
"452 628 OFFCURVE",
"403 669 OFFCURVE",
"305 669 CURVE SMOOTH",
"183 669 LINE SMOOTH",
"84 669 OFFCURVE",
"35 628 OFFCURVE",
"35 545 CURVE SMOOTH",
"35 124 LINE SMOOTH",
"35 41 OFFCURVE",
"84 0 OFFCURVE",
"183 0 CURVE SMOOTH"
);
},
{
closed = 1;
nodes = (
"211 118 OFFCURVE",
"203 125 OFFCURVE",
"203 140 CURVE SMOOTH",
"203 288 LINE",
"258 288 LINE SMOOTH",
"275 288 OFFCURVE",
"283 281 OFFCURVE",
"283 266 CURVE SMOOTH",
"283 140 LINE SMOOTH",
"283 125 OFFCURVE",
"275 118 OFFCURVE",
"258 118 CURVE SMOOTH",
"228 118 LINE SMOOTH"
);
},
{
closed = 1;
nodes = (
"203 529 LINE SMOOTH",
"203 544 OFFCURVE",
"211 551 OFFCURVE",
"228 551 CURVE SMOOTH",
"258 551 LINE SMOOTH",
"275 551 OFFCURVE",
"283 544 OFFCURVE",
"283 529 CURVE SMOOTH",
"283 428 LINE SMOOTH",
"283 413 OFFCURVE",
"275 406 OFFCURVE",
"258 406 CURVE SMOOTH",
"203 406 LINE"
);
}
);
width = 487;
},
{
associatedMasterId = "72B922C0-AA1F-4D08-9FB7-788394CCB5D9";
layerId = "5D2BB57F-9311-4CB8-9944-53BBD9A33C2D";
name = "Dec 24 19, 15:31";
paths = (
{
closed = 0;
nodes = (
"273 276 LINE",
"273 146 LINE",
"273 124 OFFCURVE",
"248 124 QCURVE SMOOTH",
"229 124 LINE SMOOTH",
"204 124 OFFCURVE",
"204 146 QCURVE SMOOTH",
"204 298 LINE"
);
},
{
closed = 0;
nodes = (
"441 462 LINE",
"441 545 LINE SMOOTH",
"441 669 OFFCURVE",
"294 669 QCURVE SMOOTH",
"182 669 LINE SMOOTH",
"35 669 OFFCURVE",
"35 545 QCURVE SMOOTH",
"35 198 LINE",
"204 198 LINE",
"204 298 LINE"
);
},
{
closed = 0;
nodes = (
"204 409 LINE",
"204 523 LINE SMOOTH",
"204 545 OFFCURVE",
"229 545 QCURVE SMOOTH",
"248 545 LINE SMOOTH",
"273 545 OFFCURVE",
"273 523 QCURVE",
"273 431 LINE SMOOTH"
);
},
{
closed = 0;
nodes = (
"204 409 LINE",
"204 471 LINE",
"35 471 LINE",
"35 124 LINE SMOOTH",
"35 0 OFFCURVE",
"182 0 QCURVE SMOOTH",
"294 0 LINE SMOOTH",
"441 0 OFFCURVE",
"441 124 QCURVE SMOOTH",
"441 255 LINE SMOOTH"
);
},
{
closed = 1;
nodes = (
"-191 379 OFFCURVE",
"-216 379 QCURVE SMOOTH",
"-288 379 LINE",
"-288 527 LINE",
"-216 527 LINE SMOOTH",
"-191 527 OFFCURVE",
"-191 505 QCURVE SMOOTH",
"-191 401 LINE"
);
},
{
closed = 1;
nodes = (
"-191 115 OFFCURVE",
"-216 115 QCURVE SMOOTH",
"-288 115 LINE",
"-288 264 LINE",
"-216 264 LINE SMOOTH",
"-191 264 OFFCURVE",
"-191 242 QCURVE SMOOTH",
"-191 137 LINE"
);
},
{
closed = 1;
nodes = (
"-460 0 LINE",
"-166 0 LINE SMOOTH",
"-19 0 OFFCURVE",
"-19 124 QCURVE SMOOTH",
"-19 220 LINE SMOOTH",
"-19 262 OFFCURVE",
"-39 311 OFFCURVE",
"-67 323 QCURVE",
"-19 349 OFFCURVE",
"-19 436 QCURVE SMOOTH",
"-19 518 LINE SMOOTH",
"-19 642 OFFCURVE",
"-166 642 QCURVE SMOOTH",
"-460 642 LINE"
);
}
);
width = 600;
}
);
},
{
color = 7;
glyphname = "de-cy.loclBGR";
lastChange = "2020-01-06 08:26:53 +0000";
layers = (
{
components = (
{
name = g;
}
);
layerId = "72B922C0-AA1F-4D08-9FB7-788394CCB5D9";
width = 479;
},
{
associatedMasterId = "72B922C0-AA1F-4D08-9FB7-788394CCB5D9";
layerId = "C523108E-F059-4C75-A64E-26AD29B7E162";
name = "Dec 24 19, 17:45";
paths = (
{
closed = 1;
nodes = (
"504 -96 LINE",
"504 117 LINE",
"165 117 LINE",
"165 0 LINE",
"352 0 LINE",
"352 -96 LINE"
);
},
{
closed = 1;
nodes = (
"160 0 LINE",
"347 0 LINE",
"347 117 LINE",
"0 117 LINE",
"0 -96 LINE",
"160 -96 LINE"
);
},
{
closed = 1;
nodes = (
"224 494 LINE",
"327 0 LINE",
"482 0 LINE",
"358 499 LINE",
"146 499 LINE",
"22 0 LINE",
"177 0 LINE",
"280 494 LINE"
);
}
);
width = 504;
},
{
associatedMasterId = "72B922C0-AA1F-4D08-9FB7-788394CCB5D9";
layerId = "38CBB780-EB53-4C8D-9137-7F85E4C8B5E9";
name = "Jan 1 20, 14:56";
paths = (
{
closed = 1;
nodes = (
"493 -100 LINE",
"493 118 LINE",
"136 118 LINE",
"136 0 LINE",
"353 0 LINE",
"353 -100 LINE"
);
},
{
closed = 1;
nodes = (
"140 0 LINE",
"357 0 LINE",
"357 118 LINE",
"0 118 LINE",
"0 -100 LINE",
"140 -100 LINE"
);
},
{
closed = 1;
nodes = (
"247 330 LINE",
"316 0 LINE",
"476 0 LINE",
"348 499 LINE",
"145 499 LINE",
"17 0 LINE",
"177 0 LINE"
);
}
);
width = 493;
}
);
},
{
color = 7;
glyphname = "zhe-cy.loclBGR";
lastChange = "2020-01-06 08:26:53 +0000";
layers = (
{
layerId = "72B922C0-AA1F-4D08-9FB7-788394CCB5D9";
paths = (
{
closed = 1;
nodes = (
"171 0 LINE",
"265 233 LINE",
"265 0 LINE",
"435 0 LINE",
"435 233 LINE",
"529 0 LINE",
"705 0 LINE",
"597 253 LINE",
"705 499 LINE",
"529 499 LINE",
"435 272 LINE",
"435 669 LINE",
"265 669 LINE",
"265 272 LINE",
"171 499 LINE",
"-5 499 LINE",
"103 253 LINE",
"-5 0 LINE"
);
}
);
width = 700;
}
);
},
{
color = 7;
glyphname = "ze-cy.loclBGR";
lastChange = "2020-01-06 08:26:53 +0000";
layers = (
{
layerId = "72B922C0-AA1F-4D08-9FB7-788394CCB5D9";
paths = (
{
closed = 1;
nodes = (
"299 -129 LINE SMOOTH",
"396 -129 OFFCURVE",
"446 -88 OFFCURVE",
"446 -5 CURVE SMOOTH",
"446 84 LINE SMOOTH",
"446 144 OFFCURVE",
"430 177 OFFCURVE",
"396 187 CURVE",
"430 198 OFFCURVE",
"446 231 OFFCURVE",
"446 290 CURVE SMOOTH",
"446 375 LINE SMOOTH",
"446 458 OFFCURVE",
"397 499 OFFCURVE",
"299 499 CURVE SMOOTH",
"183 499 LINE SMOOTH",
"85 499 OFFCURVE",
"36 458 OFFCURVE",
"36 375 CURVE SMOOTH",
"36 280 LINE",
"206 280 LINE",
"206 360 LINE SMOOTH",
"206 375 OFFCURVE",
"214 382 OFFCURVE",
"231 382 CURVE SMOOTH",
"251 382 LINE SMOOTH",
"268 382 OFFCURVE",
"276 375 OFFCURVE",
"276 360 CURVE SMOOTH",
"276 265 LINE SMOOTH",
"276 250 OFFCURVE",
"268 243 OFFCURVE",
"251 243 CURVE SMOOTH",
"169 243 LINE",
"169 128 LINE",
"251 128 LINE SMOOTH",
"268 128 OFFCURVE",
"276 121 OFFCURVE",
"276 106 CURVE SMOOTH",
"276 10 LINE SMOOTH",
"276 -5 OFFCURVE",
"268 -12 OFFCURVE",
"251 -12 CURVE SMOOTH",
"231 -12 LINE SMOOTH",
"214 -12 OFFCURVE",
"206 -5 OFFCURVE",
"206 10 CURVE SMOOTH",
"206 88 LINE",
"36 88 LINE",
"36 -5 LINE SMOOTH",
"36 -88 OFFCURVE",
"85 -129 OFFCURVE",
"183 -129 CURVE SMOOTH"
);
}
);
width = 481;
}
);
},
{
color = 7;
glyphname = "tse-cy.loclBGR";
lastChange = "2020-01-06 08:26:53 +0000";
layers = (
{
layerId = "72B922C0-AA1F-4D08-9FB7-788394CCB5D9";
paths = (
{
closed = 1;
nodes = (
"484 -90 LINE",
"484 118 LINE",
"444 118 LINE",
"444 499 LINE",
"274 499 LINE",
"274 155 LINE SMOOTH",
"274 135 OFFCURVE",
"265 125 OFFCURVE",
"247 125 CURVE SMOOTH",
"230 125 LINE SMOOTH",
"213 125 OFFCURVE",
"205 132 OFFCURVE",
"205 147 CURVE SMOOTH",
"205 499 LINE",
"35 499 LINE",
"35 124 LINE SMOOTH",
"35 41 OFFCURVE",
"79 0 OFFCURVE",
"168 0 CURVE SMOOTH",
"186 0 LINE SMOOTH",
"237 0 OFFCURVE",
"268 21 OFFCURVE",
"277 64 CURVE",
"277 0 LINE",
"344 0 LINE",
"344 -90 LINE"
);
}
);
width = 494;
},
{
associatedMasterId = "72B922C0-AA1F-4D08-9FB7-788394CCB5D9";
layerId = "05929303-C04E-42BC-B430-48438C5246D1";
name = "Dec 24 19, 14:18";
paths = (
{
closed = 1;
nodes = (
"357 0 LINE",
"502 0 LINE",
"502 125 LINE",
"357 125 LINE"
);
},
{
closed = 1;
nodes = (
"274 155 LINE SMOOTH",
"274 125 OFFCURVE",
"247 125 QCURVE SMOOTH",
"230 125 LINE SMOOTH",
"205 125 OFFCURVE",
"205 147 QCURVE SMOOTH",
"205 499 LINE",
"35 499 LINE",
"35 124 LINE SMOOTH",
"35 0 OFFCURVE",
"168 0 QCURVE SMOOTH",
"186 0 LINE SMOOTH",
"263 0 OFFCURVE",
"277 64 QCURVE",
"277 0 LINE",
"444 0 LINE",
"444 499 LINE",
"274 499 LINE"
);
},
{
closed = 1;
nodes = (
"502 -89 LINE",
"502 116 LINE",
"409 116 LINE",
"409 0 LINE",
"342 0 LINE",
"342 -89 LINE"
);
}
);
width = 484;
},
{
associatedMasterId = "72B922C0-AA1F-4D08-9FB7-788394CCB5D9";
layerId = "38AB34C0-26BF-45C4-97D7-D1549E0F3F24";
name = "Dec 24 19, 15:05";
paths = (
{
closed = 1;
nodes = (
"357 0 LINE",
"502 0 LINE",
"502 125 LINE",
"357 125 LINE"
);
},
{
closed = 1;
nodes = (
"274 155 LINE SMOOTH",
"274 125 OFFCURVE",
"247 125 QCURVE SMOOTH",
"230 125 LINE SMOOTH",
"205 125 OFFCURVE",
"205 147 QCURVE SMOOTH",
"205 499 LINE",
"35 499 LINE",
"35 124 LINE SMOOTH",
"35 0 OFFCURVE",
"168 0 QCURVE SMOOTH",
"186 0 LINE SMOOTH",
"263 0 OFFCURVE",
"277 64 QCURVE",
"277 0 LINE",
"444 0 LINE",
"444 499 LINE",
"274 499 LINE"
);
},
{
closed = 1;
nodes = (
"502 -89 LINE",
"502 116 LINE",
"409 116 LINE",
"409 0 LINE",
"342 0 LINE",
"342 -89 LINE"
);
}
);
width = 484;
},
{
associatedMasterId = "72B922C0-AA1F-4D08-9FB7-788394CCB5D9";
layerId = "450B13F7-CCCD-4647-A03F-240DCA75F7C3";
name = "Jan 1 20, 15:32";
paths = (
{
closed = 1;
nodes = (
"277 499 LINE",
"277 140 LINE",
"277 118 OFFCURVE",
"252 118 QCURVE SMOOTH",
"230 118 LINE SMOOTH",
"205 118 OFFCURVE",
"205 140 QCURVE SMOOTH",
"205 499 LINE",
"35 499 LINE",
"35 124 LINE SMOOTH",
"35 64 OFFCURVE",
"101 0 OFFCURVE",
"177 0 QCURVE SMOOTH",
"305 0 LINE SMOOTH",
"381 0 OFFCURVE",
"447 64 OFFCURVE",
"447 124 QCURVE SMOOTH",
"447 499 LINE"
);
},
{
closed = 1;
nodes = (
"487 -90 LINE",
"487 118 LINE",
"347 118 LINE",
"347 -90 LINE"
);
}
);
width = 497;
}
);
},
{
color = 7;
glyphname = "sha-cy.loclBGR";
lastChange = "2020-01-06 08:26:53 +0000";
layers = (
{
layerId = "72B922C0-AA1F-4D08-9FB7-788394CCB5D9";
paths = (
{
closed = 1;
nodes = (
"186 0 LINE SMOOTH",
"235 0 OFFCURVE",
"274 24 OFFCURVE",
"285 63 CURVE",
"304 21 OFFCURVE",
"345 0 OFFCURVE",
"407 0 CURVE SMOOTH",
"425 0 LINE SMOOTH",
"476 0 OFFCURVE",
"507 21 OFFCURVE",
"516 64 CURVE",
"516 0 LINE",
"683 0 LINE",
"683 499 LINE",
"513 499 LINE",
"513 155 LINE SMOOTH",
"513 135 OFFCURVE",
"504 125 OFFCURVE",
"486 125 CURVE SMOOTH",
"469 125 LINE SMOOTH",
"452 125 OFFCURVE",
"444 132 OFFCURVE",
"444 147 CURVE SMOOTH",
"444 499 LINE",
"274 499 LINE",
"274 155 LINE SMOOTH",
"274 135 OFFCURVE",
"265 125 OFFCURVE",
"247 125 CURVE SMOOTH",
"230 125 LINE SMOOTH",
"213 125 OFFCURVE",
"205 132 OFFCURVE",
"205 147 CURVE SMOOTH",
"205 499 LINE",
"35 499 LINE",
"35 124 LINE SMOOTH",
"35 41 OFFCURVE",
"79 0 OFFCURVE",
"168 0 CURVE SMOOTH"
);
}
);
width = 723;
},
{
associatedMasterId = "72B922C0-AA1F-4D08-9FB7-788394CCB5D9";
layerId = "6083B722-9163-4EDF-AD4F-CB724BB10B35";
name = "Jan 1 20, 15:34";
paths = (
{
closed = 1;
nodes = (
"278 499 LINE",
"278 140 LINE",
"278 118 OFFCURVE",
"253 118 QCURVE SMOOTH",
"230 118 LINE SMOOTH",
"205 118 OFFCURVE",
"205 140 QCURVE SMOOTH",
"205 499 LINE",
"35 499 LINE",
"35 124 LINE SMOOTH",
"35 64 OFFCURVE",
"101 0 OFFCURVE",
"177 0 QCURVE SMOOTH",
"277 0 LINE SMOOTH",
"376 0 OFFCURVE",
"375 273 OFFCURVE",
"375 293 QCURVE SMOOTH",
"375 499 LINE"
);
},
{
closed = 1;
nodes = (
"519 499 LINE",
"519 140 LINE",
"519 118 OFFCURVE",
"494 118 QCURVE SMOOTH",
"471 118 LINE SMOOTH",
"446 119 OFFCURVE",
"446 140 QCURVE SMOOTH",
"446 499 LINE",
"349 499 LINE",
"349 293 LINE SMOOTH",
"349 273 OFFCURVE",
"348 0 OFFCURVE",
"447 0 QCURVE SMOOTH",
"547 0 LINE SMOOTH",
"623 0 OFFCURVE",
"689 64 OFFCURVE",
"689 124 QCURVE SMOOTH",
"689 499 LINE"
);
}
);
width = 724;
}
);
},
{
color = 7;
glyphname = "shcha-cy.loclBGR";
lastChange = "2020-01-06 08:26:53 +0000";
layers = (
{
layerId = "72B922C0-AA1F-4D08-9FB7-788394CCB5D9";
paths = (
{
closed = 1;
nodes = (
"723 -90 LINE",
"723 118 LINE",
"683 118 LINE",
"683 499 LINE",
"513 499 LINE",
"513 155 LINE SMOOTH",
"513 135 OFFCURVE",
"504 125 OFFCURVE",
"486 125 CURVE SMOOTH",
"469 125 LINE SMOOTH",
"452 125 OFFCURVE",
"444 132 OFFCURVE",
"444 147 CURVE SMOOTH",
"444 499 LINE",
"274 499 LINE",
"274 155 LINE SMOOTH",
"274 135 OFFCURVE",
"265 125 OFFCURVE",
"247 125 CURVE SMOOTH",
"230 125 LINE SMOOTH",
"213 125 OFFCURVE",
"205 132 OFFCURVE",
"205 147 CURVE SMOOTH",
"205 499 LINE",
"35 499 LINE",
"35 124 LINE SMOOTH",
"35 41 OFFCURVE",
"79 0 OFFCURVE",
"168 0 CURVE SMOOTH",
"186 0 LINE SMOOTH",
"235 0 OFFCURVE",
"274 24 OFFCURVE",
"285 63 CURVE",
"304 21 OFFCURVE",
"345 0 OFFCURVE",
"407 0 CURVE SMOOTH",
"425 0 LINE SMOOTH",
"476 0 OFFCURVE",
"507 21 OFFCURVE",
"516 64 CURVE",
"516 0 LINE",
"583 0 LINE",
"583 -90 LINE"
);
}
);
width = 733;
},
{
associatedMasterId = "72B922C0-AA1F-4D08-9FB7-788394CCB5D9";
layerId = "4060609F-0BBF-48B5-81D9-050C88B5216E";
name = "Dec 24 19, 14:47";
paths = (
{
closed = 1;
nodes = (
"274 499 LINE",
"274 147 LINE",
"274 125 OFFCURVE",
"249 125 QCURVE SMOOTH",
"230 125 LINE SMOOTH",
"205 125 OFFCURVE",
"205 147 QCURVE SMOOTH",
"205 499 LINE",
"35 499 LINE",
"35 124 LINE SMOOTH",
"35 64 OFFCURVE",
"91 0 OFFCURVE",
"167 0 QCURVE SMOOTH",
"263 0 LINE SMOOTH",
"362 0 OFFCURVE",
"381 263 OFFCURVE",
"381 283 QCURVE SMOOTH",
"381 499 LINE"
);
},
{
closed = 1;
nodes = (
"511 499 LINE",
"511 147 LINE",
"511 125 OFFCURVE",
"486 125 QCURVE SMOOTH",
"467 125 LINE SMOOTH",
"442 125 OFFCURVE",
"442 147 QCURVE SMOOTH",
"442 499 LINE",
"335 499 LINE",
"335 283 LINE SMOOTH",
"335 263 OFFCURVE",
"354 0 OFFCURVE",
"453 0 QCURVE SMOOTH",
"549 0 LINE SMOOTH",
"625 0 OFFCURVE",
"681 64 OFFCURVE",
"681 124 QCURVE SMOOTH",
"681 499 LINE"
);
},
{
closed = 1;
nodes = (
"739 -96 LINE",
"739 116 LINE",
"584 116 LINE",
"584 -96 LINE"
);
}
);
width = 739;
},
{
associatedMasterId = "72B922C0-AA1F-4D08-9FB7-788394CCB5D9";
layerId = "19B8A0B7-ED57-4914-9307-F048C2A1591B";
name = "Jan 1 20, 15:35";
paths = (
{
closed = 1;
nodes = (
"734 -100 LINE",
"734 116 LINE",
"594 116 LINE",
"594 -100 LINE"
);
},
{
closed = 1;
nodes = (
"278 499 LINE",
"278 140 LINE",
"278 118 OFFCURVE",
"253 118 QCURVE SMOOTH",
"230 118 LINE SMOOTH",
"205 118 OFFCURVE",
"205 140 QCURVE SMOOTH",
"205 499 LINE",
"35 499 LINE",
"35 124 LINE SMOOTH",
"35 64 OFFCURVE",
"101 0 OFFCURVE",
"177 0 QCURVE SMOOTH",
"277 0 LINE SMOOTH",
"376 0 OFFCURVE",
"375 273 OFFCURVE",
"375 293 QCURVE SMOOTH",
"375 499 LINE"
);
},
{
closed = 1;
nodes = (
"519 499 LINE",
"519 140 LINE",
"519 118 OFFCURVE",
"494 118 QCURVE SMOOTH",
"471 118 LINE SMOOTH",
"446 119 OFFCURVE",
"446 140 QCURVE SMOOTH",
"446 499 LINE",
"349 499 LINE",
"349 293 LINE SMOOTH",
"349 273 OFFCURVE",
"348 0 OFFCURVE",
"447 0 QCURVE SMOOTH",
"547 0 LINE SMOOTH",
"623 0 OFFCURVE",
"689 64 OFFCURVE",
"689 124 QCURVE SMOOTH",
"689 499 LINE"
);
}
);
width = 734;
}
);
},
{
color = 7;
glyphname = "softsign-cy.loclBGR";
lastChange = "2020-01-06 08:26:53 +0000";
layers = (
{
layerId = "72B922C0-AA1F-4D08-9FB7-788394CCB5D9";
paths = (
{
closed = 1;
nodes = (
"303 0 LINE SMOOTH",
"401 0 OFFCURVE",
"450 41 OFFCURVE",
"450 124 CURVE SMOOTH",
"450 265 LINE SMOOTH",
"450 348 OFFCURVE",
"406 389 OFFCURVE",
"317 389 CURVE SMOOTH",
"290 389 LINE SMOOTH",
"244 389 OFFCURVE",
"215 371 OFFCURVE",
"204 335 CURVE",
"204 499 LINE",
"35 499 LINE",
"35 124 LINE SMOOTH",
"36 41 OFFCURVE",
"85 0 OFFCURVE",
"182 0 CURVE SMOOTH"
);
},
{
closed = 1;
nodes = (
"212 118 OFFCURVE",
"204 125 OFFCURVE",
"204 140 CURVE SMOOTH",
"204 241 LINE SMOOTH",
"204 261 OFFCURVE",
"213 271 OFFCURVE",
"231 271 CURVE SMOOTH",
"256 271 LINE SMOOTH",
"273 271 OFFCURVE",
"281 264 OFFCURVE",
"281 249 CURVE SMOOTH",
"281 140 LINE SMOOTH",
"281 125 OFFCURVE",
"273 118 OFFCURVE",
"256 118 CURVE SMOOTH",
"229 118 LINE SMOOTH"
);
}
);
width = 465;
}
);
},
{
color = 7;
glyphname = "hardsign-cy.loclBGR";
lastChange = "2020-01-06 08:26:53 +0000";
layers = (
{
layerId = "72B922C0-AA1F-4D08-9FB7-788394CCB5D9";
paths = (
{
closed = 1;
nodes = (
"343 0 LINE SMOOTH",
"441 0 OFFCURVE",
"490 41 OFFCURVE",
"490 124 CURVE SMOOTH",
"490 265 LINE SMOOTH",
"490 348 OFFCURVE",
"446 389 OFFCURVE",
"357 389 CURVE SMOOTH",
"330 389 LINE SMOOTH",
"284 389 OFFCURVE",
"255 371 OFFCURVE",
"244 335 CURVE",
"244 499 LINE",
"5 499 LINE",
"5 377 LINE",
"75 377 LINE",
"75 124 LINE SMOOTH",
"76 41 OFFCURVE",
"125 0 OFFCURVE",
"222 0 CURVE SMOOTH"
);
},
{
closed = 1;
nodes = (
"252 118 OFFCURVE",
"244 125 OFFCURVE",
"244 140 CURVE SMOOTH",
"244 241 LINE SMOOTH",
"244 261 OFFCURVE",
"253 271 OFFCURVE",
"271 271 CURVE SMOOTH",
"296 271 LINE SMOOTH",
"313 271 OFFCURVE",
"321 264 OFFCURVE",
"321 249 CURVE SMOOTH",
"321 140 LINE SMOOTH",
"321 125 OFFCURVE",
"313 118 OFFCURVE",
"296 118 CURVE SMOOTH",
"269 118 LINE SMOOTH"
);
}
);
width = 505;
}
);
},
{
color = 7;
glyphname = "iu-cy.loclBGR";
lastChange = "2020-01-06 08:26:53 +0000";
layers = (
{
layerId = "72B922C0-AA1F-4D08-9FB7-788394CCB5D9";
paths = (
{
closed = 1;
nodes = (
"210 0 LINE",
"210 189 LINE",
"281 189 LINE",
"281 124 LINE SMOOTH",
"281 44 OFFCURVE",
"322 0 OFFCURVE",
"423 0 CURVE SMOOTH",
"550 0 LINE SMOOTH",
"651 0 OFFCURVE",
"692 44 OFFCURVE",
"692 124 CURVE SMOOTH",
"692 375 LINE SMOOTH",
"692 455 OFFCURVE",
"651 499 OFFCURVE",
"550 499 CURVE SMOOTH",
"423 499 LINE SMOOTH",
"322 499 OFFCURVE",
"281 455 OFFCURVE",
"281 375 CURVE SMOOTH",
"281 307 LINE",
"210 307 LINE",
"210 669 LINE",
"40 669 LINE",
"40 0 LINE"
);
},
{
closed = 1;
nodes = (
"456 118 OFFCURVE",
"448 125 OFFCURVE",
"448 140 CURVE SMOOTH",
"448 359 LINE SMOOTH",
"448 374 OFFCURVE",
"456 381 OFFCURVE",
"473 381 CURVE SMOOTH",
"500 381 LINE SMOOTH",
"517 381 OFFCURVE",
"525 374 OFFCURVE",
"525 359 CURVE SMOOTH",
"525 140 LINE SMOOTH",
"525 125 OFFCURVE",
"517 118 OFFCURVE",
"500 118 CURVE SMOOTH",
"473 118 LINE SMOOTH"
);
}
);
width = 727;
}
);
},
{
color = 7;
glyphname = "be-cy.loclSRB";
lastChange = "2020-01-06 08:26:53 +0000";
layers = (
{
layerId = "72B922C0-AA1F-4D08-9FB7-788394CCB5D9";
paths = (
{
closed = 1;
nodes = (
"297 0 LINE SMOOTH",
"395 0 OFFCURVE",
"444 41 OFFCURVE",
"444 124 CURVE SMOOTH",
"444 375 LINE SMOOTH",
"444 458 OFFCURVE",
"400 499 OFFCURVE",
"311 499 CURVE SMOOTH",
"290 499 LINE SMOOTH",
"244 499 OFFCURVE",
"215 481 OFFCURVE",
"202 445 CURVE",
"202 526 LINE SMOOTH",
"202 539 OFFCURVE",
"210 547 OFFCURVE",
"227 548 CURVE SMOOTH",
"418 567 LINE",
"418 684 LINE",
"182 663 LINE SMOOTH",
"84 654 OFFCURVE",
"35 613 OFFCURVE",
"35 539 CURVE SMOOTH",
"35 124 LINE SMOOTH",
"35 41 OFFCURVE",
"84 0 OFFCURVE",
"182 0 CURVE SMOOTH"
);
},
{
closed = 1;
nodes = (
"208 118 OFFCURVE",
"200 125 OFFCURVE",
"200 140 CURVE SMOOTH",
"200 354 LINE SMOOTH",
"200 374 OFFCURVE",
"209 384 OFFCURVE",
"227 384 CURVE SMOOTH",
"252 384 LINE SMOOTH",
"269 384 OFFCURVE",
"277 377 OFFCURVE",
"277 362 CURVE SMOOTH",
"277 140 LINE SMOOTH",
"277 125 OFFCURVE",
"269 118 OFFCURVE",
"252 118 CURVE SMOOTH",
"225 118 LINE SMOOTH"
);
}
);
width = 479;
}
);
},
{
glyphname = "brevecomb-cy";
lastChange = "2020-01-02 13:10:55 +0000";
layers = (
{
layerId = "72B922C0-AA1F-4D08-9FB7-788394CCB5D9";
paths = (
{
closed = 1;
nodes = (
"267 675 LINE SMOOTH",
"414 675 OFFCURVE",
"414 799 QCURVE",
"414 825 LINE",
"264 825 LINE",
"264 792 LINE",
"264 770 OFFCURVE",
"239 770 QCURVE",
"195 770 LINE",
"170 770 OFFCURVE",
"170 792 QCURVE",
"170 825 LINE",
"20 825 LINE",
"20 799 LINE",
"20 675 OFFCURVE",
"167 675 QCURVE"
);
}
);
width = 434;
}
);
},
{
glyphname = A;
lastChange = "2020-01-03 07:23:48 +0000";
layers = (
{
layerId = "72B922C0-AA1F-4D08-9FB7-788394CCB5D9";
paths = (
{
closed = 1;
nodes = (
"172 0 LINE",
"193 96 LINE",
"347 96 LINE",
"367 0 LINE",
"543 0 LINE",
"378 642 LINE",
"165 642 LINE",
"0 0 LINE"
);
},
{
closed = 1;
nodes = (
"271 451 LINE",
"320 220 LINE",
"220 220 LINE"
);
}
);
userData = {
assembly = "NPUSHB[ ]\011/* 41 values pushed */
10 1 4 2 1 71 0 4 0 0 1 4 0 95 0 2 2 34 72 5 3 2 1 1 35 1 73 0 0 9 8 0 7 0 7 17 17 17 6 6 23 
CALL[ ]\011/* CallFunction */";
};
width = 543;
}
);
note = A;
unicode = 0041;
},
{
glyphname = Aacute;
lastChange = "2020-01-03 07:23:48 +0000";
layers = (
{
layerId = "72B922C0-AA1F-4D08-9FB7-788394CCB5D9";
paths = (
{
closed = 1;
nodes = (
"172 0 LINE",
"193 96 LINE",
"347 96 LINE",
"367 0 LINE",
"543 0 LINE",
"378 642 LINE",
"165 642 LINE",
"0 0 LINE"
);
},
{
closed = 1;
nodes = (
"271 451 LINE",
"320 220 LINE",
"220 220 LINE"
);
},
{
closed = 1;
nodes = (
"341 675 LINE",
"474 825 LINE",
"304 825 LINE",
"207 675 LINE"
);
}
);
userData = {
assembly = "NPUSHB[ ]\011/* 58 values pushed */
10 1 4 2 1 71 8 1 6 0 5 2 6 5 94 0 4 0 0 1 4 0 95 0 2 2 34 72 7 3 2 1 1 35 1 73 11 11 0 0 11 14 11 14 13 12 9 8 0 7 0 7 17 17 17 9 6 23 
CALL[ ]\011/* CallFunction */";
};
width = 543;
}
);
note = Aacute;
unicode = 00C1;
},
{
glyphname = Abreve;
lastChange = "2020-01-03 07:23:48 +0000";
layers = (
{
layerId = "72B922C0-AA1F-4D08-9FB7-788394CCB5D9";
paths = (
{
closed = 1;
nodes = (
"172 0 LINE",
"193 96 LINE",
"347 96 LINE",
"367 0 LINE",
"543 0 LINE",
"378 642 LINE",
"165 642 LINE",
"0 0 LINE"
);
},
{
closed = 1;
nodes = (
"271 451 LINE",
"320 220 LINE",
"220 220 LINE"
);
},
{
closed = 1;
nodes = (
"321 675 LINE SMOOTH",
"468 675 OFFCURVE",
"468 799 QCURVE SMOOTH",
"468 825 LINE",
"318 825 LINE",
"318 792 LINE SMOOTH",
"318 770 OFFCURVE",
"293 770 QCURVE SMOOTH",
"249 770 LINE SMOOTH",
"224 770 OFFCURVE",
"224 792 QCURVE SMOOTH",
"224 825 LINE",
"74 825 LINE",
"74 799 LINE SMOOTH",
"74 675 OFFCURVE",
"221 675 QCURVE SMOOTH"
);
}
);
userData = {
assembly = "PUSHB[ ]\011/* 6 values pushed */
10 1 4 2 1 71 
MPPEM[ ]\011/* MeasurePixelPerEm */
PUSHB[ ]\011/* 1 value pushed */
23 
LT[ ]\011/* LessThan */
IF[ ]\011/* If */
NPUSHB[ ]\011/* 37 values pushed */
8 1 6 7 7 6 99 0 7 10 1 5 2 7 5 97 0 4 0 0 1 4 0 95 0 2 2 34 72 9 3 2 1 1 35 1 73 
ELSE[ ]\011/* Else */
NPUSHB[ ]\011/* 36 values pushed */
8 1 6 7 6 111 0 7 10 1 5 2 7 5 97 0 4 0 0 1 4 0 95 0 2 2 34 72 9 3 2 1 1 35 1 73 
EIF[ ]\011/* EndIf */
NPUSHB[ ]\011/* 26 values pushed */
13 11 0 0 24 23 21 18 16 15 11 26 13 26 9 8 0 7 0 7 17 17 17 11 6 23 
CALL[ ]\011/* CallFunction */";
};
width = 543;
}
);
note = Abreve;
unicode = 0102;
},
{
glyphname = Acircumflex;
lastChange = "2020-01-03 07:23:48 +0000";
layers = (
{
layerId = "72B922C0-AA1F-4D08-9FB7-788394CCB5D9";
paths = (
{
closed = 1;
nodes = (
"172 0 LINE",
"193 96 LINE",
"347 96 LINE",
"367 0 LINE",
"543 0 LINE",
"378 642 LINE",
"165 642 LINE",
"0 0 LINE"
);
},
{
closed = 1;
nodes = (
"271 451 LINE",
"320 220 LINE",
"220 220 LINE"
);
},
{
closed = 1;
nodes = (
"218 675 LINE",
"271 744 LINE",
"324 675 LINE",
"481 675 LINE",
"348 825 LINE",
"194 825 LINE",
"61 675 LINE"
);
}
);
userData = {
assembly = "NPUSHB[ ]\011/* 60 values pushed */
11 1 5 6 10 1 4 2 2 71 0 6 7 1 5 2 6 5 94 0 4 0 0 1 4 0 95 0 2 2 34 72 8 3 2 1 1 35 1 73 0 0 17 16 15 14 13 12 9 8 0 7 0 7 17 17 17 9 6 23 
CALL[ ]\011/* CallFunction */";
};
width = 543;
}
);
note = Acircumflex;
unicode = 00C2;
},
{
glyphname = Adieresis;
lastChange = "2020-01-03 07:23:48 +0000";
layers = (
{
layerId = "72B922C0-AA1F-4D08-9FB7-788394CCB5D9";
paths = (
{
closed = 1;
nodes = (
"172 0 LINE",
"193 96 LINE",
"347 96 LINE",
"367 0 LINE",
"543 0 LINE",
"378 642 LINE",
"165 642 LINE",
"0 0 LINE"
);
},
{
closed = 1;
nodes = (
"271 451 LINE",
"320 220 LINE",
"220 220 LINE"
);
},
{
closed = 1;
nodes = (
"227 675 LINE",
"227 805 LINE",
"75 805 LINE",
"75 675 LINE"
);
},
{
closed = 1;
nodes = (
"467 675 LINE",
"467 805 LINE",
"315 805 LINE",
"315 675 LINE"
);
}
);
userData = {
assembly = "NPUSHB[ ]\011/* 69 values pushed */
10 1 4 2 1 71 11 8 10 3 6 7 1 5 2 6 5 94 0 4 0 0 1 4 0 95 0 2 2 34 72 9 3 2 1 1 35 1 73 15 15 11 11 0 0 15 18 15 18 17 16 11 14 11 14 13 12 9 8 0 7 0 7 17 17 17 12 6 23 
CALL[ ]\011/* CallFunction */";
};
width = 543;
}
);
note = Adieresis;
unicode = 00C4;
},
{
glyphname = Agrave;
lastChange = "2020-01-03 07:23:48 +0000";
layers = (
{
layerId = "72B922C0-AA1F-4D08-9FB7-788394CCB5D9";
paths = (
{
closed = 1;
nodes = (
"172 0 LINE",
"193 96 LINE",
"347 96 LINE",
"367 0 LINE",
"543 0 LINE",
"378 642 LINE",
"165 642 LINE",
"0 0 LINE"
);
},
{
closed = 1;
nodes = (
"271 451 LINE",
"320 220 LINE",
"220 220 LINE"
);
},
{
closed = 1;
nodes = (
"331 675 LINE",
"234 825 LINE",
"64 825 LINE",
"197 675 LINE"
);
}
);
userData = {
assembly = "NPUSHB[ ]\011/* 53 values pushed */
10 1 4 2 1 71 0 6 0 5 2 6 5 94 0 4 0 0 1 4 0 95 0 2 2 34 72 7 3 2 1 1 35 1 73 0 0 14 13 12 11 9 8 0 7 0 7 17 17 17 8 6 23 
CALL[ ]\011/* CallFunction */";
};
width = 543;
}
);
note = Agrave;
unicode = 00C0;
},
{
glyphname = Amacron;
lastChange = "2020-01-03 07:23:48 +0000";
layers = (
{
layerId = "72B922C0-AA1F-4D08-9FB7-788394CCB5D9";
paths = (
{
closed = 1;
nodes = (
"172 0 LINE",
"193 96 LINE",
"347 96 LINE",
"367 0 LINE",
"543 0 LINE",
"378 642 LINE",
"165 642 LINE",
"0 0 LINE"
);
},
{
closed = 1;
nodes = (
"271 451 LINE",
"320 220 LINE",
"220 220 LINE"
);
},
{
closed = 1;
nodes = (
"466 675 LINE",
"466 781 LINE",
"77 781 LINE",
"77 675 LINE"
);
}
);
userData = {
assembly = "NPUSHB[ ]\011/* 58 values pushed */
10 1 4 2 1 71 8 1 6 0 5 2 6 5 94 0 4 0 0 1 4 0 95 0 2 2 34 72 7 3 2 1 1 35 1 73 11 11 0 0 11 14 11 14 13 12 9 8 0 7 0 7 17 17 17 9 6 23 
CALL[ ]\011/* CallFunction */";
};
width = 543;
}
);
note = Amacron;
unicode = 0100;
},
{
glyphname = Aogonek;
lastChange = "2020-01-03 07:23:48 +0000";
layers = (
{
layerId = "72B922C0-AA1F-4D08-9FB7-788394CCB5D9";
paths = (
{
closed = 1;
nodes = (
"563 -274 LINE",
"563 -177 LINE",
"472 -177 LINE SMOOTH",
"451 -177 OFFCURVE",
"451 -159 QCURVE SMOOTH",
"451 -132 LINE SMOOTH",
"451 -114 OFFCURVE",
"472 -114 QCURVE SMOOTH",
"545 -114 LINE",
"545 15 LINE",
"539 15 LINE",
"378 642 LINE",
"165 642 LINE",
"0 0 LINE",
"172 0 LINE",
"193 96 LINE",
"347 96 LINE",
"367 0 LINE",
"454 0 LINE",
"454 -17 LINE",
"448 -17 LINE SMOOTH",
"384 -17 OFFCURVE",
"333 -70 OFFCURVE",
"333 -121 QCURVE SMOOTH",
"333 -169 LINE SMOOTH",
"333 -221 OFFCURVE",
"384 -274 OFFCURVE",
"448 -274 QCURVE SMOOTH"
);
},
{
closed = 1;
nodes = (
"271 451 LINE",
"320 220 LINE",
"220 220 LINE"
);
}
);
userData = {
assembly = "NPUSHB[ ]\011/* 76 values pushed */
30 1 8 6 20 1 3 4 2 71 0 2 3 7 3 2 7 109 0 8 0 4 3 8 4 95 9 1 0 0 1 0 1 93 0 6 6 34 72 5 1 3 3 35 72 0 7 7 39 7 73 1 0 29 28 24 22 19 18 17 16 15 14 13 12 10 9 4 2 0 27 1 27 10 6 20 
CALL[ ]\011/* CallFunction */";
};
width = 543;
}
);
note = Aogonek;
unicode = 0104;
},
{
glyphname = Aring;
lastChange = "2020-01-03 07:23:48 +0000";
layers = (
{
layerId = "72B922C0-AA1F-4D08-9FB7-788394CCB5D9";
paths = (
{
closed = 1;
nodes = (
"172 0 LINE",
"193 96 LINE",
"347 96 LINE",
"367 0 LINE",
"543 0 LINE",
"378 642 LINE",
"165 642 LINE",
"0 0 LINE"
);
},
{
closed = 1;
nodes = (
"271 451 LINE",
"320 220 LINE",
"220 220 LINE"
);
},
{
closed = 1;
nodes = (
"315 674 LINE SMOOTH",
"417 674 OFFCURVE",
"417 763 QCURVE SMOOTH",
"417 779 LINE SMOOTH",
"417 869 OFFCURVE",
"315 869 QCURVE SMOOTH",
"229 869 LINE SMOOTH",
"127 869 OFFCURVE",
"127 779 QCURVE SMOOTH",
"127 763 LINE SMOOTH",
"127 674 OFFCURVE",
"229 674 QCURVE SMOOTH"
);
},
{
closed = 1;
nodes = (
"233 745 OFFCURVE",
"233 764 QCURVE SMOOTH",
"233 778 LINE SMOOTH",
"233 797 OFFCURVE",
"253 797 QCURVE SMOOTH",
"291 797 LINE SMOOTH",
"311 797 OFFCURVE",
"311 778 QCURVE SMOOTH",
"311 764 LINE SMOOTH",
"311 745 OFFCURVE",
"291 745 QCURVE SMOOTH",
"253 745 LINE SMOOTH"
);
}
);
userData = {
assembly = "NPUSHB[ ]\011/* 70 values pushed */
10 1 4 2 1 71 0 6 0 8 7 6 8 96 0 7 10 1 5 2 7 5 96 0 4 0 0 1 4 0 95 0 2 2 34 72 9 3 2 1 1 35 1 73 13 11 0 0 34 31 28 25 19 16 11 22 13 22 9 8 0 7 0 7 17 17 17 11 6 23 
CALL[ ]\011/* CallFunction */";
};
width = 543;
}
);
note = Aring;
unicode = 00C5;
},
{
glyphname = Atilde;
lastChange = "2020-01-03 07:23:48 +0000";
layers = (
{
layerId = "72B922C0-AA1F-4D08-9FB7-788394CCB5D9";
paths = (
{
closed = 1;
nodes = (
"172 0 LINE",
"193 96 LINE",
"347 96 LINE",
"367 0 LINE",
"543 0 LINE",
"378 642 LINE",
"165 642 LINE",
"0 0 LINE"
);
},
{
closed = 1;
nodes = (
"271 451 LINE",
"320 220 LINE",
"220 220 LINE"
);
},
{
closed = 1;
nodes = (
"198 675 LINE",
"198 706 LINE SMOOTH",
"198 727 OFFCURVE",
"216 727 QCURVE SMOOTH",
"222 727 OFFCURVE",
"304 675 OFFCURVE",
"338 675 QCURVE SMOOTH",
"355 675 LINE SMOOTH",
"410 675 OFFCURVE",
"456 719 OFFCURVE",
"456 765 QCURVE SMOOTH",
"456 825 LINE",
"321 825 LINE",
"321 794 LINE SMOOTH",
"321 773 OFFCURVE",
"303 773 QCURVE SMOOTH",
"297 773 OFFCURVE",
"215 825 OFFCURVE",
"181 825 QCURVE SMOOTH",
"162 825 LINE SMOOTH",
"108 825 OFFCURVE",
"63 777 OFFCURVE",
"63 730 QCURVE SMOOTH",
"63 675 LINE"
);
}
);
userData = {
assembly = "PUSHB[ ]\011/* 6 values pushed */
10 1 4 2 1 71 
MPPEM[ ]\011/* MeasurePixelPerEm */
PUSHB[ ]\011/* 1 value pushed */
23 
LT[ ]\011/* LessThan */
IF[ ]\011/* If */
NPUSHB[ ]\011/* 44 values pushed */
0 7 6 10 6 7 101 0 10 5 5 10 99 8 1 6 9 1 5 2 6 5 96 0 4 0 0 1 4 0 95 0 2 2 34 72 11 3 2 1 1 35 1 73 
ELSE[ ]\011/* Else */
NPUSHB[ ]\011/* 46 values pushed */
0 7 6 10 6 7 10 109 0 10 5 6 10 5 107 8 1 6 9 1 5 2 6 5 96 0 4 0 0 1 4 0 95 0 2 2 34 72 11 3 2 1 1 35 1 73 
EIF[ ]\011/* EndIf */
NPUSHB[ ]\011/* 26 values pushed */
0 0 34 32 31 28 25 24 22 20 19 16 13 12 9 8 0 7 0 7 17 17 17 12 6 23 
CALL[ ]\011/* CallFunction */";
};
width = 543;
}
);
note = Atilde;
unicode = 00C3;
},
{
glyphname = AE;
lastChange = "2020-01-03 07:23:48 +0000";
layers = (
{
layerId = "72B922C0-AA1F-4D08-9FB7-788394CCB5D9";
paths = (
{
closed = 1;
nodes = (
"172 0 LINE",
"215 115 LINE",
"369 115 LINE",
"369 0 LINE",
"753 0 LINE",
"753 125 LINE",
"534 125 LINE",
"534 261 LINE",
"715 261 LINE",
"715 386 LINE",
"534 386 LINE",
"534 517 LINE",
"744 517 LINE",
"744 642 LINE",
"255 642 LINE",
"0 0 LINE"
);
},
{
closed = 1;
nodes = (
"369 531 LINE",
"369 235 LINE",
"259 235 LINE"
);
}
);
userData = {
assembly = "NPUSHB[ ]\011/* 62 values pushed */
17 1 5 4 1 71 0 6 0 7 8 6 7 94 9 1 8 0 2 1 8 2 94 0 5 5 4 86 0 4 4 34 72 0 0 0 1 86 3 1 1 1 35 1 73 16 16 16 18 16 18 17 17 17 17 17 17 17 16 10 6 28 
CALL[ ]\011/* CallFunction */";
};
width = 770;
}
);
note = AE;
unicode = 00C6;
},
{
glyphname = B;
lastChange = "2020-01-03 07:23:48 +0000";
layers = (
{
layerId = "72B922C0-AA1F-4D08-9FB7-788394CCB5D9";
paths = (
{
closed = 1;
nodes = (
"334 0 LINE SMOOTH",
"432 0 OFFCURVE",
"481 41 OFFCURVE",
"481 124 CURVE SMOOTH",
"481 220 LINE SMOOTH",
"481 276 OFFCURVE",
"470 307 OFFCURVE",
"433 323 CURVE",
"465 340 OFFCURVE",
"481 378 OFFCURVE",
"481 436 CURVE SMOOTH",
"481 518 LINE SMOOTH",
"481 601 OFFCURVE",
"432 642 OFFCURVE",
"334 642 CURVE SMOOTH",
"40 642 LINE",
"40 0 LINE"
);
},
{
closed = 1;
nodes = (
"212 264 LINE",
"284 264 LINE SMOOTH",
"301 264 OFFCURVE",
"309 257 OFFCURVE",
"309 242 CURVE SMOOTH",
"309 137 LINE SMOOTH",
"309 122 OFFCURVE",
"301 115 OFFCURVE",
"284 115 CURVE SMOOTH",
"212 115 LINE"
);
},
{
closed = 1;
nodes = (
"212 527 LINE",
"284 527 LINE SMOOTH",
"301 527 OFFCURVE",
"309 520 OFFCURVE",
"309 505 CURVE SMOOTH",
"309 401 LINE SMOOTH",
"309 386 OFFCURVE",
"301 379 OFFCURVE",
"284 379 CURVE SMOOTH",
"212 379 LINE"
);
}
);
userData = {
assembly = "NPUSHB[ ]\011/* 44 values pushed */
22 1 2 1 1 71 0 1 0 2 3 1 2 96 0 0 0 4 88 0 4 4 34 72 0 3 3 5 88 0 5 5 35 5 73 41 33 33 35 33 34 6 6 26 
CALL[ ]\011/* CallFunction */";
};
width = 516;
}
);
note = B;
unicode = 0042;
},
{
glyphname = C;
lastChange = "2020-01-03 07:23:48 +0000";
layers = (
{
layerId = "72B922C0-AA1F-4D08-9FB7-788394CCB5D9";
paths = (
{
closed = 1;
nodes = (
"325 0 LINE SMOOTH",
"423 0 OFFCURVE",
"472 41 OFFCURVE",
"472 124 CURVE SMOOTH",
"472 236 LINE",
"297 236 LINE",
"297 137 LINE SMOOTH",
"297 122 OFFCURVE",
"289 115 OFFCURVE",
"272 115 CURVE SMOOTH",
"237 115 LINE SMOOTH",
"220 115 OFFCURVE",
"212 122 OFFCURVE",
"212 137 CURVE SMOOTH",
"212 505 LINE SMOOTH",
"212 520 OFFCURVE",
"220 527 OFFCURVE",
"237 527 CURVE SMOOTH",
"272 527 LINE SMOOTH",
"289 527 OFFCURVE",
"297 520 OFFCURVE",
"297 505 CURVE SMOOTH",
"297 402 LINE",
"472 402 LINE",
"472 518 LINE SMOOTH",
"472 601 OFFCURVE",
"423 642 OFFCURVE",
"325 642 CURVE SMOOTH",
"184 642 LINE SMOOTH",
"86 642 OFFCURVE",
"37 601 OFFCURVE",
"37 518 CURVE SMOOTH",
"37 124 LINE SMOOTH",
"37 41 OFFCURVE",
"86 0 OFFCURVE",
"184 0 CURVE SMOOTH"
);
}
);
userData = {
assembly = "MPPEM[ ]\011/* MeasurePixelPerEm */
PUSHB[ ]\011/* 1 value pushed */
9 
LT[ ]\011/* LessThan */
IF[ ]\011/* If */
NPUSHB[ ]\011/* 34 values pushed */
0 0 1 3 1 0 101 0 3 2 2 3 99 0 1 1 5 88 0 5 5 34 72 0 2 2 4 89 0 4 4 35 4 73 
ELSE[ ]\011/* Else */
MPPEM[ ]\011/* MeasurePixelPerEm */
PUSHB[ ]\011/* 1 value pushed */
11 
LT[ ]\011/* LessThan */
IF[ ]\011/* If */
NPUSHB[ ]\011/* 35 values pushed */
0 0 1 3 1 0 3 109 0 3 2 2 3 99 0 1 1 5 88 0 5 5 34 72 0 2 2 4 89 0 4 4 35 4 73 
ELSE[ ]\011/* Else */
NPUSHB[ ]\011/* 36 values pushed */
0 0 1 3 1 0 3 109 0 3 2 1 3 2 107 0 1 1 5 88 0 5 5 34 72 0 2 2 4 89 0 4 4 35 4 73 
EIF[ ]\011/* EndIf */
EIF[ ]\011/* EndIf */
NPUSHB[ ]\011/* 9 values pushed */
51 50 18 51 50 16 6 6 26 
CALL[ ]\011/* CallFunction */";
};
width = 497;
}
);
note = C;
unicode = 0043;
},
{
glyphname = Cacute;
lastChange = "2020-01-03 07:23:48 +0000";
layers = (
{
layerId = "72B922C0-AA1F-4D08-9FB7-788394CCB5D9";
paths = (
{
closed = 1;
nodes = (
"325 0 LINE SMOOTH",
"423 0 OFFCURVE",
"472 41 OFFCURVE",
"472 124 CURVE SMOOTH",
"472 236 LINE",
"297 236 LINE",
"297 137 LINE SMOOTH",
"297 122 OFFCURVE",
"289 115 OFFCURVE",
"272 115 CURVE SMOOTH",
"237 115 LINE SMOOTH",
"220 115 OFFCURVE",
"212 122 OFFCURVE",
"212 137 CURVE SMOOTH",
"212 505 LINE SMOOTH",
"212 520 OFFCURVE",
"220 527 OFFCURVE",
"237 527 CURVE SMOOTH",
"272 527 LINE SMOOTH",
"289 527 OFFCURVE",
"297 520 OFFCURVE",
"297 505 CURVE SMOOTH",
"297 402 LINE",
"472 402 LINE",
"472 518 LINE SMOOTH",
"472 601 OFFCURVE",
"423 642 OFFCURVE",
"325 642 CURVE SMOOTH",
"184 642 LINE SMOOTH",
"86 642 OFFCURVE",
"37 601 OFFCURVE",
"37 518 CURVE SMOOTH",
"37 124 LINE SMOOTH",
"37 41 OFFCURVE",
"86 0 OFFCURVE",
"184 0 CURVE SMOOTH"
);
},
{
closed = 1;
nodes = (
"319 675 LINE",
"452 825 LINE",
"282 825 LINE",
"185 675 LINE"
);
}
);
userData = {
assembly = "MPPEM[ ]\011/* MeasurePixelPerEm */
PUSHB[ ]\011/* 1 value pushed */
9 
LT[ ]\011/* LessThan */
IF[ ]\011/* If */
NPUSHB[ ]\011/* 43 values pushed */
0 0 1 3 1 0 101 0 3 2 2 3 99 8 1 7 0 6 5 7 6 94 0 1 1 5 88 0 5 5 34 72 0 2 2 4 89 0 4 4 35 4 73 
ELSE[ ]\011/* Else */
MPPEM[ ]\011/* MeasurePixelPerEm */
PUSHB[ ]\011/* 1 value pushed */
11 
LT[ ]\011/* LessThan */
IF[ ]\011/* If */
NPUSHB[ ]\011/* 44 values pushed */
0 0 1 3 1 0 3 109 0 3 2 2 3 99 8 1 7 0 6 5 7 6 94 0 1 1 5 88 0 5 5 34 72 0 2 2 4 89 0 4 4 35 4 73 
ELSE[ ]\011/* Else */
NPUSHB[ ]\011/* 45 values pushed */
0 0 1 3 1 0 3 109 0 3 2 1 3 2 107 8 1 7 0 6 5 7 6 94 0 1 1 5 88 0 5 5 34 72 0 2 2 4 89 0 4 4 35 4 73 
EIF[ ]\011/* EndIf */
EIF[ ]\011/* EndIf */
NPUSHB[ ]\011/* 16 values pushed */
28 28 28 31 28 31 19 51 50 18 51 50 16 9 6 27 
CALL[ ]\011/* CallFunction */";
};
width = 497;
}
);
note = Cacute;
unicode = 0106;
},
{
glyphname = Ccaron;
lastChange = "2020-01-03 07:23:48 +0000";
layers = (
{
layerId = "72B922C0-AA1F-4D08-9FB7-788394CCB5D9";
paths = (
{
closed = 1;
nodes = (
"325 0 LINE SMOOTH",
"423 0 OFFCURVE",
"472 41 OFFCURVE",
"472 124 CURVE SMOOTH",
"472 236 LINE",
"297 236 LINE",
"297 137 LINE SMOOTH",
"297 122 OFFCURVE",
"289 115 OFFCURVE",
"272 115 CURVE SMOOTH",
"237 115 LINE SMOOTH",
"220 115 OFFCURVE",
"212 122 OFFCURVE",
"212 137 CURVE SMOOTH",
"212 505 LINE SMOOTH",
"212 520 OFFCURVE",
"220 527 OFFCURVE",
"237 527 CURVE SMOOTH",
"272 527 LINE SMOOTH",
"289 527 OFFCURVE",
"297 520 OFFCURVE",
"297 505 CURVE SMOOTH",
"297 402 LINE",
"472 402 LINE",
"472 518 LINE SMOOTH",
"472 601 OFFCURVE",
"423 642 OFFCURVE",
"325 642 CURVE SMOOTH",
"184 642 LINE SMOOTH",
"86 642 OFFCURVE",
"37 601 OFFCURVE",
"37 518 CURVE SMOOTH",
"37 124 LINE SMOOTH",
"37 41 OFFCURVE",
"86 0 OFFCURVE",
"184 0 CURVE SMOOTH"
);
},
{
closed = 1;
nodes = (
"329 675 LINE",
"462 825 LINE",
"305 825 LINE",
"252 756 LINE",
"199 825 LINE",
"42 825 LINE",
"175 675 LINE"
);
}
);
userData = {
assembly = "PUSHB[ ]\011/* 6 values pushed */
32 1 6 7 1 71 
MPPEM[ ]\011/* MeasurePixelPerEm */
PUSHB[ ]\011/* 1 value pushed */
9 
LT[ ]\011/* LessThan */
IF[ ]\011/* If */
NPUSHB[ ]\011/* 43 values pushed */
0 0 1 3 1 0 101 0 3 2 2 3 99 8 1 7 0 6 5 7 6 94 0 1 1 5 88 0 5 5 34 72 0 2 2 4 89 0 4 4 35 4 73 
ELSE[ ]\011/* Else */
MPPEM[ ]\011/* MeasurePixelPerEm */
PUSHB[ ]\011/* 1 value pushed */
11 
LT[ ]\011/* LessThan */
IF[ ]\011/* If */
NPUSHB[ ]\011/* 44 values pushed */
0 0 1 3 1 0 3 109 0 3 2 2 3 99 8 1 7 0 6 5 7 6 94 0 1 1 5 88 0 5 5 34 72 0 2 2 4 89 0 4 4 35 4 73 
ELSE[ ]\011/* Else */
NPUSHB[ ]\011/* 45 values pushed */
0 0 1 3 1 0 3 109 0 3 2 1 3 2 107 8 1 7 0 6 5 7 6 94 0 1 1 5 88 0 5 5 34 72 0 2 2 4 89 0 4 4 35 4 73 
EIF[ ]\011/* EndIf */
EIF[ ]\011/* EndIf */
NPUSHB[ ]\011/* 12 values pushed */
18 17 18 51 50 18 51 50 16 9 6 29 
CALL[ ]\011/* CallFunction */";
};
width = 497;
}
);
note = Ccaron;
unicode = 010C;
},
{
glyphname = Ccedilla;
lastChange = "2020-01-03 07:23:48 +0000";
layers = (
{
layerId = "72B922C0-AA1F-4D08-9FB7-788394CCB5D9";
paths = (
{
closed = 1;
nodes = (
"325 0 LINE SMOOTH",
"423 0 OFFCURVE",
"472 41 OFFCURVE",
"472 124 CURVE SMOOTH",
"472 236 LINE",
"297 236 LINE",
"297 137 LINE SMOOTH",
"297 122 OFFCURVE",
"289 115 OFFCURVE",
"272 115 CURVE SMOOTH",
"237 115 LINE SMOOTH",
"220 115 OFFCURVE",
"212 122 OFFCURVE",
"212 137 CURVE SMOOTH",
"212 505 LINE SMOOTH",
"212 520 OFFCURVE",
"220 527 OFFCURVE",
"237 527 CURVE SMOOTH",
"272 527 LINE SMOOTH",
"289 527 OFFCURVE",
"297 520 OFFCURVE",
"297 505 CURVE SMOOTH",
"297 402 LINE",
"472 402 LINE",
"472 518 LINE SMOOTH",
"472 601 OFFCURVE",
"423 642 OFFCURVE",
"325 642 CURVE SMOOTH",
"184 642 LINE SMOOTH",
"86 642 OFFCURVE",
"37 601 OFFCURVE",
"37 518 CURVE SMOOTH",
"37 124 LINE SMOOTH",
"37 41 OFFCURVE",
"86 0 OFFCURVE",
"184 0 CURVE SMOOTH"
);
},
{
closed = 1;
nodes = (
"185 -260 LINE SMOOTH",
"283 -260 OFFCURVE",
"332 -219 OFFCURVE",
"332 -136 CURVE SMOOTH",
"332 -46 LINE",
"172 -46 LINE",
"172 -123 LINE SMOOTH",
"172 -138 OFFCURVE",
"164 -145 OFFCURVE",
"147 -145 CURVE SMOOTH",
"94 -145 LINE",
"94 -260 LINE"
);
}
);
userData = {
assembly = "MPPEM[ ]\011/* MeasurePixelPerEm */
PUSHB[ ]\011/* 1 value pushed */
9 
LT[ ]\011/* LessThan */
IF[ ]\011/* If */
NPUSHB[ ]\011/* 48 values pushed */
0 0 1 3 1 0 101 0 3 2 2 3 99 0 6 4 8 8 6 101 0 8 0 7 8 7 93 0 1 1 5 88 0 5 5 34 72 0 2 2 4 89 0 4 4 35 4 73 
ELSE[ ]\011/* Else */
MPPEM[ ]\011/* MeasurePixelPerEm */
PUSHB[ ]\011/* 1 value pushed */
11 
LT[ ]\011/* LessThan */
IF[ ]\011/* If */
NPUSHB[ ]\011/* 49 values pushed */
0 0 1 3 1 0 3 109 0 3 2 2 3 99 0 6 4 8 8 6 101 0 8 0 7 8 7 93 0 1 1 5 88 0 5 5 34 72 0 2 2 4 89 0 4 4 35 4 73 
ELSE[ ]\011/* Else */
MPPEM[ ]\011/* MeasurePixelPerEm */
PUSHB[ ]\011/* 1 value pushed */
13 
LT[ ]\011/* LessThan */
IF[ ]\011/* If */
NPUSHB[ ]\011/* 50 values pushed */
0 0 1 3 1 0 3 109 0 3 2 1 3 2 107 0 6 4 8 8 6 101 0 8 0 7 8 7 93 0 1 1 5 88 0 5 5 34 72 0 2 2 4 89 0 4 4 35 4 73 
ELSE[ ]\011/* Else */
NPUSHB[ ]\011/* 51 values pushed */
0 0 1 3 1 0 3 109 0 3 2 1 3 2 107 0 6 4 8 4 6 8 109 0 8 0 7 8 7 93 0 1 1 5 88 0 5 5 34 72 0 2 2 4 89 0 4 4 35 4 73 
EIF[ ]\011/* EndIf */
EIF[ ]\011/* EndIf */
EIF[ ]\011/* EndIf */
NPUSHB[ ]\011/* 12 values pushed */
33 34 19 51 50 18 51 50 16 9 6 29 
CALL[ ]\011/* CallFunction */";
};
width = 497;
}
);
note = Ccedilla;
unicode = 00C7;
},
{
glyphname = D;
lastChange = "2020-01-03 07:23:48 +0000";
layers = (
{
layerId = "72B922C0-AA1F-4D08-9FB7-788394CCB5D9";
paths = (
{
closed = 1;
nodes = (
"335 0 LINE SMOOTH",
"433 0 OFFCURVE",
"482 41 OFFCURVE",
"482 124 CURVE SMOOTH",
"482 518 LINE SMOOTH",
"482 601 OFFCURVE",
"433 642 OFFCURVE",
"335 642 CURVE SMOOTH",
"40 642 LINE",
"40 0 LINE"
);
},
{
closed = 1;
nodes = (
"215 527 LINE",
"282 527 LINE SMOOTH",
"299 527 OFFCURVE",
"307 520 OFFCURVE",
"307 505 CURVE SMOOTH",
"307 137 LINE SMOOTH",
"307 122 OFFCURVE",
"299 115 OFFCURVE",
"282 115 CURVE SMOOTH",
"215 115 LINE"
);
}
);
userData = {
assembly = "NPUSHB[ ]\011/* 28 values pushed */
0 2 2 0 88 0 0 0 34 72 0 3 3 1 88 0 1 1 35 1 73 33 35 35 32 4 6 24 
CALL[ ]\011/* CallFunction */";
};
width = 519;
}
);
note = D;
unicode = 0044;
},
{
glyphname = Eth;
lastChange = "2020-01-03 07:23:48 +0000";
layers = (
{
layerId = "72B922C0-AA1F-4D08-9FB7-788394CCB5D9";
paths = (
{
closed = 1;
nodes = (
"345 0 LINE SMOOTH",
"443 0 OFFCURVE",
"492 41 OFFCURVE",
"492 124 CURVE SMOOTH",
"492 518 LINE SMOOTH",
"492 601 OFFCURVE",
"443 642 OFFCURVE",
"345 642 CURVE SMOOTH",
"50 642 LINE",
"50 384 LINE",
"-5 384 LINE",
"-5 269 LINE",
"50 269 LINE",
"50 0 LINE"
);
},
{
closed = 1;
nodes = (
"225 269 LINE",
"280 269 LINE",
"280 384 LINE",
"225 384 LINE",
"225 527 LINE",
"292 527 LINE SMOOTH",
"309 527 OFFCURVE",
"317 520 OFFCURVE",
"317 505 CURVE SMOOTH",
"317 137 LINE SMOOTH",
"317 122 OFFCURVE",
"309 115 OFFCURVE",
"292 115 CURVE SMOOTH",
"225 115 LINE"
);
}
);
userData = {
assembly = "NPUSHB[ ]\011/* 42 values pushed */
5 1 3 6 1 2 7 3 2 94 0 4 4 0 88 0 0 0 34 72 0 7 7 1 88 0 1 1 35 1 73 33 17 17 35 17 17 35 32 8 6 28 
CALL[ ]\011/* CallFunction */";
};
width = 527;
}
);
note = Eth;
unicode = 00D0;
},
{
glyphname = Dcaron;
lastChange = "2020-01-03 07:23:48 +0000";
layers = (
{
layerId = "72B922C0-AA1F-4D08-9FB7-788394CCB5D9";
paths = (
{
closed = 1;
nodes = (
"345 0 LINE SMOOTH",
"443 0 OFFCURVE",
"492 41 OFFCURVE",
"492 124 CURVE SMOOTH",
"492 518 LINE SMOOTH",
"492 601 OFFCURVE",
"443 642 OFFCURVE",
"345 642 CURVE SMOOTH",
"50 642 LINE",
"50 0 LINE"
);
},
{
closed = 1;
nodes = (
"225 527 LINE",
"292 527 LINE SMOOTH",
"309 527 OFFCURVE",
"317 520 OFFCURVE",
"317 505 CURVE SMOOTH",
"317 137 LINE SMOOTH",
"317 122 OFFCURVE",
"309 115 OFFCURVE",
"292 115 CURVE SMOOTH",
"225 115 LINE"
);
},
{
closed = 1;
nodes = (
"337 675 LINE",
"470 825 LINE",
"313 825 LINE",
"260 756 LINE",
"207 825 LINE",
"50 825 LINE",
"183 675 LINE"
);
}
);
userData = {
assembly = "NPUSHB[ ]\011/* 46 values pushed */
20 1 4 5 1 71 6 1 5 0 4 0 5 4 94 0 2 2 0 88 0 0 0 34 72 0 3 3 1 88 0 1 1 35 1 73 18 17 17 33 35 35 32 7 6 27 
CALL[ ]\011/* CallFunction */";
};
width = 529;
}
);
note = Dcaron;
unicode = 010E;
},
{
glyphname = Dcroat;
lastChange = "2020-01-03 07:23:48 +0000";
layers = (
{
layerId = "72B922C0-AA1F-4D08-9FB7-788394CCB5D9";
paths = (
{
closed = 1;
nodes = (
"345 0 LINE SMOOTH",
"492 0 OFFCURVE",
"492 124 QCURVE SMOOTH",
"492 518 LINE SMOOTH",
"492 642 OFFCURVE",
"345 642 QCURVE SMOOTH",
"50 642 LINE",
"50 384 LINE",
"-5 384 LINE",
"-5 269 LINE",
"50 269 LINE",
"50 0 LINE"
);
},
{
closed = 1;
nodes = (
"225 269 LINE",
"280 269 LINE",
"280 384 LINE",
"225 384 LINE",
"225 517 LINE",
"292 517 LINE SMOOTH",
"317 517 OFFCURVE",
"317 495 QCURVE SMOOTH",
"317 147 LINE SMOOTH",
"317 125 OFFCURVE",
"292 125 QCURVE SMOOTH",
"225 125 LINE"
);
}
);
userData = {
assembly = "NPUSHB[ ]\011/* 42 values pushed */
5 1 3 6 1 2 7 3 2 94 0 4 4 0 88 0 0 0 34 72 0 7 7 1 88 0 1 1 35 1 73 33 17 17 35 17 17 35 32 8 6 28 
CALL[ ]\011/* CallFunction */";
};
width = 529;
}
);
note = Dcroat;
unicode = 0110;
},
{
glyphname = E;
lastChange = "2020-01-03 07:23:48 +0000";
layers = (
{
layerId = "72B922C0-AA1F-4D08-9FB7-788394CCB5D9";
paths = (
{
closed = 1;
nodes = (
"434 0 LINE",
"434 125 LINE",
"215 125 LINE",
"215 261 LINE",
"396 261 LINE",
"396 386 LINE",
"215 386 LINE",
"215 517 LINE",
"425 517 LINE",
"425 642 LINE",
"40 642 LINE",
"40 0 LINE"
);
}
);
userData = {
assembly = "NPUSHB[ ]\011/* 38 values pushed */
0 4 0 5 0 4 5 94 0 3 3 2 86 0 2 2 34 72 0 0 0 1 86 0 1 1 35 1 73 17 17 17 17 17 16 6 6 26 
CALL[ ]\011/* CallFunction */";
};
width = 449;
}
);
note = E;
unicode = 0045;
},
{
glyphname = Eacute;
lastChange = "2020-01-03 07:23:48 +0000";
layers = (
{
layerId = "72B922C0-AA1F-4D08-9FB7-788394CCB5D9";
paths = (
{
closed = 1;
nodes = (
"434 0 LINE",
"434 125 LINE",
"215 125 LINE",
"215 261 LINE",
"396 261 LINE",
"396 386 LINE",
"215 386 LINE",
"215 517 LINE",
"425 517 LINE",
"425 642 LINE",
"40 642 LINE",
"40 0 LINE"
);
},
{
closed = 1;
nodes = (
"299 675 LINE",
"432 825 LINE",
"262 825 LINE",
"165 675 LINE"
);
}
);
userData = {
assembly = "NPUSHB[ ]\011/* 54 values pushed */
8 1 7 0 6 2 7 6 94 0 4 0 5 0 4 5 94 0 3 3 2 86 0 2 2 34 72 0 0 0 1 86 0 1 1 35 1 73 12 12 12 15 12 15 18 17 17 17 17 17 16 9 6 27 
CALL[ ]\011/* CallFunction */";
};
width = 449;
}
);
note = Eacute;
unicode = 00C9;
},
{
glyphname = Ecaron;
lastChange = "2020-01-03 07:23:48 +0000";
layers = (
{
layerId = "72B922C0-AA1F-4D08-9FB7-788394CCB5D9";
paths = (
{
closed = 1;
nodes = (
"434 0 LINE",
"434 125 LINE",
"215 125 LINE",
"215 261 LINE",
"396 261 LINE",
"396 386 LINE",
"215 386 LINE",
"215 517 LINE",
"425 517 LINE",
"425 642 LINE",
"40 642 LINE",
"40 0 LINE"
);
},
{
closed = 1;
nodes = (
"316 675 LINE",
"449 825 LINE",
"292 825 LINE",
"239 756 LINE",
"186 825 LINE",
"29 825 LINE",
"162 675 LINE"
);
}
);
userData = {
assembly = "NPUSHB[ ]\011/* 65 values pushed */
16 1 6 7 1 71 8 1 7 0 6 2 7 6 94 0 4 9 1 5 0 4 5 94 0 3 3 2 86 0 2 2 34 72 0 0 0 1 86 0 1 1 35 1 73 0 0 18 17 15 14 13 12 0 11 0 11 17 17 17 17 17 10 6 25 
CALL[ ]\011/* CallFunction */";
};
width = 449;
}
);
note = Ecaron;
unicode = 011A;
},
{
glyphname = Ecircumflex;
lastChange = "2020-01-03 07:23:48 +0000";
layers = (
{
layerId = "72B922C0-AA1F-4D08-9FB7-788394CCB5D9";
paths = (
{
closed = 1;
nodes = (
"434 0 LINE",
"434 125 LINE",
"215 125 LINE",
"215 261 LINE",
"396 261 LINE",
"396 386 LINE",
"215 386 LINE",
"215 517 LINE",
"425 517 LINE",
"425 642 LINE",
"40 642 LINE",
"40 0 LINE"
);
},
{
closed = 1;
nodes = (
"183 675 LINE",
"236 744 LINE",
"289 675 LINE",
"446 675 LINE",
"313 825 LINE",
"159 825 LINE",
"26 675 LINE"
);
}
);
userData = {
assembly = "NPUSHB[ ]\011/* 65 values pushed */
12 1 6 7 1 71 0 7 8 1 6 2 7 6 94 0 4 9 1 5 0 4 5 94 0 3 3 2 86 0 2 2 34 72 0 0 0 1 86 0 1 1 35 1 73 0 0 18 17 16 15 14 13 0 11 0 11 17 17 17 17 17 10 6 25 
CALL[ ]\011/* CallFunction */";
};
width = 449;
}
);
note = Ecircumflex;
unicode = 00CA;
},
{
glyphname = Edieresis;
lastChange = "2020-01-03 07:23:48 +0000";
layers = (
{
layerId = "72B922C0-AA1F-4D08-9FB7-788394CCB5D9";
paths = (
{
closed = 1;
nodes = (
"434 0 LINE",
"434 125 LINE",
"215 125 LINE",
"215 261 LINE",
"396 261 LINE",
"396 386 LINE",
"215 386 LINE",
"215 517 LINE",
"425 517 LINE",
"425 642 LINE",
"40 642 LINE",
"40 0 LINE"
);
},
{
closed = 1;
nodes = (
"190 675 LINE",
"190 805 LINE",
"38 805 LINE",
"38 675 LINE"
);
},
{
closed = 1;
nodes = (
"430 675 LINE",
"430 805 LINE",
"278 805 LINE",
"278 675 LINE"
);
}
);
userData = {
assembly = "NPUSHB[ ]\011/* 65 values pushed */
11 9 10 3 7 8 1 6 2 7 6 94 0 4 0 5 0 4 5 94 0 3 3 2 86 0 2 2 34 72 0 0 0 1 86 0 1 1 35 1 73 16 16 12 12 16 19 16 19 18 17 12 15 12 15 18 17 17 17 17 17 16 12 6 27 
CALL[ ]\011/* CallFunction */";
};
width = 500;
}
);
note = Edieresis;
unicode = 00CB;
},
{
glyphname = Edotaccent;
lastChange = "2020-01-03 07:23:48 +0000";
layers = (
{
layerId = "72B922C0-AA1F-4D08-9FB7-788394CCB5D9";
paths = (
{
closed = 1;
nodes = (
"434 0 LINE",
"434 125 LINE",
"215 125 LINE",
"215 261 LINE",
"396 261 LINE",
"396 386 LINE",
"215 386 LINE",
"215 517 LINE",
"425 517 LINE",
"425 642 LINE",
"40 642 LINE",
"40 0 LINE"
);
},
{
closed = 1;
nodes = (
"320 675 LINE",
"320 805 LINE",
"158 805 LINE",
"158 675 LINE"
);
}
);
userData = {
assembly = "NPUSHB[ ]\011/* 54 values pushed */
8 1 7 0 6 2 7 6 94 0 4 0 5 0 4 5 94 0 3 3 2 86 0 2 2 34 72 0 0 0 1 86 0 1 1 35 1 73 12 12 12 15 12 15 18 17 17 17 17 17 16 9 6 27 
CALL[ ]\011/* CallFunction */";
};
width = 449;
}
);
note = Edotaccent;
unicode = 0116;
},
{
glyphname = Egrave;
lastChange = "2020-01-03 07:23:48 +0000";
layers = (
{
guideLines = (
{
angle = 90;
position = "{40, 642}";
}
);
layerId = "72B922C0-AA1F-4D08-9FB7-788394CCB5D9";
paths = (
{
closed = 1;
nodes = (
"434 0 LINE",
"434 125 LINE",
"215 125 LINE",
"215 261 LINE",
"396 261 LINE",
"396 386 LINE",
"215 386 LINE",
"215 517 LINE",
"425 517 LINE",
"425 642 LINE",
"40 642 LINE",
"40 0 LINE"
);
},
{
closed = 1;
nodes = (
"302 675 LINE",
"205 825 LINE",
"35 825 LINE",
"168 675 LINE"
);
}
);
userData = {
assembly = "NPUSHB[ ]\011/* 48 values pushed */
0 7 0 6 2 7 6 94 0 4 0 5 0 4 5 94 0 3 3 2 86 0 2 2 34 72 0 0 0 1 86 0 1 1 35 1 73 17 17 17 17 17 17 17 16 8 6 28 
CALL[ ]\011/* CallFunction */";
};
width = 449;
}
);
note = Egrave;
unicode = 00C8;
},
{
glyphname = Emacron;
lastChange = "2020-01-03 07:23:48 +0000";
layers = (
{
layerId = "72B922C0-AA1F-4D08-9FB7-788394CCB5D9";
paths = (
{
closed = 1;
nodes = (
"434 0 LINE",
"434 125 LINE",
"215 125 LINE",
"215 261 LINE",
"396 261 LINE",
"396 386 LINE",
"215 386 LINE",
"215 517 LINE",
"425 517 LINE",
"425 642 LINE",
"40 642 LINE",
"40 0 LINE"
);
},
{
closed = 1;
nodes = (
"425 675 LINE",
"425 781 LINE",
"36 781 LINE",
"36 675 LINE"
);
}
);
userData = {
assembly = "NPUSHB[ ]\011/* 54 values pushed */
8 1 7 0 6 2 7 6 94 0 4 0 5 0 4 5 94 0 3 3 2 86 0 2 2 34 72 0 0 0 1 86 0 1 1 35 1 73 12 12 12 15 12 15 18 17 17 17 17 17 16 9 6 27 
CALL[ ]\011/* CallFunction */";
};
width = 449;
}
);
note = Emacron;
unicode = 0112;
},
{
glyphname = Eogonek;
lastChange = "2020-01-03 07:23:48 +0000";
layers = (
{
layerId = "72B922C0-AA1F-4D08-9FB7-788394CCB5D9";
paths = (
{
closed = 1;
nodes = (
"453 -274 LINE",
"453 -177 LINE",
"362 -177 LINE SMOOTH",
"341 -177 OFFCURVE",
"341 -159 QCURVE SMOOTH",
"341 -132 LINE SMOOTH",
"341 -114 OFFCURVE",
"362 -114 QCURVE SMOOTH",
"435 -114 LINE",
"435 15 LINE",
"434 15 LINE",
"434 125 LINE",
"215 125 LINE",
"215 261 LINE",
"396 261 LINE",
"396 386 LINE",
"215 386 LINE",
"215 517 LINE",
"425 517 LINE",
"425 642 LINE",
"40 642 LINE",
"40 0 LINE",
"344 0 LINE",
"344 -17 LINE",
"338 -17 LINE SMOOTH",
"274 -17 OFFCURVE",
"223 -70 OFFCURVE",
"223 -121 QCURVE SMOOTH",
"223 -169 LINE SMOOTH",
"223 -221 OFFCURVE",
"274 -274 OFFCURVE",
"338 -274 QCURVE SMOOTH"
);
}
);
userData = {
assembly = "NPUSHB[ ]\011/* 77 values pushed */
0 2 3 9 3 2 9 109 0 6 0 7 8 6 7 94 10 1 0 0 1 0 1 93 0 5 5 4 86 0 4 4 34 72 0 8 8 3 86 0 3 3 35 72 0 9 9 39 9 73 1 0 28 26 23 22 21 20 19 18 17 16 15 14 13 12 10 9 4 2 0 31 1 31 11 6 20 
CALL[ ]\011/* CallFunction */";
};
width = 449;
}
);
note = Eogonek;
unicode = 0118;
},
{
glyphname = F;
lastChange = "2020-01-03 07:23:48 +0000";
layers = (
{
layerId = "72B922C0-AA1F-4D08-9FB7-788394CCB5D9";
paths = (
{
closed = 1;
nodes = (
"215 0 LINE",
"215 246 LINE",
"397 246 LINE",
"397 361 LINE",
"215 361 LINE",
"215 517 LINE",
"425 517 LINE",
"425 642 LINE",
"40 642 LINE",
"40 0 LINE"
);
}
);
userData = {
assembly = "NPUSHB[ ]\011/* 32 values pushed */
0 1 0 2 3 1 2 94 0 0 0 4 86 0 4 4 34 72 0 3 3 35 3 73 17 17 17 17 16 5 6 25 
CALL[ ]\011/* CallFunction */";
};
width = 440;
}
);
note = F;
unicode = 0046;
},
{
glyphname = G;
lastChange = "2020-01-03 07:23:48 +0000";
layers = (
{
layerId = "72B922C0-AA1F-4D08-9FB7-788394CCB5D9";
paths = (
{
closed = 1;
nodes = (
"324 0 LINE SMOOTH",
"471 0 OFFCURVE",
"471 124 QCURVE SMOOTH",
"471 355 LINE",
"246 355 LINE",
"246 244 LINE",
"296 244 LINE",
"296 137 LINE SMOOTH",
"296 115 OFFCURVE",
"271 115 QCURVE SMOOTH",
"235 115 LINE SMOOTH",
"210 115 OFFCURVE",
"210 137 QCURVE SMOOTH",
"210 505 LINE SMOOTH",
"210 527 OFFCURVE",
"235 527 QCURVE SMOOTH",
"271 527 LINE SMOOTH",
"296 527 OFFCURVE",
"296 505 QCURVE SMOOTH",
"296 422 LINE",
"471 422 LINE",
"471 518 LINE SMOOTH",
"471 642 OFFCURVE",
"324 642 QCURVE SMOOTH",
"182 642 LINE SMOOTH",
"35 642 OFFCURVE",
"35 518 QCURVE SMOOTH",
"35 124 LINE SMOOTH",
"35 0 OFFCURVE",
"182 0 QCURVE SMOOTH"
);
}
);
userData = {
assembly = "MPPEM[ ]\011/* MeasurePixelPerEm */
PUSHB[ ]\011/* 1 value pushed */
11 
LT[ ]\011/* LessThan */
IF[ ]\011/* If */
NPUSHB[ ]\011/* 36 values pushed */
0 0 1 4 1 0 101 0 4 0 3 2 4 3 94 0 1 1 6 88 0 6 6 34 72 0 2 2 5 88 0 5 5 35 5 73 
ELSE[ ]\011/* Else */
NPUSHB[ ]\011/* 37 values pushed */
0 0 1 4 1 0 4 109 0 4 0 3 2 4 3 94 0 1 1 6 88 0 6 6 34 72 0 2 2 5 88 0 5 5 35 5 73 
EIF[ ]\011/* EndIf */
NPUSHB[ ]\011/* 10 values pushed */
51 50 17 18 51 50 16 7 6 27 
CALL[ ]\011/* CallFunction */";
};
width = 501;
}
);
note = G;
unicode = 0047;
},
{
glyphname = Gbreve;
lastChange = "2020-01-03 07:23:48 +0000";
layers = (
{
layerId = "72B922C0-AA1F-4D08-9FB7-788394CCB5D9";
paths = (
{
closed = 1;
nodes = (
"324 0 LINE SMOOTH",
"471 0 OFFCURVE",
"471 124 QCURVE SMOOTH",
"471 355 LINE",
"246 355 LINE",
"246 244 LINE",
"296 244 LINE",
"296 137 LINE SMOOTH",
"296 115 OFFCURVE",
"271 115 QCURVE SMOOTH",
"235 115 LINE SMOOTH",
"210 115 OFFCURVE",
"210 137 QCURVE SMOOTH",
"210 505 LINE SMOOTH",
"210 527 OFFCURVE",
"235 527 QCURVE SMOOTH",
"271 527 LINE SMOOTH",
"296 527 OFFCURVE",
"296 505 QCURVE SMOOTH",
"296 422 LINE",
"471 422 LINE",
"471 518 LINE SMOOTH",
"471 642 OFFCURVE",
"324 642 QCURVE SMOOTH",
"182 642 LINE SMOOTH",
"35 642 OFFCURVE",
"35 518 QCURVE SMOOTH",
"35 124 LINE SMOOTH",
"35 0 OFFCURVE",
"182 0 QCURVE SMOOTH"
);
},
{
closed = 1;
nodes = (
"303 675 LINE SMOOTH",
"450 675 OFFCURVE",
"450 799 QCURVE SMOOTH",
"450 825 LINE",
"300 825 LINE",
"300 792 LINE SMOOTH",
"300 770 OFFCURVE",
"275 770 QCURVE SMOOTH",
"231 770 LINE SMOOTH",
"206 770 OFFCURVE",
"206 792 QCURVE SMOOTH",
"206 825 LINE",
"56 825 LINE",
"56 799 LINE SMOOTH",
"56 675 OFFCURVE",
"203 675 QCURVE SMOOTH"
);
}
);
userData = {
assembly = "MPPEM[ ]\011/* MeasurePixelPerEm */
PUSHB[ ]\011/* 1 value pushed */
11 
LT[ ]\011/* LessThan */
IF[ ]\011/* If */
NPUSHB[ ]\011/* 52 values pushed */
10 1 8 9 9 8 99 0 0 1 4 1 0 101 0 9 11 1 7 6 9 7 97 0 4 0 3 2 4 3 94 0 1 1 6 88 0 6 6 34 72 0 2 2 5 88 0 5 5 35 5 73 
ELSE[ ]\011/* Else */
MPPEM[ ]\011/* MeasurePixelPerEm */
PUSHB[ ]\011/* 1 value pushed */
23 
LT[ ]\011/* LessThan */
IF[ ]\011/* If */
NPUSHB[ ]\011/* 53 values pushed */
10 1 8 9 9 8 99 0 0 1 4 1 0 4 109 0 9 11 1 7 6 9 7 97 0 4 0 3 2 4 3 94 0 1 1 6 88 0 6 6 34 72 0 2 2 5 88 0 5 5 35 5 73 
ELSE[ ]\011/* Else */
NPUSHB[ ]\011/* 52 values pushed */
10 1 8 9 8 111 0 0 1 4 1 0 4 109 0 9 11 1 7 6 9 7 97 0 4 0 3 2 4 3 94 0 1 1 6 88 0 6 6 34 72 0 2 2 5 88 0 5 5 35 5 73 
EIF[ ]\011/* EndIf */
EIF[ ]\011/* EndIf */
NPUSHB[ ]\011/* 22 values pushed */
32 30 43 42 40 37 35 34 30 45 32 45 51 50 17 18 51 50 16 12 6 27 
CALL[ ]\011/* CallFunction */";
};
width = 501;
}
);
note = Gbreve;
unicode = 011E;
},
{
glyphname = H;
lastChange = "2020-01-03 07:23:48 +0000";
layers = (
{
hints = (
{
horizontal = 1;
origin = "{0, 1}";
target = "{0, 8}";
type = Stem;
},
{
origin = "{0, 11}";
target = "{0, 0}";
type = Stem;
},
{
origin = "{0, 3}";
target = "{0, 4}";
type = Stem;
}
);
layerId = "72B922C0-AA1F-4D08-9FB7-788394CCB5D9";
paths = (
{
closed = 1;
nodes = (
"212 0 LINE",
"212 254 LINE",
"338 254 LINE",
"338 0 LINE",
"510 0 LINE",
"510 642 LINE",
"338 642 LINE",
"338 379 LINE",
"212 379 LINE",
"212 642 LINE",
"40 642 LINE",
"40 0 LINE"
);
}
);
userData = {
assembly = "NPUSHB[ ]\011/* 30 values pushed */
0 5 0 2 1 5 2 94 4 1 0 0 34 72 3 1 1 1 35 1 73 17 17 17 17 17 16 6 6 26 
CALL[ ]\011/* CallFunction */";
};
width = 550;
}
);
note = H;
unicode = 0048;
},
{
glyphname = I;
lastChange = "2020-01-03 07:23:48 +0000";
layers = (
{
layerId = "72B922C0-AA1F-4D08-9FB7-788394CCB5D9";
paths = (
{
closed = 1;
nodes = (
"215 0 LINE",
"215 642 LINE",
"40 642 LINE",
"40 0 LINE"
);
}
);
userData = {
assembly = "NPUSHB[ ]\011/* 16 values pushed */
0 0 0 34 72 0 1 1 35 1 73 17 16 2 6 22 
CALL[ ]\011/* CallFunction */";
};
width = 255;
}
);
note = I;
unicode = 0049;
},
{
glyphname = Iacute;
lastChange = "2020-01-03 07:23:48 +0000";
layers = (
{
layerId = "72B922C0-AA1F-4D08-9FB7-788394CCB5D9";
paths = (
{
closed = 1;
nodes = (
"215 0 LINE",
"215 642 LINE",
"40 642 LINE",
"40 0 LINE"
);
},
{
closed = 1;
nodes = (
"190 675 LINE",
"323 825 LINE",
"153 825 LINE",
"56 675 LINE"
);
}
);
userData = {
assembly = "NPUSHB[ ]\011/* 34 values pushed */
0 0 4 1 1 2 0 1 94 0 2 2 34 72 0 3 3 35 3 73 0 0 7 6 5 4 0 3 0 3 17 5 6 21 
CALL[ ]\011/* CallFunction */";
};
width = 255;
}
);
note = Iacute;
unicode = 00CD;
},
{
glyphname = Icircumflex;
lastChange = "2020-01-03 07:23:48 +0000";
layers = (
{
layerId = "72B922C0-AA1F-4D08-9FB7-788394CCB5D9";
paths = (
{
closed = 1;
nodes = (
"215 0 LINE",
"215 642 LINE",
"40 642 LINE",
"40 0 LINE"
);
},
{
closed = 1;
nodes = (
"74 675 LINE",
"127 744 LINE",
"180 675 LINE",
"337 675 LINE",
"204 825 LINE",
"50 825 LINE",
"-83 675 LINE"
);
}
);
userData = {
assembly = "NPUSHB[ ]\011/* 42 values pushed */
5 1 1 0 1 71 0 0 5 2 2 1 3 0 1 94 0 3 3 34 72 0 4 4 35 4 73 0 0 10 9 8 7 0 6 0 6 17 17 6 6 22 
CALL[ ]\011/* CallFunction */";
};
width = 255;
}
);
note = Icircumflex;
unicode = 00CE;
},
{
glyphname = Idieresis;
lastChange = "2020-01-03 07:23:48 +0000";
layers = (
{
layerId = "72B922C0-AA1F-4D08-9FB7-788394CCB5D9";
paths = (
{
closed = 1;
nodes = (
"215 0 LINE",
"215 642 LINE",
"40 642 LINE",
"40 0 LINE"
);
},
{
closed = 1;
nodes = (
"84 675 LINE",
"84 805 LINE",
"-68 805 LINE",
"-68 675 LINE"
);
},
{
closed = 1;
nodes = (
"324 675 LINE",
"324 805 LINE",
"172 805 LINE",
"172 675 LINE"
);
}
);
userData = {
assembly = "NPUSHB[ ]\011/* 43 values pushed */
4 1 2 7 5 6 3 3 0 2 3 94 0 0 0 34 72 0 1 1 35 1 73 8 8 4 4 8 11 8 11 10 9 4 7 4 7 18 17 16 8 6 23 
CALL[ ]\011/* CallFunction */";
};
width = 255;
}
);
note = Idieresis;
unicode = 00CF;
},
{
glyphname = Idotaccent;
lastChange = "2020-01-03 07:23:48 +0000";
layers = (
{
layerId = "72B922C0-AA1F-4D08-9FB7-788394CCB5D9";
paths = (
{
closed = 1;
nodes = (
"215 0 LINE",
"215 642 LINE",
"40 642 LINE",
"40 0 LINE"
);
},
{
closed = 1;
nodes = (
"209 675 LINE",
"209 805 LINE",
"47 805 LINE",
"47 675 LINE"
);
}
);
userData = {
assembly = "NPUSHB[ ]\011/* 34 values pushed */
0 0 4 1 1 2 0 1 94 0 2 2 34 72 0 3 3 35 3 73 0 0 7 6 5 4 0 3 0 3 17 5 6 21 
CALL[ ]\011/* CallFunction */";
};
width = 255;
}
);
note = Idotaccent;
unicode = 0130;
},
{
glyphname = Igrave;
lastChange = "2020-01-03 07:23:48 +0000";
layers = (
{
layerId = "72B922C0-AA1F-4D08-9FB7-788394CCB5D9";
paths = (
{
closed = 1;
nodes = (
"215 0 LINE",
"215 642 LINE",
"40 642 LINE",
"40 0 LINE"
);
},
{
closed = 1;
nodes = (
"194 675 LINE",
"97 825 LINE",
"-73 825 LINE",
"60 675 LINE"
);
}
);
userData = {
assembly = "NPUSHB[ ]\011/* 34 values pushed */
4 1 1 0 0 2 1 0 94 0 2 2 34 72 0 3 3 35 3 73 0 0 7 6 5 4 0 3 0 3 17 5 6 21 
CALL[ ]\011/* CallFunction */";
};
width = 255;
}
);
note = Igrave;
unicode = 00CC;
},
{
glyphname = Imacron;
lastChange = "2020-01-03 07:23:48 +0000";
layers = (
{
layerId = "72B922C0-AA1F-4D08-9FB7-788394CCB5D9";
paths = (
{
closed = 1;
nodes = (
"215 0 LINE",
"215 642 LINE",
"40 642 LINE",
"40 0 LINE"
);
},
{
closed = 1;
nodes = (
"323 675 LINE",
"323 781 LINE",
"-66 781 LINE",
"-66 675 LINE"
);
}
);
userData = {
assembly = "NPUSHB[ ]\011/* 34 values pushed */
0 0 4 1 1 2 0 1 94 0 2 2 34 72 0 3 3 35 3 73 0 0 7 6 5 4 0 3 0 3 17 5 6 21 
CALL[ ]\011/* CallFunction */";
};
width = 255;
}
);
note = Imacron;
unicode = 012A;
},
{
glyphname = Iogonek;
lastChange = "2020-01-03 07:23:48 +0000";
layers = (
{
layerId = "72B922C0-AA1F-4D08-9FB7-788394CCB5D9";
paths = (
{
closed = 1;
nodes = (
"233 -274 LINE",
"233 -177 LINE",
"142 -177 LINE SMOOTH",
"121 -177 OFFCURVE",
"121 -159 QCURVE SMOOTH",
"121 -132 LINE SMOOTH",
"121 -114 OFFCURVE",
"142 -114 QCURVE SMOOTH",
"215 -114 LINE",
"215 642 LINE",
"40 642 LINE",
"40 0 LINE",
"124 0 LINE",
"124 -17 LINE",
"118 -17 LINE SMOOTH",
"54 -17 OFFCURVE",
"3 -70 OFFCURVE",
"3 -121 QCURVE SMOOTH",
"3 -169 LINE SMOOTH",
"3 -221 OFFCURVE",
"54 -274 OFFCURVE",
"118 -274 QCURVE SMOOTH"
);
}
);
userData = {
assembly = "NPUSHB[ ]\011/* 51 values pushed */
0 2 3 5 3 2 5 109 6 1 0 0 1 0 1 93 0 4 4 34 72 0 3 3 35 72 0 5 5 39 5 73 1 0 18 16 15 14 13 12 10 9 4 2 0 21 1 21 7 6 20 
CALL[ ]\011/* CallFunction */";
};
width = 255;
}
);
note = Iogonek;
unicode = 012E;
},
{
glyphname = J;
lastChange = "2020-01-03 07:23:48 +0000";
layers = (
{
layerId = "72B922C0-AA1F-4D08-9FB7-788394CCB5D9";
paths = (
{
closed = 1;
nodes = (
"274 0 LINE SMOOTH",
"372 0 OFFCURVE",
"421 41 OFFCURVE",
"421 124 CURVE SMOOTH",
"421 642 LINE",
"246 642 LINE",
"246 147 LINE SMOOTH",
"246 132 OFFCURVE",
"238 125 OFFCURVE",
"221 125 CURVE SMOOTH",
"210 125 LINE SMOOTH",
"193 125 OFFCURVE",
"185 132 OFFCURVE",
"185 147 CURVE SMOOTH",
"185 257 LINE",
"10 257 LINE",
"10 124 LINE SMOOTH",
"10 41 OFFCURVE",
"59 0 OFFCURVE",
"157 0 CURVE SMOOTH"
);
}
);
userData = {
assembly = "MPPEM[ ]\011/* MeasurePixelPerEm */
PUSHB[ ]\011/* 1 value pushed */
9 
LT[ ]\011/* LessThan */
IF[ ]\011/* If */
NPUSHB[ ]\011/* 23 values pushed */
0 0 2 1 1 0 101 0 2 2 34 72 0 1 1 3 89 0 3 3 35 3 73 
ELSE[ ]\011/* Else */
NPUSHB[ ]\011/* 24 values pushed */
0 0 2 1 2 0 1 109 0 2 2 34 72 0 1 1 3 89 0 3 3 35 3 73 
EIF[ ]\011/* EndIf */
PUSHB[ ]\011/* 7 values pushed */
50 18 50 16 4 6 24 
CALL[ ]\011/* CallFunction */";
};
width = 457;
}
);
note = J;
unicode = 004A;
},
{
glyphname = K;
lastChange = "2020-01-03 07:23:48 +0000";
layers = (
{
layerId = "72B922C0-AA1F-4D08-9FB7-788394CCB5D9";
paths = (
{
closed = 1;
nodes = (
"524 0 LINE",
"398 328 LINE",
"523 642 LINE",
"335 642 LINE",
"216 328 LINE",
"336 0 LINE"
);
},
{
closed = 1;
nodes = (
"215 0 LINE",
"215 642 LINE",
"40 642 LINE",
"40 0 LINE"
);
}
);
userData = {
assembly = "NPUSHB[ ]\011/* 33 values pushed */
3 0 2 0 1 1 71 2 1 1 1 34 72 4 3 2 0 0 35 0 73 6 6 6 9 6 9 18 18 17 5 6 23 
CALL[ ]\011/* CallFunction */";
};
width = 530;
}
);
note = K;
unicode = 004B;
},
{
glyphname = L;
lastChange = "2020-01-03 07:23:48 +0000";
layers = (
{
layerId = "72B922C0-AA1F-4D08-9FB7-788394CCB5D9";
paths = (
{
closed = 1;
nodes = (
"414 0 LINE",
"414 125 LINE",
"215 125 LINE",
"215 642 LINE",
"40 642 LINE",
"40 0 LINE"
);
}
);
userData = {
assembly = "NPUSHB[ ]\011/* 22 values pushed */
0 2 2 34 72 0 0 0 1 87 0 1 1 35 1 73 17 17 16 3 6 23 
CALL[ ]\011/* CallFunction */";
};
width = 414;
}
);
note = L;
unicode = 004C;
},
{
glyphname = Lacute;
lastChange = "2020-01-03 07:23:48 +0000";
layers = (
{
layerId = "72B922C0-AA1F-4D08-9FB7-788394CCB5D9";
paths = (
{
closed = 1;
nodes = (
"414 0 LINE",
"414 125 LINE",
"215 125 LINE",
"215 642 LINE",
"40 642 LINE",
"40 0 LINE"
);
},
{
closed = 1;
nodes = (
"199 675 LINE",
"332 825 LINE",
"162 825 LINE",
"65 675 LINE"
);
}
);
userData = {
assembly = "NPUSHB[ ]\011/* 38 values pushed */
5 1 4 0 3 2 4 3 94 0 2 2 34 72 0 0 0 1 87 0 1 1 35 1 73 6 6 6 9 6 9 18 17 17 16 6 6 24 
CALL[ ]\011/* CallFunction */";
};
width = 414;
}
);
note = Lacute;
unicode = 0139;
},
{
glyphname = Lcaron;
lastChange = "2020-01-03 07:23:48 +0000";
layers = (
{
layerId = "72B922C0-AA1F-4D08-9FB7-788394CCB5D9";
paths = (
{
closed = 1;
nodes = (
"414 0 LINE",
"414 125 LINE",
"215 125 LINE",
"215 642 LINE",
"40 642 LINE",
"40 0 LINE"
);
},
{
closed = 1;
nodes = (
"204 675 LINE",
"337 825 LINE",
"180 825 LINE",
"127 756 LINE",
"74 825 LINE",
"-83 825 LINE",
"50 675 LINE"
);
}
);
userData = {
assembly = "NPUSHB[ ]\011/* 40 values pushed */
10 1 3 4 1 71 5 1 4 0 3 2 4 3 94 0 2 2 34 72 0 0 0 1 87 0 1 1 35 1 73 18 17 17 17 17 16 6 6 26 
CALL[ ]\011/* CallFunction */";
};
width = 414;
}
);
note = Lcaron;
unicode = 013D;
},
{
glyphname = Lslash;
lastChange = "2020-01-03 07:23:48 +0000";
layers = (
{
layerId = "72B922C0-AA1F-4D08-9FB7-788394CCB5D9";
paths = (
{
closed = 1;
nodes = (
"424 0 LINE",
"424 125 LINE",
"225 125 LINE",
"225 321 LINE",
"335 374 LINE",
"335 489 LINE",
"225 436 LINE",
"225 642 LINE",
"50 642 LINE",
"50 352 LINE",
"-39 309 LINE",
"-39 194 LINE",
"50 237 LINE",
"50 0 LINE"
);
}
);
userData = {
assembly = "NPUSHB[ ]\011/* 35 values pushed */
13 12 11 10 7 6 5 4 8 0 2 1 71 0 2 2 34 72 0 0 0 1 87 0 1 1 35 1 73 21 17 16 3 6 23 
CALL[ ]\011/* CallFunction */";
};
width = 434;
}
);
note = Lslash;
unicode = 0141;
},
{
glyphname = M;
lastChange = "2020-01-03 07:23:48 +0000";
layers = (
{
layerId = "72B922C0-AA1F-4D08-9FB7-788394CCB5D9";
paths = (
{
closed = 1;
nodes = (
"196 0 LINE",
"196 406 LINE",
"275 139 LINE",
"395 139 LINE",
"475 408 LINE",
"475 0 LINE",
"630 0 LINE",
"630 642 LINE",
"439 642 LINE",
"335 299 LINE",
"231 642 LINE",
"40 642 LINE",
"40 0 LINE"
);
}
);
userData = {
assembly = "NPUSHB[ ]\011/* 37 values pushed */
12 9 4 3 4 1 1 71 0 4 1 0 1 4 0 109 2 1 1 1 34 72 3 1 0 0 35 0 73 18 17 18 17 16 5 6 25 
CALL[ ]\011/* CallFunction */";
};
width = 670;
}
);
note = M;
unicode = 004D;
},
{
glyphname = N;
lastChange = "2020-01-03 07:23:48 +0000";
layers = (
{
layerId = "72B922C0-AA1F-4D08-9FB7-788394CCB5D9";
paths = (
{
closed = 1;
nodes = (
"200 0 LINE",
"200 337 LINE",
"343 0 LINE",
"493 0 LINE",
"493 642 LINE",
"333 642 LINE",
"333 299 LINE",
"190 642 LINE",
"40 642 LINE",
"40 0 LINE"
);
}
);
userData = {
assembly = "NPUSHB[ ]\011/* 27 values pushed */
9 4 2 1 0 1 71 3 1 0 0 34 72 2 1 1 1 35 1 73 17 18 17 16 4 6 24 
CALL[ ]\011/* CallFunction */";
};
width = 533;
}
);
note = N;
unicode = 004E;
},
{
glyphname = Nacute;
lastChange = "2020-01-03 07:23:48 +0000";
layers = (
{
layerId = "72B922C0-AA1F-4D08-9FB7-788394CCB5D9";
paths = (
{
closed = 1;
nodes = (
"200 0 LINE",
"200 337 LINE",
"343 0 LINE",
"493 0 LINE",
"493 642 LINE",
"333 642 LINE",
"333 299 LINE",
"190 642 LINE",
"40 642 LINE",
"40 0 LINE"
);
},
{
closed = 1;
nodes = (
"322 675 LINE",
"455 825 LINE",
"285 825 LINE",
"188 675 LINE"
);
}
);
userData = {
assembly = "NPUSHB[ ]\011/* 43 values pushed */
9 4 2 1 0 1 71 0 4 6 1 5 0 4 5 94 3 1 0 0 34 72 2 1 1 1 35 1 73 10 10 10 13 10 13 19 17 18 17 16 7 6 25 
CALL[ ]\011/* CallFunction */";
};
width = 533;
}
);
note = Nacute;
unicode = 0143;
},
{
glyphname = Ncaron;
lastChange = "2020-01-03 07:23:48 +0000";
layers = (
{
layerId = "72B922C0-AA1F-4D08-9FB7-788394CCB5D9";
paths = (
{
closed = 1;
nodes = (
"200 0 LINE",
"200 337 LINE",
"343 0 LINE",
"493 0 LINE",
"493 642 LINE",
"333 642 LINE",
"333 299 LINE",
"190 642 LINE",
"40 642 LINE",
"40 0 LINE"
);
},
{
closed = 1;
nodes = (
"341 674 LINE",
"474 824 LINE",
"317 824 LINE",
"264 755 LINE",
"211 824 LINE",
"54 824 LINE",
"187 674 LINE"
);
}
);
userData = {
assembly = "NPUSHB[ ]\011/* 49 values pushed */
13 1 6 4 9 4 2 1 0 2 71 5 1 4 7 1 6 0 4 6 94 3 1 0 0 34 72 2 1 1 1 35 1 73 10 10 10 16 10 16 18 19 17 18 17 16 8 6 26 
CALL[ ]\011/* CallFunction */";
};
width = 533;
}
);
note = Ncaron;
unicode = 0147;
},
{
glyphname = Ntilde;
lastChange = "2020-01-03 07:23:48 +0000";
layers = (
{
layerId = "72B922C0-AA1F-4D08-9FB7-788394CCB5D9";
paths = (
{
closed = 1;
nodes = (
"200 0 LINE",
"200 337 LINE",
"343 0 LINE",
"493 0 LINE",
"493 642 LINE",
"333 642 LINE",
"333 299 LINE",
"190 642 LINE",
"40 642 LINE",
"40 0 LINE"
);
},
{
closed = 1;
nodes = (
"207 675 LINE",
"207 706 LINE SMOOTH",
"207 727 OFFCURVE",
"225 727 QCURVE SMOOTH",
"231 727 OFFCURVE",
"313 675 OFFCURVE",
"347 675 QCURVE SMOOTH",
"364 675 LINE SMOOTH",
"419 675 OFFCURVE",
"465 719 OFFCURVE",
"465 765 QCURVE SMOOTH",
"465 825 LINE",
"330 825 LINE",
"330 794 LINE SMOOTH",
"330 773 OFFCURVE",
"312 773 QCURVE SMOOTH",
"306 773 OFFCURVE",
"224 825 OFFCURVE",
"190 825 QCURVE SMOOTH",
"171 825 LINE SMOOTH",
"117 825 OFFCURVE",
"72 777 OFFCURVE",
"72 730 QCURVE SMOOTH",
"72 675 LINE"
);
}
);
userData = {
assembly = "PUSHB[ ]\011/* 7 values pushed */
33 28 2 7 6 1 71 
MPPEM[ ]\011/* MeasurePixelPerEm */
PUSHB[ ]\011/* 1 value pushed */
23 
LT[ ]\011/* LessThan */
IF[ ]\011/* If */
NPUSHB[ ]\011/* 37 values pushed */
0 4 3 1 3 4 101 0 1 0 0 1 99 5 1 3 2 10 2 0 6 3 0 96 9 1 6 6 34 72 8 1 7 7 35 7 73 
ELSE[ ]\011/* Else */
NPUSHB[ ]\011/* 39 values pushed */
0 4 3 1 3 4 1 109 0 1 0 3 1 0 107 5 1 3 2 10 2 0 6 3 0 96 9 1 6 6 34 72 8 1 7 7 35 7 73 
EIF[ ]\011/* EndIf */
NPUSHB[ ]\011/* 27 values pushed */
1 0 32 31 30 29 27 26 25 24 19 18 16 14 13 10 7 6 4 2 0 23 1 22 11 6 20 
CALL[ ]\011/* CallFunction */";
};
width = 533;
}
);
note = Ntilde;
unicode = 00D1;
},
{
glyphname = O;
lastChange = "2020-01-03 07:23:48 +0000";
layers = (
{
layerId = "72B922C0-AA1F-4D08-9FB7-788394CCB5D9";
paths = (
{
closed = 1;
nodes = (
"332 0 LINE SMOOTH",
"479 0 OFFCURVE",
"479 124 QCURVE SMOOTH",
"479 518 LINE SMOOTH",
"479 642 OFFCURVE",
"332 642 QCURVE SMOOTH",
"184 642 LINE SMOOTH",
"37 642 OFFCURVE",
"37 518 QCURVE SMOOTH",
"37 124 LINE SMOOTH",
"37 0 OFFCURVE",
"184 0 QCURVE SMOOTH"
);
},
{
closed = 1;
nodes = (
"212 125 OFFCURVE",
"212 147 QCURVE SMOOTH",
"212 495 LINE SMOOTH",
"212 517 OFFCURVE",
"237 517 QCURVE SMOOTH",
"279 517 LINE SMOOTH",
"304 517 OFFCURVE",
"304 495 QCURVE SMOOTH",
"304 147 LINE SMOOTH",
"304 125 OFFCURVE",
"279 125 QCURVE SMOOTH",
"237 125 LINE SMOOTH"
);
}
);
userData = {
assembly = "NPUSHB[ ]\011/* 37 values pushed */
0 2 2 0 88 4 1 0 0 34 72 0 3 3 1 88 0 1 1 35 1 73 2 0 23 20 17 14 8 5 0 11 2 11 5 6 20 
CALL[ ]\011/* CallFunction */";
};
width = 516;
}
);
note = O;
unicode = 004F;
},
{
glyphname = Oacute;
lastChange = "2020-01-03 07:23:48 +0000";
layers = (
{
layerId = "72B922C0-AA1F-4D08-9FB7-788394CCB5D9";
paths = (
{
closed = 1;
nodes = (
"332 0 LINE SMOOTH",
"479 0 OFFCURVE",
"479 124 QCURVE SMOOTH",
"479 518 LINE SMOOTH",
"479 642 OFFCURVE",
"332 642 QCURVE SMOOTH",
"184 642 LINE SMOOTH",
"37 642 OFFCURVE",
"37 518 QCURVE SMOOTH",
"37 124 LINE SMOOTH",
"37 0 OFFCURVE",
"184 0 QCURVE SMOOTH"
);
},
{
closed = 1;
nodes = (
"212 125 OFFCURVE",
"212 147 QCURVE SMOOTH",
"212 495 LINE SMOOTH",
"212 517 OFFCURVE",
"237 517 QCURVE SMOOTH",
"279 517 LINE SMOOTH",
"304 517 OFFCURVE",
"304 495 QCURVE SMOOTH",
"304 147 LINE SMOOTH",
"304 125 OFFCURVE",
"279 125 QCURVE SMOOTH",
"237 125 LINE SMOOTH"
);
},
{
closed = 1;
nodes = (
"329 675 LINE",
"462 825 LINE",
"292 825 LINE",
"195 675 LINE"
);
}
);
userData = {
assembly = "NPUSHB[ ]\011/* 54 values pushed */
7 1 5 0 4 0 5 4 94 0 2 2 0 88 6 1 0 0 34 72 0 3 3 1 88 0 1 1 35 1 73 24 24 2 0 24 27 24 27 26 25 23 20 17 14 8 5 0 11 2 11 8 6 20 
CALL[ ]\011/* CallFunction */";
};
width = 516;
}
);
note = Oacute;
unicode = 00D3;
},
{
glyphname = Ocircumflex;
lastChange = "2020-01-03 07:23:48 +0000";
layers = (
{
layerId = "72B922C0-AA1F-4D08-9FB7-788394CCB5D9";
paths = (
{
closed = 1;
nodes = (
"332 0 LINE SMOOTH",
"479 0 OFFCURVE",
"479 124 QCURVE SMOOTH",
"479 518 LINE SMOOTH",
"479 642 OFFCURVE",
"332 642 QCURVE SMOOTH",
"184 642 LINE SMOOTH",
"37 642 OFFCURVE",
"37 518 QCURVE SMOOTH",
"37 124 LINE SMOOTH",
"37 0 OFFCURVE",
"184 0 QCURVE SMOOTH"
);
},
{
closed = 1;
nodes = (
"212 125 OFFCURVE",
"212 147 QCURVE SMOOTH",
"212 495 LINE SMOOTH",
"212 517 OFFCURVE",
"237 517 QCURVE SMOOTH",
"279 517 LINE SMOOTH",
"304 517 OFFCURVE",
"304 495 QCURVE SMOOTH",
"304 147 LINE SMOOTH",
"304 125 OFFCURVE",
"279 125 QCURVE SMOOTH",
"237 125 LINE SMOOTH"
);
},
{
closed = 1;
nodes = (
"203 675 LINE",
"256 744 LINE",
"309 675 LINE",
"466 675 LINE",
"333 825 LINE",
"179 825 LINE",
"46 675 LINE"
);
}
);
userData = {
assembly = "NPUSHB[ ]\011/* 58 values pushed */
24 1 4 5 1 71 0 5 6 1 4 0 5 4 94 0 2 2 0 88 7 1 0 0 34 72 0 3 3 1 88 0 1 1 35 1 73 2 0 30 29 28 27 26 25 23 20 17 14 8 5 0 11 2 11 8 6 20 
CALL[ ]\011/* CallFunction */";
};
width = 516;
}
);
note = Ocircumflex;
unicode = 00D4;
},
{
glyphname = Odieresis;
lastChange = "2020-01-03 07:23:48 +0000";
layers = (
{
layerId = "72B922C0-AA1F-4D08-9FB7-788394CCB5D9";
paths = (
{
closed = 1;
nodes = (
"332 0 LINE SMOOTH",
"479 0 OFFCURVE",
"479 124 QCURVE SMOOTH",
"479 518 LINE SMOOTH",
"479 642 OFFCURVE",
"332 642 QCURVE SMOOTH",
"184 642 LINE SMOOTH",
"37 642 OFFCURVE",
"37 518 QCURVE SMOOTH",
"37 124 LINE SMOOTH",
"37 0 OFFCURVE",
"184 0 QCURVE SMOOTH"
);
},
{
closed = 1;
nodes = (
"212 125 OFFCURVE",
"212 147 QCURVE SMOOTH",
"212 495 LINE SMOOTH",
"212 517 OFFCURVE",
"237 517 QCURVE SMOOTH",
"279 517 LINE SMOOTH",
"304 517 OFFCURVE",
"304 495 QCURVE SMOOTH",
"304 147 LINE SMOOTH",
"304 125 OFFCURVE",
"279 125 QCURVE SMOOTH",
"237 125 LINE SMOOTH"
);
},
{
closed = 1;
nodes = (
"214 675 LINE",
"214 805 LINE",
"62 805 LINE",
"62 675 LINE"
);
},
{
closed = 1;
nodes = (
"454 675 LINE",
"454 805 LINE",
"302 805 LINE",
"302 675 LINE"
);
}
);
userData = {
assembly = "NPUSHB[ ]\011/* 65 values pushed */
10 7 9 3 5 6 1 4 0 5 4 94 0 2 2 0 88 8 1 0 0 34 72 0 3 3 1 88 0 1 1 35 1 73 28 28 24 24 2 0 28 31 28 31 30 29 24 27 24 27 26 25 23 20 17 14 8 5 0 11 2 11 11 6 20 
CALL[ ]\011/* CallFunction */";
};
width = 500;
}
);
note = Odieresis;
unicode = 00D6;
},
{
glyphname = Ograve;
lastChange = "2020-01-03 07:23:48 +0000";
layers = (
{
layerId = "72B922C0-AA1F-4D08-9FB7-788394CCB5D9";
paths = (
{
closed = 1;
nodes = (
"332 0 LINE SMOOTH",
"479 0 OFFCURVE",
"479 124 QCURVE SMOOTH",
"479 518 LINE SMOOTH",
"479 642 OFFCURVE",
"332 642 QCURVE SMOOTH",
"184 642 LINE SMOOTH",
"37 642 OFFCURVE",
"37 518 QCURVE SMOOTH",
"37 124 LINE SMOOTH",
"37 0 OFFCURVE",
"184 0 QCURVE SMOOTH"
);
},
{
closed = 1;
nodes = (
"212 125 OFFCURVE",
"212 147 QCURVE SMOOTH",
"212 495 LINE SMOOTH",
"212 517 OFFCURVE",
"237 517 QCURVE SMOOTH",
"279 517 LINE SMOOTH",
"304 517 OFFCURVE",
"304 495 QCURVE SMOOTH",
"304 147 LINE SMOOTH",
"304 125 OFFCURVE",
"279 125 QCURVE SMOOTH",
"237 125 LINE SMOOTH"
);
},
{
closed = 1;
nodes = (
"322 675 LINE",
"225 825 LINE",
"55 825 LINE",
"188 675 LINE"
);
}
);
userData = {
assembly = "NPUSHB[ ]\011/* 49 values pushed */
0 5 0 4 0 5 4 94 0 2 2 0 88 6 1 0 0 34 72 0 3 3 1 88 0 1 1 35 1 73 2 0 27 26 25 24 23 20 17 14 8 5 0 11 2 11 7 6 20 
CALL[ ]\011/* CallFunction */";
};
width = 516;
}
);
note = Ograve;
unicode = 00D2;
},
{
glyphname = Ohungarumlaut;
lastChange = "2020-01-03 07:23:48 +0000";
layers = (
{
layerId = "72B922C0-AA1F-4D08-9FB7-788394CCB5D9";
paths = (
{
closed = 1;
nodes = (
"332 0 LINE SMOOTH",
"479 0 OFFCURVE",
"479 124 QCURVE SMOOTH",
"479 518 LINE SMOOTH",
"479 642 OFFCURVE",
"332 642 QCURVE SMOOTH",
"184 642 LINE SMOOTH",
"37 642 OFFCURVE",
"37 518 QCURVE SMOOTH",
"37 124 LINE SMOOTH",
"37 0 OFFCURVE",
"184 0 QCURVE SMOOTH"
);
},
{
closed = 1;
nodes = (
"212 125 OFFCURVE",
"212 147 QCURVE SMOOTH",
"212 495 LINE SMOOTH",
"212 517 OFFCURVE",
"237 517 QCURVE SMOOTH",
"279 517 LINE SMOOTH",
"304 517 OFFCURVE",
"304 495 QCURVE SMOOTH",
"304 147 LINE SMOOTH",
"304 125 OFFCURVE",
"279 125 QCURVE SMOOTH",
"237 125 LINE SMOOTH"
);
},
{
closed = 1;
nodes = (
"220 674 LINE",
"353 824 LINE",
"206 824 LINE",
"109 674 LINE"
);
},
{
closed = 1;
nodes = (
"410 674 LINE",
"543 824 LINE",
"396 824 LINE",
"299 674 LINE"
);
}
);
userData = {
assembly = "NPUSHB[ ]\011/* 60 values pushed */
7 9 2 5 6 1 4 0 5 4 94 0 2 2 0 88 8 1 0 0 34 72 0 3 3 1 88 0 1 1 35 1 73 24 24 2 0 31 30 29 28 24 27 24 27 26 25 23 20 17 14 8 5 0 11 2 11 10 6 20 
CALL[ ]\011/* CallFunction */";
};
width = 500;
}
);
note = Ohungarumlaut;
unicode = 0150;
},
{
glyphname = Omacron;
lastChange = "2020-01-03 07:23:48 +0000";
layers = (
{
layerId = "72B922C0-AA1F-4D08-9FB7-788394CCB5D9";
paths = (
{
closed = 1;
nodes = (
"332 0 LINE SMOOTH",
"479 0 OFFCURVE",
"479 124 QCURVE SMOOTH",
"479 518 LINE SMOOTH",
"479 642 OFFCURVE",
"332 642 QCURVE SMOOTH",
"184 642 LINE SMOOTH",
"37 642 OFFCURVE",
"37 518 QCURVE SMOOTH",
"37 124 LINE SMOOTH",
"37 0 OFFCURVE",
"184 0 QCURVE SMOOTH"
);
},
{
closed = 1;
nodes = (
"212 125 OFFCURVE",
"212 147 QCURVE SMOOTH",
"212 495 LINE SMOOTH",
"212 517 OFFCURVE",
"237 517 QCURVE SMOOTH",
"279 517 LINE SMOOTH",
"304 517 OFFCURVE",
"304 495 QCURVE SMOOTH",
"304 147 LINE SMOOTH",
"304 125 OFFCURVE",
"279 125 QCURVE SMOOTH",
"237 125 LINE SMOOTH"
);
},
{
closed = 1;
nodes = (
"452 675 LINE",
"452 781 LINE",
"63 781 LINE",
"63 675 LINE"
);
}
);
userData = {
assembly = "NPUSHB[ ]\011/* 54 values pushed */
7 1 5 0 4 0 5 4 94 0 2 2 0 88 6 1 0 0 34 72 0 3 3 1 88 0 1 1 35 1 73 24 24 2 0 24 27 24 27 26 25 23 20 17 14 8 5 0 11 2 11 8 6 20 
CALL[ ]\011/* CallFunction */";
};
width = 516;
}
);
note = Omacron;
unicode = 014C;
},
{
glyphname = Oslash;
lastChange = "2020-01-03 07:23:48 +0000";
layers = (
{
layerId = "72B922C0-AA1F-4D08-9FB7-788394CCB5D9";
paths = (
{
closed = 1;
nodes = (
"104 -20 LINE",
"120 8 LINE",
"149 0 OFFCURVE",
"184 0 QCURVE SMOOTH",
"332 0 LINE SMOOTH",
"479 0 OFFCURVE",
"479 124 QCURVE SMOOTH",
"479 518 LINE SMOOTH",
"479 568 OFFCURVE",
"455 598 QCURVE",
"492 662 LINE",
"418 662 LINE",
"401 633 LINE",
"372 642 OFFCURVE",
"332 642 QCURVE SMOOTH",
"184 642 LINE SMOOTH",
"37 642 OFFCURVE",
"37 518 QCURVE SMOOTH",
"37 124 LINE SMOOTH",
"37 70 OFFCURVE",
"64 40 QCURVE",
"30 -20 LINE"
);
},
{
closed = 1;
nodes = (
"202 115 OFFCURVE",
"202 137 QCURVE SMOOTH",
"202 152 LINE",
"314 349 LINE",
"314 137 LINE SMOOTH",
"314 115 OFFCURVE",
"289 115 QCURVE SMOOTH",
"227 115 LINE SMOOTH"
);
},
{
closed = 1;
nodes = (
"202 505 LINE SMOOTH",
"202 527 OFFCURVE",
"227 527 QCURVE SMOOTH",
"289 527 LINE SMOOTH",
"314 527 OFFCURVE",
"314 505 QCURVE SMOOTH",
"314 479 LINE",
"202 282 LINE"
);
}
);
userData = {
assembly = "NPUSHB[ ]\011/* 19 values pushed */
20 17 2 4 2 32 31 24 23 4 5 4 9 6 2 0 5 3 71 
MPPEM[ ]\011/* MeasurePixelPerEm */
PUSHB[ ]\011/* 1 value pushed */
13 
LT[ ]\011/* LessThan */
IF[ ]\011/* If */
NPUSHB[ ]\011/* 23 values pushed */
0 4 4 2 88 3 1 2 2 34 72 0 5 5 0 89 1 1 0 0 35 0 73 
ELSE[ ]\011/* Else */
MPPEM[ ]\011/* MeasurePixelPerEm */
PUSHB[ ]\011/* 1 value pushed */
25 
LT[ ]\011/* LessThan */
IF[ ]\011/* If */
NPUSHB[ ]\011/* 31 values pushed */
0 3 3 36 72 0 4 4 2 88 0 2 2 34 72 0 5 5 0 89 0 0 0 35 72 0 1 1 35 1 73 
ELSE[ ]\011/* Else */
NPUSHB[ ]\011/* 31 values pushed */
0 1 0 1 112 0 3 3 36 72 0 4 4 2 88 0 2 2 34 72 0 5 5 0 89 0 0 0 35 0 73 
EIF[ ]\011/* EndIf */
EIF[ ]\011/* EndIf */
NPUSHB[ ]\011/* 9 values pushed */
53 55 18 53 18 50 6 6 26 
CALL[ ]\011/* CallFunction */";
};
width = 516;
}
);
note = Oslash;
unicode = 00D8;
},
{
glyphname = Otilde;
lastChange = "2020-01-03 07:23:48 +0000";
layers = (
{
layerId = "72B922C0-AA1F-4D08-9FB7-788394CCB5D9";
paths = (
{
closed = 1;
nodes = (
"332 0 LINE SMOOTH",
"479 0 OFFCURVE",
"479 124 QCURVE SMOOTH",
"479 518 LINE SMOOTH",
"479 642 OFFCURVE",
"332 642 QCURVE SMOOTH",
"184 642 LINE SMOOTH",
"37 642 OFFCURVE",
"37 518 QCURVE SMOOTH",
"37 124 LINE SMOOTH",
"37 0 OFFCURVE",
"184 0 QCURVE SMOOTH"
);
},
{
closed = 1;
nodes = (
"212 125 OFFCURVE",
"212 147 QCURVE SMOOTH",
"212 495 LINE SMOOTH",
"212 517 OFFCURVE",
"237 517 QCURVE SMOOTH",
"279 517 LINE SMOOTH",
"304 517 OFFCURVE",
"304 495 QCURVE SMOOTH",
"304 147 LINE SMOOTH",
"304 125 OFFCURVE",
"279 125 QCURVE SMOOTH",
"237 125 LINE SMOOTH"
);
},
{
closed = 1;
nodes = (
"194 675 LINE",
"194 706 LINE SMOOTH",
"194 727 OFFCURVE",
"212 727 QCURVE SMOOTH",
"218 727 OFFCURVE",
"300 675 OFFCURVE",
"334 675 QCURVE SMOOTH",
"351 675 LINE SMOOTH",
"406 675 OFFCURVE",
"452 719 OFFCURVE",
"452 765 QCURVE SMOOTH",
"452 825 LINE",
"317 825 LINE",
"317 794 LINE SMOOTH",
"317 773 OFFCURVE",
"299 773 QCURVE SMOOTH",
"293 773 OFFCURVE",
"211 825 OFFCURVE",
"177 825 QCURVE SMOOTH",
"158 825 LINE SMOOTH",
"104 825 OFFCURVE",
"59 777 OFFCURVE",
"59 730 QCURVE SMOOTH",
"59 675 LINE"
);
}
);
userData = {
assembly = "MPPEM[ ]\011/* MeasurePixelPerEm */
PUSHB[ ]\011/* 1 value pushed */
23 
LT[ ]\011/* LessThan */
IF[ ]\011/* If */
NPUSHB[ ]\011/* 45 values pushed */
0 6 5 9 5 6 101 0 9 4 4 9 99 7 1 5 8 1 4 0 5 4 96 0 2 2 0 88 10 1 0 0 34 72 0 3 3 1 88 0 1 1 35 1 73 
ELSE[ ]\011/* Else */
NPUSHB[ ]\011/* 47 values pushed */
0 6 5 9 5 6 9 109 0 9 4 5 9 4 107 7 1 5 8 1 4 0 5 4 96 0 2 2 0 88 10 1 0 0 34 72 0 3 3 1 88 0 1 1 35 1 73 
EIF[ ]\011/* EndIf */
NPUSHB[ ]\011/* 27 values pushed */
2 0 47 45 44 41 38 37 35 33 32 29 26 25 23 20 17 14 8 5 0 11 2 11 11 6 20 
CALL[ ]\011/* CallFunction */";
};
width = 516;
}
);
note = Otilde;
unicode = 00D5;
},
{
glyphname = OE;
lastChange = "2020-01-03 07:23:48 +0000";
layers = (
{
layerId = "72B922C0-AA1F-4D08-9FB7-788394CCB5D9";
paths = (
{
closed = 1;
nodes = (
"290 0 LINE SMOOTH",
"334 0 OFFCURVE",
"362 20 QCURVE",
"362 0 LINE",
"706 0 LINE",
"706 115 LINE",
"487 115 LINE",
"487 266 LINE",
"668 266 LINE",
"668 381 LINE",
"487 381 LINE",
"487 527 LINE",
"697 527 LINE",
"697 642 LINE",
"362 642 LINE",
"362 622 LINE",
"334 642 OFFCURVE",
"290 642 QCURVE SMOOTH",
"212 642 LINE SMOOTH",
"65 642 OFFCURVE",
"65 518 QCURVE SMOOTH",
"65 124 LINE SMOOTH",
"65 0 OFFCURVE",
"212 0 QCURVE SMOOTH"
);
},
{
closed = 1;
nodes = (
"240 115 OFFCURVE",
"240 137 QCURVE SMOOTH",
"240 505 LINE SMOOTH",
"240 527 OFFCURVE",
"265 527 QCURVE SMOOTH",
"307 527 LINE SMOOTH",
"332 527 OFFCURVE",
"332 505 QCURVE SMOOTH",
"332 137 LINE SMOOTH",
"332 115 OFFCURVE",
"307 115 QCURVE SMOOTH",
"265 115 LINE SMOOTH"
);
}
);
userData = {
assembly = "NPUSHB[ ]\011/* 57 values pushed */
15 1 5 3 4 1 1 0 2 71 0 6 0 7 0 6 7 94 8 1 5 5 3 88 4 1 3 3 34 72 9 1 0 0 1 88 2 1 1 1 35 1 73 35 32 51 17 17 17 18 51 50 17 16 10 6 29 
CALL[ ]\011/* CallFunction */";
};
width = 740;
}
);
note = OE;
unicode = 0152;
},
{
glyphname = P;
lastChange = "2020-01-03 07:23:48 +0000";
layers = (
{
layerId = "72B922C0-AA1F-4D08-9FB7-788394CCB5D9";
paths = (
{
closed = 1;
nodes = (
"215 0 LINE",
"215 210 LINE",
"337 210 LINE SMOOTH",
"435 210 OFFCURVE",
"484 251 OFFCURVE",
"484 334 CURVE SMOOTH",
"484 518 LINE SMOOTH",
"484 601 OFFCURVE",
"435 642 OFFCURVE",
"337 642 CURVE SMOOTH",
"40 642 LINE",
"40 0 LINE"
);
},
{
closed = 1;
nodes = (
"215 517 LINE",
"284 517 LINE SMOOTH",
"301 517 OFFCURVE",
"309 510 OFFCURVE",
"309 495 CURVE SMOOTH",
"309 357 LINE SMOOTH",
"309 342 OFFCURVE",
"301 335 OFFCURVE",
"284 335 CURVE SMOOTH",
"215 335 LINE"
);
}
);
userData = {
assembly = "NPUSHB[ ]\011/* 32 values pushed */
0 4 0 1 2 4 1 96 0 3 3 0 88 0 0 0 34 72 0 2 2 35 2 73 33 35 17 35 32 5 6 25 
CALL[ ]\011/* CallFunction */";
};
width = 504;
},
{
associatedMasterId = "72B922C0-AA1F-4D08-9FB7-788394CCB5D9";
layerId = "A12BE154-AA11-4CFA-8249-FBEB177C6666";
name = "Dec 21 19, 13:15";
paths = (
{
closed = 1;
nodes = (
"40 0 LINE",
"215 0 LINE",
"215 210 LINE",
"337 210 LINE SMOOTH",
"484 210 OFFCURVE",
"484 334 QCURVE SMOOTH",
"484 518 LINE SMOOTH",
"484 642 OFFCURVE",
"337 642 QCURVE SMOOTH",
"40 642 LINE",
"40 642 LINE"
);
},
{
closed = 1;
nodes = (
"309 335 OFFCURVE",
"284 335 QCURVE SMOOTH",
"215 335 LINE",
"215 517 LINE",
"284 517 LINE SMOOTH",
"309 517 OFFCURVE",
"309 495 QCURVE SMOOTH",
"309 357 LINE",
"309 357 LINE"
);
}
);
userData = {
assembly = "NPUSHB[ ]\011/* 32 values pushed */
0 4 0 1 2 4 1 96 0 3 3 0 88 0 0 0 34 72 0 2 2 35 2 73 33 35 17 35 32 5 6 25 
CALL[ ]\011/* CallFunction */";
};
width = 504;
}
);
note = P;
unicode = 0050;
},
{
glyphname = Thorn;
lastChange = "2020-01-03 07:23:48 +0000";
layers = (
{
layerId = "72B922C0-AA1F-4D08-9FB7-788394CCB5D9";
paths = (
{
closed = 1;
nodes = (
"220 0 LINE",
"220 115 LINE",
"332 115 LINE SMOOTH",
"479 115 OFFCURVE",
"479 239 QCURVE SMOOTH",
"479 402 LINE SMOOTH",
"479 526 OFFCURVE",
"332 526 QCURVE SMOOTH",
"220 526 LINE",
"220 642 LINE",
"45 642 LINE",
"45 0 LINE"
);
},
{
closed = 1;
nodes = (
"220 406 LINE",
"279 406 LINE SMOOTH",
"304 406 OFFCURVE",
"304 384 QCURVE SMOOTH",
"304 257 LINE SMOOTH",
"304 235 OFFCURVE",
"279 235 QCURVE SMOOTH",
"220 235 LINE"
);
}
);
userData = {
assembly = "NPUSHB[ ]\011/* 36 values pushed */
0 0 0 4 5 0 4 96 0 5 0 1 2 5 1 96 0 3 3 34 72 0 2 2 35 2 73 33 35 17 17 35 32 6 6 26 
CALL[ ]\011/* CallFunction */";
};
width = 534;
}
);
note = Thorn;
unicode = 00DE;
},
{
glyphname = Q;
lastChange = "2020-01-03 07:23:48 +0000";
layers = (
{
layerId = "72B922C0-AA1F-4D08-9FB7-788394CCB5D9";
paths = (
{
closed = 1;
nodes = (
"535 -68 LINE",
"442 31 LINE",
"479 62 OFFCURVE",
"479 124 QCURVE SMOOTH",
"479 518 LINE SMOOTH",
"479 642 OFFCURVE",
"332 642 QCURVE SMOOTH",
"184 642 LINE SMOOTH",
"37 642 OFFCURVE",
"37 518 QCURVE SMOOTH",
"37 124 LINE SMOOTH",
"37 0 OFFCURVE",
"184 0 QCURVE SMOOTH",
"273 0 LINE",
"336 -68 LINE"
);
},
{
closed = 1;
nodes = (
"212 125 OFFCURVE",
"212 147 QCURVE SMOOTH",
"212 495 LINE SMOOTH",
"212 517 OFFCURVE",
"237 517 QCURVE SMOOTH",
"279 517 LINE SMOOTH",
"304 517 OFFCURVE",
"304 495 QCURVE SMOOTH",
"304 147 LINE SMOOTH",
"304 125 OFFCURVE",
"279 125 QCURVE SMOOTH",
"237 125 LINE SMOOTH"
);
}
);
userData = {
assembly = "NPUSHB[ ]\011/* 50 values pushed */
11 1 0 3 1 71 0 2 0 2 112 0 4 4 1 88 0 1 1 34 72 0 3 3 0 88 5 1 0 0 35 0 73 1 0 26 23 20 17 13 12 7 4 0 14 1 14 6 6 20 
CALL[ ]\011/* CallFunction */";
};
width = 516;
}
);
note = Q;
unicode = 0051;
},
{
glyphname = R;
lastChange = "2020-01-03 07:23:48 +0000";
layers = (
{
layerId = "72B922C0-AA1F-4D08-9FB7-788394CCB5D9";
paths = (
{
closed = 1;
nodes = (
"215 0 LINE",
"215 228 LINE",
"226 228 LINE",
"328 0 LINE",
"516 0 LINE",
"398 235 LINE",
"455 250 OFFCURVE",
"484 289 OFFCURVE",
"484 352 CURVE SMOOTH",
"484 518 LINE SMOOTH",
"484 601 OFFCURVE",
"435 642 OFFCURVE",
"337 642 CURVE SMOOTH",
"40 642 LINE",
"40 0 LINE"
);
},
{
closed = 1;
nodes = (
"215 517 LINE",
"284 517 LINE SMOOTH",
"301 517 OFFCURVE",
"309 510 OFFCURVE",
"309 495 CURVE SMOOTH",
"309 369 LINE SMOOTH",
"309 354 OFFCURVE",
"301 347 OFFCURVE",
"284 347 CURVE SMOOTH",
"215 347 LINE"
);
}
);
userData = {
assembly = "NPUSHB[ ]\011/* 53 values pushed */
9 1 3 5 1 71 0 5 6 1 3 0 5 3 94 7 1 4 4 1 88 0 1 1 34 72 2 1 0 0 35 0 73 14 13 0 0 17 15 13 20 14 20 0 12 0 12 21 33 17 8 6 23 
CALL[ ]\011/* CallFunction */";
};
width = 514;
}
);
note = R;
unicode = 0052;
},
{
glyphname = Racute;
lastChange = "2020-01-03 07:23:48 +0000";
layers = (
{
layerId = "72B922C0-AA1F-4D08-9FB7-788394CCB5D9";
paths = (
{
closed = 1;
nodes = (
"215 0 LINE",
"215 228 LINE",
"226 228 LINE",
"328 0 LINE",
"516 0 LINE",
"398 235 LINE",
"484 257 OFFCURVE",
"484 352 QCURVE SMOOTH",
"484 518 LINE SMOOTH",
"484 642 OFFCURVE",
"337 642 QCURVE SMOOTH",
"40 642 LINE",
"40 0 LINE"
);
},
{
closed = 1;
nodes = (
"215 517 LINE",
"284 517 LINE SMOOTH",
"309 517 OFFCURVE",
"309 495 QCURVE SMOOTH",
"309 369 LINE SMOOTH",
"309 347 OFFCURVE",
"284 347 QCURVE SMOOTH",
"215 347 LINE"
);
},
{
closed = 1;
nodes = (
"310 674 LINE",
"443 824 LINE",
"273 824 LINE",
"176 674 LINE"
);
}
);
userData = {
assembly = "NPUSHB[ ]\011/* 70 values pushed */
9 1 3 5 1 71 10 1 7 0 6 1 7 6 94 0 5 8 1 3 0 5 3 94 9 1 4 4 1 88 0 1 1 34 72 2 1 0 0 35 0 73 21 21 14 13 0 0 21 24 21 24 23 22 17 15 13 20 14 20 0 12 0 12 21 33 17 11 6 23 
CALL[ ]\011/* CallFunction */";
};
width = 514;
}
);
note = Racute;
unicode = 0154;
},
